<?xml version="1.0" encoding="utf-8"?>
<!-- Generator: Adobe Illustrator 16.0.0, SVG Export Plug-In . SVG Version: 6.00 Build 0)  -->
<!DOCTYPE svg PUBLIC "-//W3C//DTD SVG 1.1//EN" "http://www.w3.org/Graphics/SVG/1.1/DTD/svg11.dtd">
<svg version="1.1" id="Layer_1" xmlns="http://www.w3.org/2000/svg" xmlns:xlink="http://www.w3.org/1999/xlink" x="0px" y="0px"
	 width="834px" height="479px" viewBox="0 0 834 479" enable-background="new 0 0 834 479" xml:space="preserve">
<path fill="#7EC59B" d="M545.441,310.249c32.035,17.656,60.016,41.755,82.206,70.55l116.42-74.75
	c-37.085-51.132-85.896-93.205-142.487-122.27L545.441,310.249z"/>
<path fill="#F16366" d="M254.401,333.973c45.007-35.369,101.762-56.463,163.443-56.463c30.285,0,59.375,5.099,86.476,14.461
	L560.459,165.5c-44.332-16.791-92.399-25.983-142.615-25.983c-98.057,0-187.924,35.05-257.77,93.297L254.401,333.973z"/>
<path fill="#6FCCDE" d="M161.228,477c10.766-42.463,31.778-80.84,60.272-112.327l-94.332-101.165
	C72.02,321.003,33.765,394.825,20.377,477H161.228z"/>
<path fill="#FDDA7C" d="M815.308,477c-7.772-47.702-23.922-92.592-46.895-133.105l-116.419,74.75
	c9.674,18.288,17.269,37.845,22.473,58.355H815.308z"/>
<g>
	<g>
		<circle fill="#86C546" cx="85.863" cy="195.787" r="39.388"/>
	</g>
	<g>
		<g>
			<circle fill="#FFFFFF" cx="73.729" cy="185.28" r="3.28"/>
			<circle fill="#FFFFFF" cx="98" cy="185.28" r="3.28"/>
		</g>
		<g>
			<path fill="#FFFFFF" d="M84.556,210.876c-14.967,0-20.2-8.971-20.416-9.353c-0.354-0.626-0.132-1.421,0.495-1.775
				c0.624-0.354,1.417-0.134,1.772,0.49c0.192,0.333,4.784,8.032,18.149,8.032c13.593,0,20.803-8.896,20.875-8.986
				c0.447-0.563,1.266-0.659,1.831-0.212c0.563,0.447,0.658,1.267,0.211,1.83C107.149,201.311,99.395,210.876,84.556,210.876z"/>
		</g>
	</g>
</g>
<g>
	<g>
		<circle fill="orange" cx="730.865" cy="157.228" r="37.544"/>
	</g>
	<g>
		<g>
			<circle fill="#FFFFFF" cx="743" cy="146.72" r="3.28"/>
			<circle fill="#FFFFFF" cx="718.729" cy="146.72" r="3.28"/>
		</g>
		<g>
			<path fill="#FFFFFF" d="M710.278,172.315c-0.284,0-0.57-0.092-0.81-0.283c-0.562-0.447-0.656-1.264-0.21-1.828
				c0.322-0.407,8.077-9.973,22.916-9.973c14.967,0,20.198,8.972,20.413,9.354c0.354,0.626,0.132,1.421-0.495,1.774
				c-0.625,0.352-1.417,0.132-1.771-0.49l0,0c-0.189-0.328-4.778-8.034-18.146-8.034c-13.535,0-20.805,8.899-20.876,8.989
				C711.041,172.147,710.661,172.315,710.278,172.315z"/>
		</g>
	</g>
</g>
<g>
	<g>
		<circle fill="#fdda7c" cx="433.636" cy="45.871" r="39.388"/>
	</g>
	<g>
		<g>
			<circle fill="#b59c59" cx="447.295" cy="36.228" r="3.585"/>
			<circle fill="#b59c59" cx="420.76" cy="36.228" r="3.585"/>
		</g>
		<g>
			<path fill="#b59c59" d="M441.773,60.418c-5.911,0-8.643-1.883-11.053-3.544c-2.122-1.462-3.954-2.725-7.934-2.725
				c-7.888,0-9.071,3.631-9.081,3.668c-0.187,0.705-0.91,1.121-1.613,0.938c-0.705-0.187-1.124-0.909-0.938-1.613
				c0.061-0.23,1.608-5.631,11.631-5.631c4.801,0,7.155,1.622,9.432,3.191c2.296,1.583,4.466,3.078,9.555,3.078
				c9.523,0,11.918-3.577,11.941-3.613c0.386-0.605,1.192-0.802,1.806-0.429c0.613,0.374,0.822,1.157,0.462,1.777
				C455.691,56.017,452.816,60.418,441.773,60.418z"/>
		</g>
	</g>
</g>
<g>
	<g>
		<polygon fill="white" points="348.5,203 345.5,203 345.5,46.5 378,46.5 378,49.5 348.5,49.5 		"/>
	</g>
	<circle fill="white" cx="347" cy="203" r="5.5"/>
	<circle fill="white" cx="381" cy="48.5" r="5.5"/>
</g>
<g>
	<g>
		<polygon fill="white" points="648.5,281 645.5,281 645.5,155 678,155 678,158 648.5,158 		"/>
	</g>
	<circle fill="white" cx="647" cy="281" r="5.5"/>
	<circle fill="white" cx="681" cy="157" r="5.5"/>
</g>
<g>
	<g>
		<polygon fill="white" points="119,391.5 83.5,391.5 83.5,251 86.5,251 86.5,388.5 119,388.5 		"/>
	</g>
	<circle fill="white" cx="119.5" cy="390" r="5.5"/>
	<circle fill="white" cx="85.5" cy="247.5" r="5.5"/>
</g>
</svg>
