<?xml version="1.0" encoding="utf-8"?>
<!-- Generator: Adobe Illustrator 16.0.0, SVG Export Plug-In . SVG Version: 6.00 Build 0)  -->
<!DOCTYPE svg PUBLIC "-//W3C//DTD SVG 1.1//EN" "http://www.w3.org/Graphics/SVG/1.1/DTD/svg11.dtd">
<svg version="1.1" id="Layer_1" xmlns="http://www.w3.org/2000/svg" xmlns:xlink="http://www.w3.org/1999/xlink" x="0px" y="0px"
	 width="268px" height="59px" viewBox="0 0 268 59" enable-background="new 0 0 268 59" xml:space="preserve">
<g>
	<g>
		<path fill="#898989" d="M10.154,52.292V12.006h5.212v17.749h23.807V12.006h5.211v40.287h-5.211V33.98H15.366v18.312H10.154z"/>
		<path fill="#898989" d="M59.45,36.741V12.006h5.212v24.735c0,7.738,3.851,11.607,11.552,11.607c7.699,0,11.55-3.869,11.55-11.607
			V12.006h5.212v24.735c0,10.555-5.588,15.833-16.762,15.833C65.038,52.574,59.45,47.296,59.45,36.741z"/>
		<g>
			<g>
				<path fill="#E4505F" d="M108.043,52.292V12.006h17.185c7.663,0,11.494,3.127,11.494,9.382c0,4.583-2.498,7.86-7.493,9.832
					c5.334,0.996,8,4.047,8,9.156c0,7.945-4.197,11.917-12.592,11.917H108.043z M124.326,48.066c4.808,0,7.212-2.441,7.212-7.325
					c0-4.751-3.221-7.128-9.663-7.128h-2.253v-3.409c7.7-1.032,11.55-3.812,11.55-8.339c0-3.756-2.141-5.634-6.423-5.634h-11.494
					v31.834H124.326z"/>
			</g>
		</g>
		<g>
			<g>
				<path fill="#E4505F" d="M163.874,52.292c-8.395,0-12.593-3.972-12.593-11.917c0-5.109,2.667-8.16,8.001-9.156
					c-4.995-1.972-7.494-5.25-7.494-9.832c0-6.255,3.832-9.382,11.495-9.382h17.185v40.287H163.874z M175.256,48.066V16.232h-11.494
					c-4.282,0-6.424,1.878-6.424,5.634c0,4.526,3.851,7.307,11.551,8.339v3.409h-2.254c-6.441,0-9.663,2.376-9.663,7.128
					c0,4.883,2.405,7.325,7.213,7.325H175.256z"/>
			</g>
		</g>
		<path fill="#898989" d="M199.733,12.006v36.061h21.072v4.226h-26.284V12.006H199.733z"/>
		<path fill="#898989" d="M259.114,12.006v4.226h-21.129v13.522h20.143v4.226h-20.143v14.086h21.551v4.226h-26.763V12.006H259.114z"
			/>
	</g>
</g>
</svg>
