<?xml version="1.0" encoding="utf-8"?>
   <!--  -->
   <!--  -->
<!-- Generator: Adobe Illustrator 16.0.0, SVG Export Plug-In . SVG Version: 6.00 Build 0)  -->
<!DOCTYPE svg PUBLIC "-//W3C//DTD SVG 1.1//EN" "http://www.w3.org/Graphics/SVG/1.1/DTD/svg11.dtd">
<?xml-stylesheet href="svgstyle.css" type="text/css"?>

<svg version="1.1" xmlns="http://www.w3.org/2000/svg" xmlns:xlink="http://www.w3.org/1999/xlink" x="0px" y="0px"
	  viewBox="0 0 551.973 268.921" enable-background="new 0 0 551.973 268.921"
	 xml:space="preserve">

<g id="Layer_1" >
	<g class="globo1 animated fadeInUp">
		<g class="" style="">
			<polygon fill="#EA4E60" points="264.208,50.772 264.208,65.991 281.303,52.156 "/>
			<circle class="" fill="#EA4E60" cx="281.127" cy="29.9" r="27.5"/>
		</g>
		<g class="ojos1">
			<circle fill="#FFFFFF" cx="290.154" cy="24.188" r="2.503"/>
			<circle fill="#FFFFFF" cx="271.628" cy="24.188" r="2.503"/>
		</g>
		<path class="boca1" fill="none" stroke="#FFFFFF" stroke-width="1.8424" stroke-linecap="round" stroke-miterlimit="10" d="M265.813,39.026
			c0,0,0.86-3.246,7.23-3.246s5.854,4.376,13.256,4.376c7.402,0,9.124-2.965,9.124-2.965"/>
	</g>
	<g>
		<g>
			<g>
				<polygon class="uno" fill="#F8CEA0" points="504.101,189.79 504.961,199.952 502.778,206.91 502.584,209.135 505.023,214.257 
					506.754,214.824 507.177,213.085 506.435,211.121 507.73,207.051 506.894,211.358 507.556,213.96 508.518,214.092 
					509.6,211.996 509.951,209.44 510.626,207.17 511.294,204.401 509.896,199.729 509.783,189.896 				"/>
				<polygon fill="#F8F0F0" points="509.17,212.139 507.359,211.973 507.744,213.44 508.41,213.546 				"/>
				<polygon fill="#F8CEA0" points="504.879,194.521 506.668,201.16 504.006,208.447 504.163,212.613 503.37,208.271 
					504.961,199.952 504.319,193.185 				"/>
				<polygon fill="#F8CEA0" points="507.449,208.52 509.014,204.354 507.562,207.241 				"/>
				<polygon fill="#202E51" points="510.43,155.076 505.307,162.057 503.068,181.52 504.961,199.952 509.896,199.729 
					509.783,180.833 519.769,152.236 				"/>
			</g>
			<polygon fill="#333333" points="545.005,144.973 541.828,113.406 525.637,106.271 509.279,113.726 509.619,129.674 
				530.84,149.042 			"/>
			<polygon points="505.503,145.221 520.174,149.409 525.637,129.249 525.637,106.271 509.279,113.726 			"/>
			<polygon fill="#F8CEA0" points="520.186,149.042 520.437,154.828 525.555,160.199 525.555,152.484 			"/>
			<polygon fill="#F8DFB2" points="511.463,128.834 512.306,144.262 525.555,152.484 525.555,116.08 512.975,118.765 			"/>
			<polygon fill="#F8CEA0" points="525.46,131.768 523.715,138.263 525.555,140.736 			"/>
			<polygon fill="#F8DFB2" points="530.84,149.042 530.588,154.828 525.471,160.199 525.471,152.484 			"/>
			<polygon fill="#F8CEA0" points="539.562,128.834 538.726,144.262 525.471,152.484 525.471,116.08 538.051,118.765 			"/>
			<polygon fill="#F7CEB7" points="529.745,143.043 525.371,143.646 525.61,146.097 			"/>
			<polygon points="511.463,128.834 516.234,118.884 525.717,116.363 534.271,119.133 539.562,128.834 538.051,118.765 
				525.637,109.702 512.975,118.765 			"/>
			<g>
				<polygon fill="#CCCCCC" points="510.795,195.196 514.986,217.405 515.825,259.003 522.703,259.347 525.41,200.674 				"/>
				<polygon fill="#4D4D4D" points="523.025,266.055 522.703,259.347 516.162,258.837 511.016,262.02 508.191,266.055 				"/>
			</g>
			<polygon fill="#333333" points="525.555,109.773 512.975,118.765 511.463,128.834 516.234,118.884 525.717,116.363 			"/>
			<polygon fill="#204575" points="525.667,160.105 521.961,155.159 519.769,152.236 517.461,152.935 512.469,163.322 
				509.783,169.369 513.924,176.372 510.795,195.196 525.667,200.852 			"/>
			<g>
				<g>
					<polygon fill="#F8DFB2" points="547.075,189.671 546.209,199.835 548.397,206.791 548.594,209.028 546.152,214.138 
						544.42,214.718 543.994,212.968 544.742,211.003 543.445,206.934 544.283,211.253 543.62,213.843 542.654,213.985 
						541.577,211.891 541.216,209.323 540.545,207.051 539.877,204.295 541.269,199.622 541.387,189.777 					"/>
					<polygon fill="#F8F0F0" points="542.003,212.021 543.816,211.867 543.426,213.322 542.76,213.429 					"/>
					<polygon fill="#F8CEA0" points="546.297,194.416 544.508,201.041 547.17,208.328 547.014,212.493 547.801,208.163 
						546.209,199.835 546.856,193.078 					"/>
					<polygon fill="#F8CEA0" points="543.727,208.4 542.162,204.236 543.615,207.122 					"/>
					<polygon fill="#202E51" points="540.74,154.971 545.863,161.938 548.107,181.413 546.209,199.835 541.269,199.622 
						541.387,180.716 531.404,152.118 					"/>
				</g>
				<g>
					<polygon fill="#E6E6E6" points="540.383,195.078 536.186,217.286 535.348,258.884 528.467,259.228 525.768,200.567 					"/>
					<polygon fill="#4D4D4D" points="528.151,265.937 528.467,259.228 535.014,258.731 540.16,261.913 542.979,265.937 					"/>
				</g>
				<polygon fill="#2D6093" points="525.51,159.997 531.404,152.118 533.792,152.71 538.701,163.216 541.387,169.263 
					537.252,176.254 540.383,195.078 525.667,200.852 				"/>
			</g>
			<polygon fill="#333333" points="522.613,127.64 520.671,126.918 516.223,127.012 514.742,128.551 516.994,127.662 
				519.922,127.438 			"/>
			<polygon fill="#333333" points="528.051,127.64 529.997,126.918 534.439,127.012 535.918,128.551 533.674,127.662 
				530.738,127.438 			"/>
			<polygon fill="#F8CEA0" points="518.209,133.826 517.656,132.136 519.092,131.094 520.538,132.136 519.984,133.826 			"/>
			<polygon fill="#F8DFB2" points="531.375,133.826 530.822,132.136 532.263,131.094 533.703,132.136 533.15,133.826 			"/>
			<polygon fill="#ED1E7A" points="521.029,142.996 525.441,143.174 525.441,145.635 			"/>
			<polygon fill="#EE327A" points="529.857,142.996 525.441,143.174 525.441,145.635 			"/>
			<g>
				<path d="M538.889,129.071l-0.988-0.132c-5.525-0.886-7.928-0.034-10.096,0.392c-1.484,0.296-2.018,0.343-2.194,0.343v-0.011
					c0,0-0.006,0-0.05,0.011c-0.039-0.011-0.051-0.011-0.051-0.011v0.011c-0.184,0-0.711-0.047-2.191-0.343
					c-2.168-0.426-4.572-1.277-10.092-0.392l-0.994,0.132l-0.033,1.538c0,0,0.465,0.034,0.793,1.158l0.653,3.419
					c0,0,0.562,2.698,4.28,2.757c0,0,3.783,0.533,5.066-1.407c0,0,1.082-0.957,1.609-3.585c0,0,0.121-0.97,0.959-1.063
					c0.842,0.094,0.961,1.063,0.961,1.063c0.529,2.628,1.611,3.585,1.611,3.585c1.284,1.94,5.062,1.407,5.062,1.407
					c3.718-0.059,4.274-2.757,4.274-2.757l0.659-3.419c0.329-1.124,0.792-1.158,0.792-1.158L538.889,129.071z M523.869,133.317
					c-0.246,2.166-2.707,4.011-5.375,3.834c-2.822-0.201-4.446-1.856-4.446-3.917c0-1.052-0.146-2.508,0.786-3.193
					c0.883-0.651,2.729-0.58,4.057-0.58c1.419,0,3.354,0.319,4.381,1.042C524.138,131.117,523.975,132.336,523.869,133.317z
					 M537.078,133.234c0,2.061-1.625,3.716-4.452,3.917c-2.674,0.177-5.129-1.668-5.368-3.834c-0.107-0.981-0.281-2.2,0.592-2.814
					c1.026-0.723,2.967-1.042,4.381-1.042c1.322,0,3.167-0.071,4.055,0.58C537.207,130.727,537.078,132.183,537.078,133.234z"/>
			</g>
		</g>
	</g>
	<g>
		<g>
			<g>
				<polygon fill="#F7E0D6" points="27.633,150.745 22.504,157.725 20.268,177.188 22.16,195.621 27.094,195.396 26.98,176.501 
					36.961,147.904 				"/>
				<polygon fill="#F7E0D6" points="21.303,185.457 22.16,195.621 19.971,202.578 19.775,204.802 22.226,209.924 23.953,210.504 
					24.379,208.754 23.627,206.778 24.922,202.72 24.09,207.026 24.75,209.629 25.71,209.759 26.798,207.665 27.152,205.098 
					27.827,202.838 28.496,200.068 27.094,195.396 26.98,185.564 				"/>
				<polygon fill="#F8F0F0" points="26.365,207.808 24.557,207.642 24.947,209.108 25.603,209.215 				"/>
				<polygon fill="#F7CEB7" points="22.077,190.19 23.864,196.815 21.207,204.116 21.355,208.279 20.562,203.95 22.16,195.621 
					21.516,188.854 				"/>
				<polygon fill="#F7CEB7" points="24.645,204.174 26.206,200.011 24.757,202.908 				"/>
			</g>
			<polygon fill="#301B11" points="60.613,126.844 59.021,109.062 42.836,101.939 26.479,109.405 26.816,125.33 			"/>
			<polygon fill="#673B1B" points="24.805,126.844 42.836,124.917 42.836,101.939 26.479,109.405 			"/>
			<polygon fill="#F7CEB7" points="37.387,144.711 37.636,150.496 42.753,155.866 42.753,148.152 			"/>
			<polygon fill="#F7CEB7" points="28.662,124.491 26.313,124.337 24.805,126.844 25.811,131.21 29.668,134.062 			"/>
			<polygon fill="#F7E0D6" points="28.662,124.491 29.502,139.931 42.753,148.152 42.753,111.749 30.17,114.434 			"/>
			<polygon fill="#F7CEB7" points="42.658,127.425 40.906,133.921 42.753,136.404 			"/>
			<polygon fill="#F7E0D6" points="48.036,144.711 47.781,150.496 42.664,155.866 42.664,148.152 			"/>
			<polygon fill="#F7E0D6" points="56.756,124.491 59.104,124.337 60.613,126.844 59.607,131.21 55.75,134.062 			"/>
			<polygon fill="#F7CEB7" points="56.756,124.491 55.922,139.931 42.664,148.152 42.664,111.749 55.252,114.434 			"/>
			<polygon fill="#F7CEB7" points="46.941,138.712 42.564,139.315 42.812,141.765 			"/>
			<polygon fill="#673B1B" points="28.662,124.491 42.912,112.031 56.756,124.491 55.252,114.434 42.836,105.37 30.17,114.434 			
				"/>
			<g>
				<polygon fill="#2D6093" points="27.992,190.852 32.187,213.072 33.021,254.672 39.895,255.001 42.605,196.354 				"/>
				<polygon fill="#4D4D4D" points="40.227,261.711 39.895,255.001 33.358,254.494 28.213,257.688 25.391,261.711 				"/>
			</g>
			<polygon fill="#301B11" points="42.753,105.43 30.17,114.434 28.289,123.887 29.502,139.931 35.56,119.308 42.912,112.031 			"/>
			<polygon fill="#85161F" points="42.859,155.772 39.156,150.828 36.961,147.904 34.66,148.604 29.668,159.002 26.98,165.037 
				31.123,172.028 27.992,190.852 42.859,196.521 			"/>
			<g>
				<g>
					<polygon fill="#F7E0D6" points="57.938,150.638 63.061,157.618 65.303,177.08 63.41,195.502 58.471,195.277 58.59,176.394 
						48.604,147.786 					"/>
					<polygon fill="#F7E0D6" points="64.262,185.351 63.41,195.502 65.6,202.459 65.789,204.695 63.346,209.807 61.611,210.387 
						61.191,208.635 61.938,206.67 60.643,202.613 61.482,206.907 60.819,209.512 59.855,209.652 58.771,207.559 58.412,204.991 
						57.743,202.73 57.074,199.963 58.471,195.277 58.59,185.445 					"/>
					<polygon fill="#F8F0F0" points="59.204,207.7 61.014,207.534 60.624,209.003 59.961,209.097 					"/>
					<polygon fill="#F7CEB7" points="63.492,190.083 61.7,196.721 64.369,204.009 64.215,208.162 65.002,203.832 63.41,195.502 
						64.055,188.747 					"/>
					<polygon fill="#F7CEB7" points="60.92,204.068 59.357,199.903 60.808,202.79 					"/>
				</g>
				<g>
					<polygon fill="#202E51" points="57.577,190.745 53.383,212.953 52.543,254.563 45.67,254.896 42.965,196.235 					"/>
					<polygon fill="#4D4D4D" points="45.344,261.604 45.67,254.896 52.211,254.387 57.354,257.57 60.175,261.604 					"/>
				</g>
				<polygon fill="#BB3526" points="42.705,155.666 48.604,147.786 50.993,148.378 55.898,158.885 58.59,164.93 54.449,171.923 
					57.577,190.745 42.859,196.521 				"/>
			</g>
			<polygon fill="#301B11" points="39.777,126.041 38.096,124.821 33.797,123.697 31.957,124.774 34.359,124.537 37.238,125.118 			
				"/>
			<polygon fill="#301B11" points="45.403,126.041 47.076,124.821 51.385,123.697 53.223,124.774 50.821,124.537 47.941,125.118 			
				"/>
			<polygon fill="#F7CEB7" points="35.406,129.495 34.855,127.803 36.292,126.762 37.73,127.803 37.187,129.495 			"/>
			<polygon fill="#F7E0D6" points="48.574,129.495 48.023,127.803 49.461,126.762 50.898,127.803 50.349,129.495 			"/>
			<polygon fill="#ED1E7A" points="38.228,138.664 42.641,138.842 42.641,141.302 			"/>
			<polygon fill="#EE327A" points="47.059,138.664 42.641,138.842 42.641,141.302 			"/>
			<polygon fill="#301B11" points="30.413,140.665 27.502,153.406 36.447,166.492 37.347,148.152 33.985,142.675 			"/>
		</g>
	</g>
	<g>
		<g>
			<polygon fill="#C67F2A" points="436.678,136.105 429.07,126.699 430.283,113.555 435.335,106.126 466.097,113.555 
				464.073,125.693 461.506,129.161 456.921,127.48 440.813,127.824 			"/>
			<g>
				<polygon fill="#F7E0D6" points="433.11,137.455 427.987,144.435 425.746,163.898 427.639,182.332 432.579,182.106 
					432.459,163.211 442.445,134.615 				"/>
				<polygon fill="#F7E0D6" points="426.781,172.168 427.639,182.332 425.449,189.288 425.254,191.513 427.698,196.636 
					429.431,197.202 429.857,195.452 429.105,193.487 430.401,189.431 429.562,193.736 430.229,196.339 431.194,196.47 
					432.276,194.375 432.631,191.808 433.306,189.548 433.974,186.78 432.579,182.106 432.459,172.274 				"/>
				<polygon fill="#F8F0F0" points="431.845,194.518 430.034,194.352 430.426,195.818 431.087,195.925 				"/>
				<polygon fill="#F7CEB7" points="427.556,176.9 429.349,183.527 426.681,190.826 426.834,194.979 426.047,190.649 
					427.639,182.332 426.994,175.562 				"/>
				<polygon fill="#F7CEB7" points="430.129,190.886 431.685,186.721 430.241,189.62 				"/>
			</g>
			<polygon fill="#DF9D26" points="466.097,113.555 464.499,95.773 448.314,88.638 431.958,96.104 432.295,112.041 			"/>
			<polygon fill="#C67F2A" points="430.283,113.555 448.314,111.627 448.314,88.638 431.958,96.104 			"/>
			<polygon fill="#F7CEB7" points="442.866,131.42 443.114,137.206 448.231,150.623 448.231,134.863 			"/>
			<polygon fill="#F7E0D6" points="434.141,111.201 434.98,126.64 448.231,134.863 448.231,98.458 435.648,101.144 			"/>
			<polygon fill="#F7CEB7" points="448.131,114.135 446.385,120.63 448.231,123.114 			"/>
			<polygon fill="#F7E0D6" points="453.521,131.42 453.266,137.206 448.148,150.623 448.148,134.863 			"/>
			<polygon fill="#F7E0D6" points="462.234,111.201 464.589,111.035 466.097,113.555 465.091,117.92 461.229,120.772 			"/>
			<polygon fill="#F7CEB7" points="462.234,111.201 461.406,126.64 448.148,134.863 448.148,98.458 460.731,101.144 			"/>
			<polygon fill="#F7CEB7" points="452.426,125.422 448.043,126.024 448.291,128.475 			"/>
			<polygon fill="#C67F2A" points="434.141,111.201 448.392,98.742 458.938,101.31 462.234,111.201 460.731,101.144 448.314,92.081 
				435.648,101.144 			"/>
			<g>
				<polygon fill="#666666" points="433.472,177.562 437.66,199.783 438.506,241.382 445.379,241.713 448.083,183.053 				"/>
				<polygon fill="#4D4D4D" points="445.705,248.421 445.379,241.713 438.831,241.204 433.69,244.398 430.875,248.421 				"/>
			</g>
			<polygon fill="#DF9D26" points="448.231,92.141 435.648,101.144 433.773,110.598 434.98,126.64 441.038,106.007 448.392,98.742 
							"/>
			<polygon fill="#333333" points="448.338,150.54 444.641,137.538 442.445,134.615 440.139,135.313 435.146,145.7 432.459,151.747 
				436.602,158.74 433.472,177.562 448.344,183.23 			"/>
			<g>
				<g>
					<polygon fill="#F7E0D6" points="463.417,137.349 468.539,144.316 470.775,163.779 468.889,182.212 463.955,181.988 
						464.068,163.094 454.087,134.496 					"/>
					<polygon fill="#F7E0D6" points="469.747,172.05 468.889,182.212 471.072,189.17 471.272,191.406 468.824,196.517 
						467.096,197.097 466.67,195.347 467.422,193.382 466.126,189.323 466.961,193.619 466.298,196.222 465.34,196.351 
						464.251,194.269 463.896,191.702 463.222,189.431 462.553,186.673 463.955,181.988 464.068,172.156 					"/>
					<polygon fill="#F8F0F0" points="464.683,194.399 466.493,194.234 466.103,195.701 465.445,195.808 					"/>
					<polygon fill="#F7CEB7" points="468.972,176.794 467.179,183.419 469.841,190.707 469.688,194.872 470.48,190.543 
						468.889,182.212 469.527,175.457 					"/>
					<polygon fill="#F7CEB7" points="466.397,190.778 464.843,186.614 466.292,189.501 					"/>
				</g>
				<g>
					<polygon fill="#666666" points="463.056,177.457 458.861,199.663 458.026,241.264 451.153,241.594 448.444,182.946 					"/>
					<polygon fill="#4D4D4D" points="450.822,248.303 451.153,241.594 457.689,241.099 462.838,244.28 465.654,248.303 					"/>
				</g>
				<polygon fill="#1A1A1A" points="448.189,150.421 451.745,137.691 454.087,134.496 456.472,135.088 461.383,145.595 
					464.068,151.641 459.927,158.632 463.056,177.457 448.344,183.23 				"/>
			</g>
			<polygon fill="#C67F2A" points="445.345,111.142 443.34,110.645 438.926,111.235 437.637,112.929 439.761,111.804 
				442.654,111.248 			"/>
			<polygon fill="#C67F2A" points="450.888,111.142 452.904,110.645 457.307,111.235 458.602,112.929 456.472,111.804 
				453.584,111.248 			"/>
			<polygon fill="#F7CEB7" points="440.885,116.205 440.334,114.515 441.777,113.472 443.209,114.515 442.665,116.205 			"/>
			<polygon fill="#F7E0D6" points="454.053,116.205 453.509,114.515 454.939,113.472 456.383,114.515 455.834,116.205 			"/>
			<polygon fill="#ED1E7A" points="443.705,125.375 448.12,125.553 448.12,128.013 			"/>
			<polygon fill="#EE327A" points="452.537,125.375 448.12,125.553 448.12,128.013 			"/>
			<g>
				<g>
					<g>
						<path fill="#FFFFFF" d="M463.258,112.23l-1.111-0.154c-6.185-0.981-8.868-0.035-11.296,0.449
							c-1.661,0.319-2.253,0.38-2.453,0.38v-0.013c0,0-0.006,0.013-0.06,0.013c-0.047,0-0.047-0.013-0.047-0.013v0.013
							c-0.214,0-0.799-0.061-2.461-0.38c-2.433-0.484-5.117-1.431-11.299-0.449l-1.106,0.154l-0.036,1.727
							c0,0,0.515,0.037,0.888,1.29l0.733,3.821c0,0,0.622,3.028,4.785,3.1c0,0,4.23,0.592,5.667-1.585c0,0,1.215-1.065,1.798-4.01
							c0,0,0.149-1.078,1.078-1.185c0.94,0.106,1.076,1.185,1.076,1.185c0.587,2.944,1.806,4.01,1.806,4.01
							c1.438,2.177,5.66,1.585,5.66,1.585c4.165-0.071,4.786-3.1,4.786-3.1l0.739-3.821c0.373-1.253,0.882-1.29,0.882-1.29
							L463.258,112.23z"/>
						<path fill="#603A17" d="M446.439,116.974c-0.261,2.438-3.018,4.508-6.01,4.296c-3.159-0.226-4.978-2.083-4.978-4.391
							c0-1.17-0.152-2.791,0.889-3.56c0.987-0.724,3.053-0.663,4.537-0.663c1.585,0,3.751,0.366,4.904,1.172
							C446.745,114.515,446.562,115.886,446.439,116.974z"/>
						<path fill="#603A17" d="M450.242,116.974c0.261,2.438,3.019,4.508,6.012,4.296c3.158-0.226,4.975-2.083,4.975-4.391
							c0-1.17,0.154-2.791-0.882-3.56c-0.994-0.724-3.063-0.663-4.55-0.663c-1.584,0-3.751,0.366-4.897,1.172
							C449.93,114.515,450.118,115.886,450.242,116.974z"/>
						<g>
							<defs>
								<path id="SVGID_1_" d="M446.439,116.974c-0.261,2.438-3.018,4.508-6.01,4.296c-3.159-0.226-4.978-2.083-4.978-4.391
									c0-1.17-0.152-2.791,0.889-3.56c0.987-0.724,3.053-0.663,4.537-0.663c1.585,0,3.751,0.366,4.904,1.172
									C446.745,114.515,446.562,115.886,446.439,116.974z"/>
							</defs>
							<clipPath id="SVGID_2_">
								<use xlink:href="#SVGID_1_"  overflow="visible"/>
							</clipPath>
							<g clip-path="url(#SVGID_2_)">
								<polygon fill="#FFFFFF" points="444.149,112.359 439.909,121.436 440.813,121.849 445.05,112.785 								"/>
								
									<rect x="438.46" y="117.428" transform="matrix(0.4238 -0.9057 0.9057 0.4238 149.0033 469.4257)" fill="#FFFFFF" width="10.019" height="0.338"/>
							</g>
						</g>
						<g>
							<defs>
								<path id="SVGID_3_" d="M450.242,116.974c0.261,2.438,3.019,4.508,6.012,4.296c3.158-0.226,4.975-2.083,4.975-4.391
									c0-1.17,0.154-2.791-0.882-3.56c-0.994-0.724-3.063-0.663-4.55-0.663c-1.584,0-3.751,0.366-4.897,1.172
									C449.93,114.515,450.118,115.886,450.242,116.974z"/>
							</defs>
							<clipPath id="SVGID_4_">
								<use xlink:href="#SVGID_3_"  overflow="visible"/>
							</clipPath>
							<g clip-path="url(#SVGID_4_)">
								
									<rect x="452.23" y="116.678" transform="matrix(0.4234 -0.9059 0.9059 0.4234 157.4743 481.7903)" fill="#FFFFFF" width="10.016" height="1.006"/>
								<polygon fill="#FFFFFF" points="460.193,113.059 455.951,122.122 456.265,122.274 460.506,113.211 								"/>
							</g>
						</g>
					</g>
				</g>
			</g>
		</g>
	</g>
	<g>
		<g>
			<g>
				<polygon fill="#7F4A2A" points="89.533,135.863 84.41,142.837 82.174,162.296 84.073,180.729 90.095,180.559 88.895,161.609 
					91.988,151.448 				"/>
				<polygon fill="#7F4A2A" points="83.203,170.571 84.073,180.729 81.878,187.691 81.689,189.912 84.133,195.029 85.859,195.61 
					86.279,193.863 85.54,191.893 86.83,187.835 85.989,192.139 86.652,194.732 87.621,194.876 88.871,192.78 89.509,190.452 
					90.964,186.595 91.184,184.12 90.095,180.559 89.402,170.917 				"/>
				<polygon fill="#F8F0F0" points="88.273,192.918 86.457,192.753 86.847,194.221 87.516,194.327 				"/>
				<polygon fill="#673B1B" points="83.979,175.302 85.771,181.937 83.109,189.227 83.262,193.39 82.476,189.06 84.073,180.729 
					83.422,173.968 				"/>
				<polygon fill="#673B1B" points="86.552,189.293 88.113,185.123 86.664,188.017 				"/>
			</g>
			<g>
				<polygon fill="#7F4A2A" points="124.98,135.919 130.104,142.894 132.333,162.353 130.44,180.787 124.412,180.614 
					125.619,161.666 122.519,151.503 				"/>
				<polygon fill="#7F4A2A" points="131.298,170.62 130.44,180.787 132.754,187.828 132.754,190.539 130.381,195.091 
					128.648,195.668 128.233,193.919 128.974,191.956 127.678,187.892 128.523,192.194 127.855,194.788 126.891,194.934 
					125.643,192.837 124.997,190.508 123.548,186.652 123.318,184.169 124.412,180.614 125.105,170.969 				"/>
				<polygon fill="#F8F0F0" points="126.24,192.977 128.044,192.809 127.653,194.276 126.998,194.384 				"/>
				<polygon fill="#673B1B" points="130.529,175.357 128.736,181.987 131.398,189.281 131.252,193.446 132.038,189.113 
					130.44,180.787 131.092,174.025 				"/>
				<polygon fill="#673B1B" points="127.955,189.344 126.395,185.185 127.85,188.074 				"/>
			</g>
			<g>
				<polygon points="92.662,175.492 97.691,245.108 104.571,245.44 107.273,181.419 				"/>
				<polygon fill="#85161F" points="104.891,252.15 104.571,245.44 98.028,244.938 92.881,248.125 90.065,252.15 				"/>
			</g>
			<g>
				<polygon fill="#333333" points="121.686,175.492 116.646,245.108 109.771,245.44 107.068,181.419 				"/>
				<polygon fill="#85161F" points="109.521,252.15 109.848,245.44 116.391,244.938 121.537,248.125 124.354,252.15 				"/>
			</g>
			<g>
				<polygon fill="#673B1B" points="121.159,107.55 121.904,94.469 107.145,87.671 92.722,94.469 92.941,108.558 				"/>
				<polygon fill="#7F4A2A" points="92.941,107.884 107.145,107.968 107.145,87.671 92.722,94.469 				"/>
				<polygon fill="#673B1B" points="101.619,125.417 101.944,133.552 107.068,136.235 107.068,131.207 				"/>
				<polygon fill="#7F4A2A" points="112.522,125.417 112.178,133.552 107.068,136.235 107.068,131.207 				"/>
				<polygon fill="#673B1B" points="93.313,107.633 90.964,107.468 89.451,109.984 90.463,114.341 93.645,116.865 				"/>
				<polygon fill="#7F4A2A" points="92.977,107.55 93.645,122.818 107.068,131.207 107.068,94.8 94.485,97.481 				"/>
				<polygon fill="#7F4A2A" points="120.822,107.55 123.17,107.381 124.68,109.898 123.673,114.258 120.484,116.774 				"/>
				<polygon fill="#673B1B" points="121.159,107.55 120.484,122.818 107.068,131.207 107.068,94.8 119.65,97.481 				"/>
				<polygon fill="#673B1B" points="107.068,106.881 104.044,116.104 107.233,119.633 				"/>
				<polygon fill="#673B1B" points="102.648,121.976 107.068,122.144 107.068,124.605 				"/>
				<polygon fill="#1B1919" points="104.713,107.55 96.998,106.544 95.821,108.387 				"/>
				<polygon fill="#1B1919" points="109.83,107.468 117.549,106.462 118.721,108.312 				"/>
				<polygon fill="#BB3526" points="107.518,136.85 101.619,128.099 89.451,132.038 92.639,175.819 107.233,181.863 				"/>
				<polygon fill="#85161F" points="101.619,128.099 98.342,129.019 104.553,137.582 105.221,136.738 107.233,141.438 
					107.285,133.837 				"/>
				<polygon fill="#85161F" points="89.451,132.038 82.352,140.207 80.334,154.07 91.296,156.984 				"/>
				<polygon fill="#A22422" points="107.311,136.625 112.871,127.987 125.033,131.933 121.846,175.708 107.25,181.748 				"/>
				<polygon fill="#85161F" points="112.871,127.987 116.143,128.908 109.936,137.462 109.268,136.625 107.25,141.326 
					107.197,133.718 				"/>
				<polygon fill="#85161F" points="125.033,131.933 132.139,140.093 134.148,153.961 123.193,156.869 				"/>
				<polygon fill="#1B1919" points="99.608,112.326 99.058,110.635 100.495,109.588 101.934,110.635 101.382,112.326 				"/>
				<polygon fill="#1B1919" points="112.777,112.326 112.226,110.635 113.658,109.588 115.107,110.635 114.551,112.326 				"/>
				<g>
					<path fill="#FFFFFF" d="M121.223,108.349l-1.058-0.146c-5.887-0.943-8.448-0.034-10.761,0.423
						c-1.579,0.314-2.143,0.365-2.336,0.365v-0.013c0,0-0.007,0.008-0.049,0.008c-0.047,0-0.059-0.008-0.059-0.008v0.013
						c-0.195,0-0.757-0.051-2.338-0.365c-2.312-0.457-4.873-1.366-10.76-0.423l-1.047,0.146l-0.041,1.639
						c0,0,0.49,0.036,0.846,1.231l0.704,3.643c0,0,0.592,2.874,4.555,2.946c0,0,4.022,0.562,5.401-1.509
						c0,0,1.148-1.015,1.715-3.815c0,0,0.125-1.026,1.023-1.132c0.889,0.105,1.018,1.132,1.018,1.132
						c0.568,2.801,1.716,3.815,1.716,3.815c1.372,2.071,5.396,1.509,5.396,1.509c3.964-0.072,4.562-2.946,4.562-2.946l0.704-3.643
						c0.342-1.195,0.84-1.231,0.84-1.231L121.223,108.349z M105.216,112.867c-0.261,2.312-2.888,4.287-5.732,4.091
						c-3.005-0.213-4.743-1.98-4.743-4.178c0-1.123-0.143-2.669,0.844-3.394c0.942-0.692,2.904-0.634,4.325-0.634
						c1.515,0,3.573,0.347,4.668,1.125C105.499,110.526,105.328,111.817,105.216,112.867z M119.284,112.78
						c0,2.197-1.724,3.965-4.745,4.178c-2.84,0.196-5.461-1.779-5.721-4.091c-0.106-1.05-0.295-2.341,0.633-2.989
						c1.102-0.778,3.166-1.125,4.673-1.125c1.409,0,3.379-0.059,4.325,0.634C119.431,110.111,119.284,111.657,119.284,112.78z"/>
				</g>
				<polygon points="92.828,101.791 92.722,94.469 107.145,87.671 121.904,94.469 121.454,102.297 119.219,96.366 107.145,93.234 
					95.289,95.925 				"/>
			</g>
		</g>
	</g>
	<g>
		<g>
			<g>
				<polygon fill="#F7E0D6" points="132.079,162.398 126.906,169.439 124.641,189.098 126.553,207.714 132.646,207.541 
					131.428,188.399 134.553,178.142 				"/>
				<polygon fill="#F7E0D6" points="125.682,197.45 126.553,207.714 124.348,214.736 124.151,216.985 126.611,222.153 
					128.363,222.74 128.788,220.969 128.04,218.986 129.342,214.882 128.5,219.235 129.17,221.855 130.143,222 131.41,219.877 
					132.049,217.533 133.512,213.637 133.746,211.133 132.646,207.541 131.947,197.794 				"/>
				<polygon fill="#F8F0F0" points="130.801,220.022 128.973,219.857 129.361,221.332 130.036,221.438 				"/>
				<polygon fill="#F7CEB7" points="126.469,202.229 128.275,208.926 125.584,216.287 125.746,220.494 124.945,216.121 
					126.553,207.714 125.9,200.881 				"/>
				<polygon fill="#F7CEB7" points="129.062,216.354 130.645,212.155 129.176,215.067 				"/>
			</g>
			<g>
				<polygon fill="#F7CEB7" points="167.871,162.455 173.039,169.502 175.303,189.16 173.391,207.762 167.297,207.597 
					168.515,188.463 165.391,178.198 				"/>
				<polygon fill="#F7CEB7" points="174.263,197.507 173.391,207.762 175.727,214.882 175.727,217.616 173.33,222.208 
					171.58,222.789 171.156,221.027 171.897,219.043 170.596,214.94 171.442,219.292 170.773,221.91 169.799,222.051 
					168.534,219.934 167.894,217.582 166.431,213.688 166.197,211.191 167.297,207.597 167.995,197.851 				"/>
				<polygon fill="#F8F0F0" points="169.144,220.081 170.971,219.917 170.582,221.389 169.908,221.492 				"/>
				<polygon fill="#F7E0D6" points="173.475,202.285 171.67,208.981 174.357,216.344 174.197,220.546 174.996,216.178 
					173.391,207.762 174.041,200.938 				"/>
				<polygon fill="#F7E0D6" points="170.881,216.415 169.292,212.213 170.768,215.131 				"/>
			</g>
			<polygon fill="#CCCCCC" points="147.439,268.921 149.99,208.4 135.234,202.415 140.036,268.921 			"/>
			<polygon fill="#B3B3B3" points="159.733,268.921 164.536,202.415 149.773,208.4 152.341,268.921 			"/>
			<g>
				<polygon fill="#C67F2A" points="166.15,134.655 166.15,118.221 149.799,111.021 134.636,118.565 133.627,134.655 				"/>
				<polygon fill="#DF9D26" points="133.613,134.231 149.799,134.231 149.799,111.021 133.287,118.565 				"/>
				<polygon fill="#F7CEB7" points="144.206,153.207 144.553,160.066 149.715,162.78 149.715,157.694 				"/>
				<polygon fill="#F7E0D6" points="155.224,153.207 154.883,160.066 149.715,162.78 149.715,157.694 				"/>
				<polygon fill="#F7CEB7" points="135.484,133.811 133.119,133.633 131.588,136.177 132.61,140.583 135.83,143.127 				"/>
				<polygon fill="#F7E0D6" points="135.484,133.811 134.809,147.863 149.715,157.694 149.715,120.935 137.014,123.646 				"/>
				<polygon fill="#F7E0D6" points="163.945,133.811 166.316,133.633 167.842,136.177 166.825,140.583 163.611,143.127 				"/>
				<polygon fill="#F7CEB7" points="163.945,133.811 164.619,147.863 149.715,157.694 149.715,120.935 162.422,123.646 				"/>
				<polygon fill="#F7CEB7" points="149.715,133.125 146.667,142.448 149.882,146.005 				"/>
				<polygon fill="#F7CEB7" points="145.258,148.376 149.715,148.541 149.715,151.034 				"/>
				<polygon fill="#C67F2A" points="147.342,133.696 139.564,132.58 138.352,134.427 				"/>
				<polygon fill="#C67F2A" points="152.135,133.696 159.912,132.58 161.125,134.427 				"/>
				<polygon fill="#666666" points="150.169,163.395 144.206,154.562 131.93,158.538 135.144,202.754 149.882,208.857 				"/>
				<polygon fill="#333333" points="144.206,154.562 140.908,155.496 147.176,164.132 147.851,163.288 149.882,168.022 
					149.941,160.351 				"/>
				<polygon fill="#333333" points="131.93,158.538 124.761,166.783 122.723,180.791 133.793,183.727 				"/>
				<polygon fill="#4D4D4D" points="149.967,163.174 155.582,154.447 167.865,158.426 164.646,202.641 149.906,208.744 				"/>
				<polygon fill="#333333" points="155.582,154.447 158.885,155.377 152.617,164.019 151.943,163.174 149.906,167.921 
					149.852,160.23 				"/>
				<polygon fill="#333333" points="167.865,158.426 175.039,166.673 177.064,180.676 166.006,183.607 				"/>
				<polygon fill="#F7CEB7" points="142.182,138.629 141.625,136.918 143.084,135.865 144.529,136.918 143.98,138.629 				"/>
				<polygon fill="#F7E0D6" points="155.479,138.629 154.93,136.918 156.377,135.865 157.834,136.918 157.277,138.629 				"/>
				<polygon fill="#C67F2A" points="135.484,133.811 139.965,126.126 144.062,127.506 149.654,130.898 149.793,115.29 
					136.465,122.74 				"/>
				<polygon fill="#DF9D26" points="164.221,138.52 157.612,132.762 149.654,130.898 149.715,115.234 163.486,122.822 				"/>
				<g>
					<g>
						<g>
							<path d="M164.883,134.743l-1.117-0.146c-6.242-1.009-8.961-0.04-11.41,0.439c-1.678,0.337-2.276,0.387-2.484,0.387v-0.015
								c0,0,0,0.009-0.049,0.009c-0.053,0-0.053-0.009-0.053-0.009v0.015c-0.215,0-0.808-0.05-2.486-0.387
								c-2.456-0.479-5.167-1.448-11.41-0.439l-1.117,0.146l-0.031,1.748c0,0,0.515,0.041,0.892,1.303l0.741,3.859
								c0,0,0.631,3.049,4.832,3.128c0,0,4.272,0.591,5.723-1.598c0,0,1.227-1.08,1.822-4.048c0,0,0.145-1.087,1.088-1.2
								c0.943,0.113,1.082,1.2,1.082,1.2c0.596,2.968,1.816,4.048,1.816,4.048c1.451,2.188,5.723,1.598,5.723,1.598
								c4.205-0.079,4.834-3.128,4.834-3.128l0.745-3.859c0.378-1.262,0.892-1.303,0.892-1.303L164.883,134.743z"/>
							<path fill="#603A17" d="M147.898,139.542c-0.263,2.456-3.047,4.541-6.07,4.33c-3.188-0.217-5.023-2.094-5.023-4.422
								c0-1.195-0.156-2.837,0.896-3.599c0.996-0.737,3.082-0.674,4.582-0.674c1.607,0,3.788,0.373,4.952,1.189
								C148.215,137.053,148.023,138.43,147.898,139.542z"/>
							<path fill="#603A17" d="M151.74,139.542c0.262,2.456,3.046,4.541,6.07,4.33c3.188-0.217,5.023-2.094,5.023-4.422
								c0-1.195,0.154-2.837-0.891-3.599c-1.003-0.737-3.093-0.674-4.588-0.674c-1.605,0-3.794,0.373-4.952,1.189
								C151.424,137.053,151.615,138.43,151.74,139.542z"/>
							<g>
								<defs>
									<path id="SVGID_5_" d="M147.898,139.542c-0.263,2.456-3.047,4.541-6.07,4.33c-3.188-0.217-5.023-2.094-5.023-4.422
										c0-1.195-0.156-2.837,0.896-3.599c0.996-0.737,3.082-0.674,4.582-0.674c1.607,0,3.788,0.373,4.952,1.189
										C148.215,137.053,148.023,138.43,147.898,139.542z"/>
								</defs>
								<clipPath id="SVGID_6_">
									<use xlink:href="#SVGID_5_"  overflow="visible"/>
								</clipPath>
								<g clip-path="url(#SVGID_6_)">
									<polygon fill="#FFFFFF" points="145.586,134.877 141.297,144.037 142.217,144.469 146.494,135.311 									"/>
									<polygon fill="#FFFFFF" points="146.883,135.51 142.6,144.671 142.91,144.816 147.199,135.658 									"/>
								</g>
							</g>
							<g>
								<defs>
									<path id="SVGID_7_" d="M151.74,139.542c0.262,2.456,3.046,4.541,6.07,4.33c3.188-0.217,5.023-2.094,5.023-4.422
										c0-1.195,0.154-2.837-0.891-3.599c-1.003-0.737-3.093-0.674-4.588-0.674c-1.605,0-3.794,0.373-4.952,1.189
										C151.424,137.053,151.615,138.43,151.74,139.542z"/>
								</defs>
								<clipPath id="SVGID_8_">
									<use xlink:href="#SVGID_7_"  overflow="visible"/>
								</clipPath>
								<g clip-path="url(#SVGID_8_)">
									<polygon fill="#FFFFFF" points="160.485,134.955 156.203,144.113 157.123,144.539 161.406,135.381 									"/>
									
										<rect x="154.749" y="140.063" transform="matrix(0.4237 -0.9058 0.9058 0.4237 -34.9281 225.5823)" fill="#FFFFFF" width="10.113" height="0.352"/>
								</g>
							</g>
						</g>
					</g>
				</g>
			</g>
		</g>
	</g>
	<g>
		<g>
			<polygon fill="#673B1B" points="198.386,100.741 189.576,104.92 187.996,124.015 197.477,135.761 195.336,123.334 
				198.609,113.621 			"/>
			<g>
				<polygon fill="#F7E0D6" points="198.286,136.119 193.109,143.156 190.849,162.824 192.76,181.428 197.746,181.212 
					197.629,162.118 207.712,133.241 				"/>
				<polygon fill="#F7E0D6" points="191.891,171.164 192.76,181.428 190.558,188.45 190.354,190.698 192.82,195.873 
					194.566,196.458 194.998,194.689 194.244,192.705 195.551,188.596 194.709,192.955 195.379,195.574 196.35,195.703 
					197.441,193.604 197.803,191.01 198.479,188.715 199.156,185.933 197.746,181.212 197.629,171.27 				"/>
				<polygon fill="#F8F0F0" points="197.01,193.733 195.177,193.578 195.572,195.048 196.242,195.155 				"/>
				<polygon fill="#F7CEB7" points="192.675,175.954 194.483,182.646 191.796,190.008 191.954,194.213 191.153,189.838 
					192.76,181.428 192.112,174.605 				"/>
				<polygon fill="#F7CEB7" points="195.273,190.077 196.845,185.871 195.385,188.788 				"/>
			</g>
			<polygon fill="#673B1B" points="231.596,111.972 229.987,94.024 213.641,86.82 197.123,94.36 197.466,110.454 			"/>
			<polygon fill="#512C13" points="195.431,111.972 213.641,110.035 213.641,86.82 197.123,94.36 			"/>
			<polygon fill="#F7CEB7" points="208.135,130.012 208.389,135.867 213.557,141.283 213.557,133.492 			"/>
			<polygon fill="#F7CEB7" points="199.332,109.606 196.951,109.438 195.431,111.972 196.447,116.379 200.34,119.259 			"/>
			<polygon fill="#F7E0D6" points="199.332,109.606 200.172,125.199 213.557,133.492 213.557,96.734 200.846,99.437 			"/>
			<polygon fill="#F7CEB7" points="213.461,112.567 211.695,119.141 213.557,121.627 			"/>
			<polygon fill="#F7E0D6" points="218.896,130.012 218.641,135.867 213.473,141.283 213.473,133.492 			"/>
			<polygon fill="#F7E0D6" points="227.697,109.606 230.076,109.438 231.596,111.972 230.584,116.379 226.682,119.259 			"/>
			<polygon fill="#F7CEB7" points="227.697,109.606 226.858,125.199 213.473,133.492 213.473,96.734 226.181,99.437 			"/>
			<polygon fill="#F7CEB7" points="217.789,123.954 213.365,124.575 213.62,127.037 			"/>
			<polygon fill="#512C13" points="199.332,109.606 213.721,97.023 227.697,109.606 226.181,99.437 213.641,90.297 200.846,99.437 
							"/>
			<g>
				<polygon fill="#F7E0D6" points="198.647,176.624 202.881,199.051 203.734,241.061 210.678,241.407 213.411,182.167 				"/>
				<polygon fill="#4D4D4D" points="211.004,248.183 210.678,241.407 204.064,240.905 198.869,244.121 196.029,248.183 				"/>
			</g>
			<polygon fill="#673B1B" points="213.557,90.356 200.846,99.437 199.332,109.606 213.721,97.023 			"/>
			<polygon fill="#E6D71A" points="213.67,141.197 209.928,136.19 207.712,133.241 205.383,133.956 200.34,144.448 197.629,150.541 
				201.812,157.614 198.647,176.624 213.672,182.335 			"/>
			<g>
				<g>
					<polygon fill="#F7E0D6" points="228.891,136 234.065,143.048 236.324,162.704 234.415,181.319 229.434,181.093 
						229.547,162.011 219.469,133.12 					"/>
					<polygon fill="#F7E0D6" points="235.281,171.057 234.415,181.319 236.623,188.347 236.823,190.592 234.353,195.767 
						232.606,196.337 232.178,194.569 232.936,192.588 231.625,188.489 232.477,192.837 231.804,195.455 230.832,195.609 
						229.73,193.482 229.377,190.89 228.695,188.606 228.017,185.811 229.434,181.093 229.547,171.152 					"/>
					<polygon fill="#F8F0F0" points="230.172,193.625 231.996,193.459 231.602,194.941 230.938,195.037 					"/>
					<polygon fill="#F7CEB7" points="234.506,175.836 232.693,182.538 235.384,189.887 235.227,194.104 236.023,189.731 
						234.415,181.319 235.07,174.496 					"/>
					<polygon fill="#F7CEB7" points="231.907,189.957 230.328,185.754 231.793,188.68 					"/>
				</g>
				<g>
					<polygon fill="#F7E0D6" points="228.53,176.506 224.293,198.931 223.448,240.954 216.499,241.289 213.773,182.049 					"/>
					<polygon fill="#4D4D4D" points="216.172,248.074 216.499,241.289 223.111,240.787 228.308,243.999 231.15,248.074 					"/>
				</g>
				<polygon fill="#D3C329" points="213.512,141.078 219.469,133.12 221.883,133.729 226.834,144.327 229.547,150.435 
					225.365,157.496 228.53,176.506 213.672,182.335 				"/>
			</g>
			<polygon fill="#512C13" points="210.546,111.17 208.854,109.939 204.512,108.794 202.651,109.88 205.079,109.653 
				207.988,110.237 			"/>
			<polygon fill="#512C13" points="216.239,111.17 217.93,109.939 222.277,108.794 224.135,109.88 221.706,109.653 218.8,110.237 
							"/>
			<polygon fill="#F7CEB7" points="206.14,114.661 205.58,112.95 207.037,111.888 208.484,112.95 207.932,114.661 			"/>
			<polygon fill="#F7E0D6" points="219.441,114.661 218.876,112.95 220.332,111.888 221.785,112.95 221.233,114.661 			"/>
			<polygon fill="#ED1E7A" points="208.986,123.921 213.443,124.089 213.443,126.573 			"/>
			<polygon fill="#EE327A" points="217.906,123.921 213.443,124.089 213.443,126.573 			"/>
			<polygon fill="#7AC7C9" points="198.659,176.719 201.996,193.912 225.375,193.912 228.537,176.6 213.672,182.432 			"/>
		</g>
	</g>
	<g>
		<g>
			<g>
				<polygon fill="#F7E0D6" points="315.288,138.88 310.115,145.918 307.856,165.585 309.767,184.195 315.857,184.019 
					314.634,164.888 317.765,154.623 				"/>
				<polygon fill="#F7E0D6" points="308.896,173.932 309.767,184.195 307.562,191.218 307.358,193.464 309.828,198.642 
					311.576,199.22 312.003,197.449 311.248,195.47 312.554,191.37 311.716,195.715 312.385,198.335 313.357,198.481 
					314.619,196.354 315.269,194.012 316.726,190.119 316.962,187.616 315.857,184.019 315.158,174.274 				"/>
				<polygon fill="#F8F0F0" points="314.018,196.503 312.183,196.341 312.578,197.809 313.248,197.917 				"/>
				<polygon fill="#F7CEB7" points="309.682,178.71 311.489,185.404 308.802,192.771 308.959,196.976 308.159,192.604 
					309.767,184.195 309.117,177.362 				"/>
				<polygon fill="#F7CEB7" points="312.28,192.833 313.854,188.637 312.391,191.549 				"/>
			</g>
			<g>
				<polygon fill="#F7CEB7" points="351.082,138.938 356.249,145.982 358.517,165.641 356.605,184.252 350.515,184.075 
					351.731,164.939 348.604,154.678 				"/>
				<polygon fill="#F7CEB7" points="357.474,173.989 356.605,184.252 358.935,191.365 358.935,194.097 356.543,198.693 
					354.789,199.276 354.368,197.505 355.119,195.523 353.811,191.42 354.656,195.768 353.987,198.393 353.018,198.538 
					351.747,196.418 351.101,194.066 349.642,190.175 349.41,187.671 350.515,184.075 351.209,174.33 				"/>
				<polygon fill="#F8F0F0" points="352.357,196.564 354.183,196.397 353.794,197.871 353.123,197.976 				"/>
				<polygon fill="#F7E0D6" points="356.69,178.769 354.882,185.468 357.571,192.822 357.413,197.034 358.214,192.661 
					356.605,184.252 357.255,177.421 				"/>
				<polygon fill="#F7E0D6" points="354.095,192.895 352.515,188.688 353.981,191.612 				"/>
			</g>
			<g>
				<polygon fill="#666666" points="318.445,178.903 323.532,249.199 330.473,249.543 333.205,184.883 				"/>
				<polygon fill="#808080" points="330.802,256.319 330.473,249.543 323.869,249.036 318.67,252.255 315.823,256.319 				"/>
			</g>
			<g>
				<polygon fill="#575757" points="347.753,178.903 342.675,249.199 335.727,249.543 332.991,184.883 				"/>
				<polygon fill="#808080" points="335.473,256.319 335.804,249.543 342.41,249.036 347.606,252.255 350.453,256.319 				"/>
			</g>
			<g>
				<polygon fill="#666666" points="349.387,110.852 348.033,94.423 333.042,87.223 317.882,94.762 316.86,110.852 				"/>
				<polygon fill="#808080" points="316.857,110.428 333.042,110.428 333.042,87.223 317.882,94.762 				"/>
				<polygon fill="#F7CEB7" points="327.453,129.399 327.79,136.265 332.957,138.978 332.957,133.893 				"/>
				<polygon fill="#F7E0D6" points="338.465,129.399 338.126,136.265 332.957,138.978 332.957,133.893 				"/>
				<polygon fill="#F7CEB7" points="318.727,110.008 316.354,109.838 314.831,112.379 315.848,116.783 319.065,119.325 				"/>
				<polygon fill="#F7E0D6" points="318.727,110.008 318.052,124.067 332.957,133.893 332.957,97.13 320.247,99.839 				"/>
				<polygon fill="#F7E0D6" points="347.188,110.008 349.557,109.838 351.082,112.379 350.064,116.783 346.845,119.325 				"/>
				<polygon fill="#F7CEB7" points="347.188,110.008 347.866,124.067 332.957,133.893 332.957,97.13 345.664,99.839 				"/>
				<polygon fill="#F7CEB7" points="332.957,109.33 329.909,118.641 333.127,122.202 				"/>
				<polygon fill="#F7CEB7" points="328.501,124.575 332.957,124.745 332.957,127.23 				"/>
				<polygon fill="#666666" points="330.586,109.893 322.803,108.779 321.595,110.623 				"/>
				<polygon fill="#666666" points="335.369,109.893 343.145,108.779 344.357,110.623 				"/>
				<polygon fill="#7AC7C9" points="333.409,139.599 327.453,130.76 315.169,134.743 318.39,178.952 333.127,185.053 				"/>
				<polygon fill="#76B9C9" points="327.453,130.76 324.148,131.687 330.422,140.328 331.099,139.483 333.127,144.229 
					333.185,136.546 				"/>
				<polygon fill="#76B9C9" points="315.169,134.743 307.998,142.983 305.961,156.989 317.03,159.927 				"/>
				<polygon fill="#95D6DC" points="333.205,139.365 338.823,130.644 351.105,134.629 347.881,178.844 333.148,184.938 				"/>
				<polygon fill="#76B9C9" points="338.823,130.644 342.127,131.577 335.861,140.216 335.183,139.365 333.148,144.11 
					333.092,136.437 				"/>
				<polygon fill="#76B9C9" points="351.105,134.629 358.276,142.873 360.311,156.874 349.241,159.812 				"/>
				<polygon fill="#F7CEB7" points="325.427,114.826 324.871,113.125 326.32,112.066 327.772,113.125 327.221,114.826 				"/>
				<polygon fill="#F7E0D6" points="338.725,114.826 338.168,113.125 339.618,112.066 341.072,113.125 340.515,114.826 				"/>
				<polygon fill="#666666" points="318.727,110.008 321.073,100.675 327.874,99.502 332.918,103.457 333.033,91.482 
					319.708,98.938 				"/>
				<polygon fill="#808080" points="347.262,109.952 344.959,100.461 337.477,99.502 332.918,103.457 332.957,91.426 346.283,98.88 
									"/>
				<polygon fill="#B3B3B3" points="332.963,121.99 328.191,121.708 324.967,123.659 332.93,123.742 				"/>
				<polygon fill="#999999" points="332.846,121.995 337.619,121.708 340.837,123.659 332.874,123.742 				"/>
				<polygon fill="#808080" points="332.963,128.891 320.538,122.458 318.39,115.734 318.052,124.09 332.957,133.921 				"/>
				<polygon fill="#666666" points="332.9,128.891 345.33,122.458 347.471,115.734 347.866,124.067 332.906,133.921 				"/>
				<g>
					<path fill="#1A1A1A" d="M346.398,111.316l-0.992-0.137c-5.583-0.898-8.001-0.03-10.201,0.398
						c-1.491,0.299-2.027,0.345-2.208,0.345v-0.009c0,0-0.009,0.002-0.053,0.009c-0.038-0.007-0.05-0.009-0.05-0.009v0.009
						c-0.191,0-0.714-0.046-2.214-0.345c-2.19-0.429-4.615-1.297-10.194-0.398l-0.999,0.137l-0.028,1.558
						c0,0,0.463,0.035,0.788,1.161l0.666,3.461c0,0,0.572,2.719,4.317,2.783c0,0,3.823,0.537,5.123-1.424
						c0,0,1.096-0.958,1.623-3.618c0,0,0.115-0.979,0.968-1.072c0.847,0.094,0.968,1.072,0.968,1.072
						c0.535,2.66,1.627,3.618,1.627,3.618c1.296,1.961,5.12,1.424,5.12,1.424c3.743-0.064,4.316-2.783,4.316-2.783l0.664-3.461
						c0.332-1.126,0.791-1.161,0.791-1.161L346.398,111.316z M331.239,115.602c-0.247,2.188-2.732,4.06-5.427,3.869
						c-2.858-0.198-4.492-1.871-4.492-3.954c0-1.061-0.147-2.532,0.787-3.215c0.9-0.655,2.758-0.598,4.104-0.598
						c1.433,0,3.384,0.33,4.421,1.064C331.509,113.383,331.349,114.61,331.239,115.602z M344.574,115.517
						c0,2.083-1.635,3.756-4.494,3.954c-2.698,0.19-5.184-1.682-5.421-3.869c-0.114-0.991-0.279-2.219,0.591-2.833
						c1.044-0.734,3.001-1.064,4.431-1.064c1.337,0,3.21-0.058,4.1,0.598C344.71,112.984,344.574,114.456,344.574,115.517z"/>
				</g>
			</g>
		</g>
	</g>
	<g>
		<g>
			<g>
				<polygon fill="#F7E0D6" points="350.03,156.111 344.855,163.158 342.594,182.814 344.502,201.424 350.594,201.251 
					349.374,182.115 352.506,171.854 				"/>
				<polygon fill="#F7E0D6" points="343.634,191.163 344.502,201.424 342.3,208.446 342.102,210.694 344.563,215.869 
					346.317,216.452 346.738,214.681 345.988,212.703 347.296,208.594 346.45,212.946 347.122,215.566 348.092,215.71 
					349.359,213.593 350.004,211.244 351.468,207.349 351.7,204.849 350.594,201.251 349.9,191.507 				"/>
				<polygon fill="#F8F0F0" points="348.758,213.74 346.926,213.567 347.313,215.049 347.983,215.149 				"/>
				<polygon fill="#F7CEB7" points="344.418,195.942 346.227,202.644 343.537,209.997 343.697,214.209 342.898,209.832 
					344.502,201.424 343.853,194.598 				"/>
				<polygon fill="#F7CEB7" points="347.018,210.072 348.601,205.866 347.132,208.788 				"/>
			</g>
			<g>
				<polygon fill="#F7CEB7" points="385.817,156.169 390.991,163.212 393.254,182.87 391.34,201.475 385.25,201.306 
					386.472,182.173 383.339,171.914 				"/>
				<polygon fill="#F7CEB7" points="392.209,191.218 391.34,201.475 393.679,208.594 393.679,211.325 391.28,215.922 
					389.534,216.506 389.103,214.743 389.854,212.752 388.548,208.649 389.398,213.007 388.729,215.619 387.757,215.762 
					386.489,213.652 385.841,211.3 384.382,207.404 384.145,204.905 385.25,201.306 385.948,191.562 				"/>
				<polygon fill="#F8F0F0" points="387.095,213.791 388.918,213.627 388.529,215.106 387.857,215.206 				"/>
				<polygon fill="#F7E0D6" points="391.429,196.004 389.616,202.699 392.306,210.061 392.154,214.259 392.947,209.888 
					391.34,201.475 391.988,194.658 				"/>
				<polygon fill="#F7E0D6" points="388.828,210.128 387.253,205.922 388.715,208.842 				"/>
			</g>
			<g>
				<polygon fill="#1A1A1A" points="353.181,196.128 358.265,266.432 365.213,266.775 367.942,202.113 				"/>
				<polygon fill="#4D4D4D" points="365.315,268.921 365.213,266.775 358.604,266.261 354.312,268.921 				"/>
			</g>
			<g>
				<polygon fill="#333333" points="382.488,196.128 377.409,266.432 370.469,266.775 367.729,202.113 				"/>
				<polygon fill="#2B2B2B" points="381.44,268.921 377.146,266.261 370.539,266.775 370.437,268.921 				"/>
			</g>
			<g>
				<polygon fill="#BC8654" points="384.163,128.195 384.163,111.761 367.817,104.564 351.305,112.105 351.638,128.195 				"/>
				<polygon fill="#9F6839" points="351.624,127.774 367.817,127.774 367.817,104.564 351.305,112.105 				"/>
				<polygon fill="#F7CEB7" points="362.227,148.102 362.567,153.609 367.729,156.32 367.729,151.241 				"/>
				<polygon fill="#F7E0D6" points="373.233,148.102 372.902,153.609 367.729,156.32 367.729,151.241 				"/>
				<polygon fill="#F7CEB7" points="353.502,127.351 351.128,127.181 349.604,129.726 350.621,134.129 353.841,136.667 				"/>
				<polygon fill="#F7E0D6" points="353.502,127.351 352.817,142.77 367.729,151.241 367.729,114.478 355.03,117.187 				"/>
				<polygon fill="#F7E0D6" points="381.959,127.351 384.337,127.181 385.86,129.726 384.846,134.129 381.628,136.667 				"/>
				<polygon fill="#F7CEB7" points="381.959,127.351 382.64,142.77 367.729,151.241 367.729,114.478 380.438,117.187 				"/>
				<polygon fill="#F7CEB7" points="367.729,126.669 364.685,135.993 367.901,139.552 				"/>
				<polygon fill="#F7CEB7" points="363.271,141.919 367.729,142.09 367.729,144.574 				"/>
				<polygon fill="#9F6839" points="353.502,127.351 368.072,123.452 380.438,117.187 378.578,112.274 367.817,108.035 
					355.03,117.187 				"/>
				<polygon fill="#BC8654" points="365.36,127.351 357.567,126.336 356.384,128.195 				"/>
				<polygon fill="#BC8654" points="370.526,127.268 378.317,126.253 379.508,128.117 				"/>
				<polygon fill="#95D6DC" points="368.185,156.946 362.227,148.102 349.946,152.081 353.162,196.297 367.901,202.399 				"/>
				<polygon fill="#27A9D8" points="362.227,148.102 358.925,149.04 365.191,157.679 365.868,156.829 367.901,161.57 
					367.958,153.892 				"/>
				<polygon fill="#27A9D8" points="349.946,152.081 342.771,160.333 340.741,174.334 351.811,177.27 				"/>
				<polygon fill="#5DC2DF" points="367.979,156.714 373.597,147.991 385.884,151.971 382.663,196.186 367.926,202.289 				"/>
				<polygon fill="#27A9D8" points="373.597,147.991 376.906,148.921 370.632,157.559 369.954,156.714 367.926,161.46 
					367.871,153.781 				"/>
				<polygon fill="#27A9D8" points="385.884,151.971 393.05,160.22 395.084,174.221 384.018,177.155 				"/>
				<polygon fill="#BC8654" points="367.729,108.101 355.03,117.187 353.502,127.351 367.729,123.548 				"/>
				<g>
					<path d="M380.969,127.984l-0.986-0.134c-5.587-0.894-8.01-0.037-10.202,0.395c-1.492,0.294-2.028,0.344-2.216,0.344v-0.005
						c0,0-0.008,0.005-0.053,0.005c-0.037,0-0.049-0.005-0.049-0.005v0.005c-0.186,0-0.713-0.05-2.213-0.344
						c-2.195-0.432-4.619-1.288-10.199-0.395l-0.996,0.134l-0.031,1.56c0,0,0.467,0.034,0.798,1.159l0.667,3.453
						c0,0,0.56,2.729,4.316,2.799c0,0,3.815,0.525,5.114-1.433c0,0,1.096-0.958,1.628-3.617c0,0,0.122-0.976,0.965-1.079
						c0.846,0.104,0.973,1.079,0.973,1.079c0.533,2.659,1.621,3.617,1.621,3.617c1.304,1.958,5.119,1.433,5.119,1.433
						c3.753-0.069,4.317-2.799,4.317-2.799l0.663-3.453c0.334-1.125,0.801-1.159,0.801-1.159L380.969,127.984z M365.807,132.27
						c-0.249,2.192-2.729,4.064-5.423,3.874c-2.857-0.196-4.496-1.879-4.496-3.964c0-1.061-0.144-2.524,0.794-3.211
						c0.897-0.653,2.754-0.592,4.095-0.592c1.434,0,3.389,0.324,4.429,1.052C366.077,130.043,365.912,131.277,365.807,132.27z
						 M379.146,132.18c0,2.085-1.642,3.768-4.496,3.964c-2.7,0.19-5.18-1.682-5.422-3.874c-0.106-0.992-0.275-2.227,0.599-2.841
						c1.042-0.728,2.992-1.052,4.429-1.052c1.335,0,3.196-0.062,4.097,0.592C379.282,129.655,379.146,131.119,379.146,132.18z"/>
				</g>
				<polygon fill="#F7CEB7" points="360.2,132.175 359.646,130.462 361.098,129.415 362.549,130.462 361.997,132.175 				"/>
				<polygon fill="#F7E0D6" points="373.499,132.175 372.947,130.462 374.396,129.415 375.851,130.462 375.298,132.175 				"/>
			</g>
		</g>
	</g>
	<g>
		<g>
			<g>
				<polygon fill="#F7E0D6" points="168.583,183.833 163.416,190.879 161.15,210.536 163.068,229.151 168.053,228.924 
					167.939,209.843 178.017,180.951 				"/>
				<polygon fill="#F7E0D6" points="162.197,218.887 163.068,229.151 160.859,236.176 160.66,238.424 163.123,243.584 
					164.873,244.17 165.297,242.402 164.55,240.419 165.859,236.319 165.006,240.67 165.674,243.286 166.654,243.429 
					167.746,241.314 168.105,238.722 168.779,236.438 169.455,233.645 168.053,228.924 167.939,218.981 				"/>
				<polygon fill="#F8F0F0" points="167.311,241.458 165.482,241.29 165.871,242.773 166.546,242.867 				"/>
				<polygon fill="#F7CEB7" points="162.979,223.668 164.777,230.371 162.102,237.719 162.251,241.934 161.455,237.551 
					163.068,229.151 162.412,222.329 				"/>
				<polygon fill="#F7CEB7" points="165.572,237.788 167.154,233.596 165.686,236.498 				"/>
			</g>
			<polygon fill="#DF9D26" points="201.901,159.695 200.293,141.736 183.949,134.534 167.431,142.071 167.766,158.166 			"/>
			<polygon fill="#C67F2A" points="165.733,159.695 183.949,157.748 183.949,134.534 167.431,142.071 			"/>
			<polygon fill="#F7CEB7" points="178.441,177.736 178.697,183.581 183.859,189.005 183.859,181.215 			"/>
			<polygon fill="#F7CEB7" points="169.629,157.33 167.264,157.149 165.733,159.695 166.756,164.104 170.645,166.982 			"/>
			<polygon fill="#F7E0D6" points="169.629,157.33 170.477,172.91 183.859,181.215 183.859,144.449 171.152,147.162 			"/>
			<polygon fill="#F7CEB7" points="183.764,160.292 181.994,166.841 183.859,169.35 			"/>
			<polygon fill="#F7E0D6" points="189.193,177.736 188.938,183.581 183.775,189.005 183.775,181.215 			"/>
			<polygon fill="#F7E0D6" points="198.007,157.33 200.377,157.149 201.901,159.695 200.886,164.104 196.99,166.982 			"/>
			<polygon fill="#F7CEB7" points="198.007,157.33 197.152,172.91 183.775,181.215 183.775,144.449 196.477,147.162 			"/>
			<polygon fill="#F7CEB7" points="188.09,171.681 183.676,172.288 183.912,174.761 			"/>
			<polygon fill="#C67F2A" points="169.629,157.33 184.016,144.735 198.007,157.33 196.477,147.162 183.949,138.01 171.152,147.162 
							"/>
			<polygon fill="#F7E0D6" points="173.634,268.921 181.911,268.921 183.709,229.892 168.953,224.349 173.189,246.764 			"/>
			<polygon fill="#DF9D26" points="183.859,138.07 171.152,147.162 169.253,156.709 170.477,172.91 176.596,152.083 
				184.016,144.735 			"/>
			<polygon fill="#95D6DC" points="183.973,188.908 180.227,183.915 178.017,180.951 175.692,181.669 170.645,192.172 
				167.939,198.264 172.113,205.339 168.953,224.349 183.973,230.061 			"/>
			<g>
				<g>
					<polygon fill="#F7E0D6" points="199.194,183.724 204.369,190.773 206.633,210.428 204.721,229.032 199.733,228.816 
						199.847,209.723 189.767,180.845 					"/>
					<polygon fill="#F7E0D6" points="205.595,218.778 204.721,229.032 206.926,236.057 207.116,238.305 204.661,243.478 
						202.904,244.062 202.486,242.293 203.227,240.312 201.925,236.199 202.773,240.561 202.104,243.181 201.131,243.321 
						200.037,241.207 199.678,238.614 199.003,236.319 198.328,233.524 199.733,228.816 199.847,218.876 					"/>
					<polygon fill="#F8F0F0" points="200.475,241.349 202.301,241.184 201.913,242.665 201.238,242.762 					"/>
					<polygon fill="#F7CEB7" points="204.804,223.561 203,230.252 205.688,237.61 205.527,241.816 206.328,237.444 204.721,229.032 
						205.372,222.21 					"/>
					<polygon fill="#F7CEB7" points="202.211,237.681 200.623,233.475 202.092,236.403 					"/>
				</g>
				<polygon fill="#F7E0D6" points="194.147,268.921 194.6,246.656 198.83,224.229 184.073,229.771 185.878,268.921 				"/>
				<polygon fill="#7AC7C9" points="183.812,188.801 189.767,180.845 192.174,181.442 197.141,192.051 199.847,198.156 
					195.67,205.219 198.83,224.229 183.973,230.061 				"/>
			</g>
			<polygon fill="#C67F2A" points="180.848,158.883 179.156,157.652 174.814,156.517 172.95,157.604 175.376,157.365 
				178.291,157.951 			"/>
			<polygon fill="#C67F2A" points="186.542,158.883 188.23,157.652 192.576,156.517 194.439,157.604 192.008,157.365 
				189.092,157.951 			"/>
			<polygon fill="#F7CEB7" points="176.439,162.373 175.89,160.662 177.335,159.61 178.793,160.662 178.238,162.373 			"/>
			<polygon fill="#F7E0D6" points="189.737,162.373 189.182,160.662 190.639,159.61 192.086,160.662 191.536,162.373 			"/>
			<polygon fill="#ED1E7A" points="179.289,171.645 183.746,171.812 183.746,174.296 			"/>
			<polygon fill="#EE327A" points="188.208,171.645 183.746,171.812 183.746,174.296 			"/>
			<polygon fill="#DF9D26" points="166.756,164.104 168.01,173.651 167.561,177.259 164.735,185.17 168.465,187.534 
				179.413,183.818 178.441,177.736 170.477,172.91 170.154,166.529 			"/>
			<polygon fill="#DF9D26" points="200.951,164.153 199.689,173.697 200.139,177.319 202.965,185.229 199.236,187.606 
				188.28,183.867 189.188,177.88 197.229,172.97 197.539,166.589 			"/>
			<polygon fill="#EE327A" points="168.953,224.349 172.521,247.756 195.783,247.756 198.83,224.229 183.973,230.061 			"/>
		</g>
	</g>
	<g>
		<g>
			<polygon fill="#C67F2A" points="256.839,147.854 258.198,155.978 257.169,171.343 269.455,165.131 268.188,153.098 			"/>
			<polygon fill="#DF9D26" points="290.89,148.271 289.533,156.408 290.712,170.758 278.271,165.55 279.539,153.529 			"/>
			<g>
				<polygon fill="#F7E0D6" points="258.76,168.011 253.585,175.06 251.328,194.714 253.236,213.318 258.219,213.09 258.108,194.01 
					261.332,176.563 				"/>
				<polygon fill="#F7E0D6" points="252.369,203.056 253.236,213.318 251.027,220.343 250.834,222.59 253.298,227.764 
					255.053,228.35 255.473,226.58 254.723,224.596 256.031,220.486 255.181,224.835 255.852,227.465 256.822,227.606 
					257.92,225.493 258.275,222.901 258.949,220.605 259.634,217.811 258.219,213.09 258.108,203.161 				"/>
				<polygon fill="#F8F0F0" points="257.486,225.636 255.653,225.469 256.049,226.939 256.713,227.045 				"/>
				<polygon fill="#F7CEB7" points="253.152,207.846 254.958,214.537 252.275,221.897 252.426,226.103 251.627,221.729 
					253.236,213.318 252.587,206.497 				"/>
				<polygon fill="#F7CEB7" points="255.745,221.968 257.33,217.762 255.861,220.679 				"/>
			</g>
			<polygon fill="#DF9D26" points="292.074,143.875 290.467,125.914 274.114,118.711 257.601,126.251 257.942,142.345 			"/>
			<polygon fill="#C67F2A" points="255.909,143.875 274.114,141.914 274.114,118.711 257.601,126.251 			"/>
			<polygon fill="#F7CEB7" points="268.61,161.915 268.864,167.759 274.031,173.172 274.031,165.381 			"/>
			<polygon fill="#F7CEB7" points="259.802,141.496 257.435,141.326 255.909,143.875 256.922,148.271 260.816,151.149 			"/>
			<polygon fill="#F7E0D6" points="259.802,141.496 260.653,157.077 274.031,165.381 274.031,128.627 261.332,131.341 			"/>
			<polygon fill="#F7CEB7" points="273.938,144.461 272.167,151.02 274.031,153.529 			"/>
			<polygon fill="#F7E0D6" points="279.363,161.915 279.112,167.759 273.949,173.172 273.949,165.381 			"/>
			<polygon fill="#F7E0D6" points="288.18,141.496 290.548,141.326 292.074,143.875 291.057,148.271 287.159,151.149 			"/>
			<polygon fill="#F7CEB7" points="288.18,141.496 287.326,157.077 273.949,165.381 273.949,128.627 286.651,131.341 			"/>
			<polygon fill="#F7CEB7" points="278.266,155.847 273.846,156.468 274.09,158.928 			"/>
			<polygon fill="#C67F2A" points="259.802,141.496 274.189,128.914 286.736,131.341 284.871,126.418 274.114,122.188 
				261.332,131.341 			"/>
			<polygon fill="#F7E0D6" points="264.124,268.921 271.356,268.921 273.887,214.058 259.126,208.516 263.359,230.942 			"/>
			<polygon fill="#DF9D26" points="274.031,122.246 261.332,131.341 259.802,141.496 274.189,128.914 			"/>
			<polygon fill="#D42027" points="274.146,173.077 268.188,165.131 258.446,167.95 260.816,176.339 258.108,182.431 
				262.286,189.505 259.126,208.516 274.146,214.226 			"/>
			<g>
				<g>
					<polygon fill="#F7E0D6" points="289.367,167.891 294.543,174.94 296.809,194.597 294.894,213.211 289.905,212.983 
						290.022,193.891 286.799,176.445 					"/>
					<polygon fill="#F7E0D6" points="295.76,202.936 294.894,213.211 297.102,220.236 297.292,222.483 294.832,227.655 
						293.078,228.229 292.658,226.461 293.403,224.49 292.098,220.378 292.951,224.728 292.277,227.344 291.31,227.49 
						290.209,225.373 289.855,222.779 289.177,220.486 288.501,217.704 289.905,212.983 290.022,203.042 					"/>
					<polygon fill="#F8F0F0" points="290.644,225.529 292.473,225.351 292.086,226.831 291.413,226.925 					"/>
					<polygon fill="#F7CEB7" points="294.983,207.728 293.172,214.417 295.857,221.79 295.705,225.997 296.506,221.623 
						294.894,213.211 295.545,206.375 					"/>
					<polygon fill="#F7CEB7" points="292.383,221.85 290.803,217.654 292.267,220.572 					"/>
				</g>
				<polygon fill="#F7E0D6" points="284.003,268.921 284.771,230.82 289.01,208.396 274.248,213.938 276.779,268.921 				"/>
				<polygon fill="#A01D20" points="273.984,172.969 279.94,165.01 289.685,167.843 287.312,176.229 290.022,182.324 
					285.849,189.385 289.01,208.396 274.146,214.226 				"/>
			</g>
			<polygon fill="#C67F2A" points="271.024,143.062 269.334,141.831 264.989,140.696 263.129,141.784 265.552,141.532 
				268.464,142.117 			"/>
			<polygon fill="#C67F2A" points="276.712,143.062 278.41,141.831 282.747,140.696 284.605,141.784 282.186,141.532 
				279.27,142.117 			"/>
			<polygon fill="#F7CEB7" points="266.617,146.552 266.06,144.842 267.511,143.778 268.966,144.842 268.405,146.552 			"/>
			<polygon fill="#F7E0D6" points="279.911,146.552 279.36,144.842 280.812,143.778 282.26,144.842 281.703,146.552 			"/>
			<polygon fill="#A01D20" points="257.854,152.047 257.023,150.59 257.854,149.155 259.527,149.155 260.359,150.59 
				259.527,152.047 			"/>
			<polygon fill="#A01D20" points="288.433,152.047 287.6,150.59 288.433,149.155 290.11,149.155 290.942,150.59 290.11,152.047 			
				"/>
			<polygon fill="#A01D20" points="269.455,155.811 273.922,155.978 273.922,158.462 			"/>
			<polygon fill="#D42027" points="278.377,155.811 273.922,155.978 273.922,158.462 			"/>
			<polygon fill="#1A1A1A" points="259.02,208.501 263.493,241.396 284.499,241.396 288.902,208.384 274.044,214.214 			"/>
		</g>
	</g>
	<g>
		<g>
			<polygon fill="#673B1B" points="290.054,141.795 286.218,158.847 284.294,173.985 303.948,183.928 302.204,151.415 			"/>
			<polygon fill="#512C13" points="326.084,142.132 329.924,159.182 331.835,174.318 312.193,184.261 313.932,151.749 			"/>
			<g>
				<polygon fill="#F7E0D6" points="292.783,166.312 287.604,173.363 285.337,193.018 287.25,211.636 292.24,211.406 
					292.12,192.324 295.347,174.882 				"/>
				<polygon fill="#F7E0D6" points="286.384,201.371 287.25,211.636 285.047,218.659 284.851,220.906 287.317,226.081 
					289.067,226.666 289.491,224.896 288.738,222.9 290.04,218.803 289.205,223.152 289.876,225.783 290.842,225.912 
					291.934,223.798 292.298,221.205 292.974,218.921 293.65,216.128 292.24,211.406 292.12,201.479 				"/>
				<polygon fill="#F8F0F0" points="291.503,223.941 289.676,223.773 290.065,225.257 290.734,225.363 				"/>
				<polygon fill="#F7CEB7" points="287.168,206.162 288.977,212.854 286.289,220.213 286.444,224.421 285.646,220.047 
					287.25,211.636 286.606,204.812 				"/>
				<polygon fill="#F7CEB7" points="289.768,220.285 291.344,216.078 289.887,218.995 				"/>
			</g>
			<polygon fill="#512C13" points="326.096,142.179 324.481,124.22 308.137,117.028 291.612,124.567 291.96,140.65 			"/>
			<polygon fill="#673B1B" points="289.922,142.179 291.073,146.994 307.79,152.635 308.137,117.028 291.612,124.567 			"/>
			<polygon fill="#F7CEB7" points="302.629,160.221 302.88,166.062 308.048,171.488 308.048,163.698 			"/>
			<polygon fill="#F7E0D6" points="293.82,139.812 294.673,155.395 308.048,163.698 308.048,126.933 295.347,129.645 			"/>
			<polygon fill="#F7CEB7" points="307.952,142.775 306.188,149.336 308.048,151.833 			"/>
			<polygon fill="#F7E0D6" points="313.389,160.221 313.132,166.062 307.969,171.488 307.969,163.698 			"/>
			<polygon fill="#F7E0D6" points="322.193,139.812 324.566,139.644 326.096,142.179 325.072,146.588 321.185,149.467 			"/>
			<polygon fill="#F7CEB7" points="322.193,139.812 321.352,155.395 307.969,163.698 307.969,126.933 320.677,129.645 			"/>
			<polygon fill="#F7CEB7" points="312.284,154.163 307.854,154.784 308.112,157.245 			"/>
			<polygon fill="#673B1B" points="293.82,139.812 308.215,127.221 320.753,129.645 318.889,124.733 308.137,120.493 
				295.347,129.645 			"/>
			<polygon fill="#F7E0D6" points="298.178,268.921 305.292,268.921 307.903,212.373 293.14,206.831 297.378,229.259 			"/>
			<polygon fill="#512C13" points="308.048,120.551 295.347,129.645 293.387,139.083 294.673,155.395 299.768,137.732 
				308.215,127.221 			"/>
			<polygon fill="#1461AE" points="308.162,171.403 302.204,163.445 292.469,166.254 294.833,174.656 292.12,180.748 
				296.303,187.82 293.14,206.831 308.167,212.543 			"/>
			<g>
				<g>
					<polygon fill="#F7E0D6" points="323.39,166.207 328.562,173.258 330.828,192.912 328.909,211.514 323.928,211.3 
						324.041,192.219 320.82,174.763 					"/>
					<polygon fill="#F7E0D6" points="329.782,201.264 328.909,211.514 331.121,218.539 331.317,220.799 328.849,225.962 
						327.097,226.545 326.669,224.777 327.429,222.794 326.118,218.696 326.967,223.045 326.298,225.662 325.317,225.808 
						324.224,223.689 323.872,221.098 323.187,218.814 322.511,216.021 323.928,211.3 324.041,201.36 					"/>
					<polygon fill="#F8F0F0" points="324.665,223.833 326.487,223.666 326.096,225.148 325.432,225.244 					"/>
					<polygon fill="#F7CEB7" points="328.997,206.043 327.188,212.746 329.877,220.106 329.729,224.299 330.516,219.928 
						328.909,211.514 329.559,204.692 					"/>
					<polygon fill="#F7CEB7" points="326.399,220.166 324.823,215.961 326.285,218.888 					"/>
				</g>
				<polygon fill="#F7E0D6" points="317.984,268.921 318.787,229.14 323.022,206.712 308.26,212.255 310.873,268.921 				"/>
				<polygon fill="#0578B3" points="308.004,171.284 313.961,163.328 323.699,166.147 321.328,174.535 324.041,180.64 
					319.864,187.704 323.022,206.712 308.167,212.543 				"/>
			</g>
			<polygon fill="#512C13" points="305.042,141.365 303.351,140.135 299.001,139.001 297.145,140.089 299.576,139.849 
				302.479,140.446 			"/>
			<polygon fill="#512C13" points="310.729,141.365 312.421,140.135 316.77,139.001 318.628,140.089 316.201,139.849 
				313.293,140.446 			"/>
			<polygon fill="#F7CEB7" points="300.633,144.856 300.07,143.146 301.528,142.095 302.976,143.146 302.426,144.856 			"/>
			<polygon fill="#F7E0D6" points="313.932,144.856 313.371,143.146 314.82,142.095 316.279,143.146 315.724,144.856 			"/>
			<polygon fill="#ED1E7A" points="303.478,154.114 307.94,154.294 307.94,156.779 			"/>
			<polygon fill="#EE3D7A" points="312.402,154.114 307.94,154.294 307.94,156.779 			"/>
			<polygon fill="#2098D5" points="322.678,147.507 322.408,147.041 322.678,146.576 323.217,146.576 323.485,147.041 
				323.217,147.507 			"/>
			<polygon fill="#F7E0D6" points="310.339,175.275 307.958,176.651 305.568,175.275 305.568,172.515 307.958,171.142 
				310.339,172.515 			"/>
			<polygon fill="#2098D5" points="293.185,206.867 296.744,230.261 320.013,230.261 323.067,206.747 308.203,212.567 			"/>
		</g>
	</g>
	<g>
		<g>
			<g>
				<polygon fill="#F7E0D6" points="332.573,203.866 327.4,210.908 325.135,230.565 327.051,249.174 333.14,249.006 
					331.921,229.867 335.05,219.603 				"/>
				<polygon fill="#F7E0D6" points="326.177,238.918 327.051,249.174 324.843,256.205 324.645,258.452 327.109,263.614 
					328.861,264.205 329.28,262.439 328.534,260.454 329.842,256.351 328.997,260.701 329.666,263.321 330.637,263.457 
					331.902,261.348 332.549,258.993 334.012,255.099 334.242,252.595 333.14,249.006 332.445,239.261 				"/>
				<polygon fill="#F8F0F0" points="331.302,261.485 329.468,261.32 329.86,262.798 330.528,262.904 				"/>
				<polygon fill="#F7CEB7" points="326.962,243.695 328.771,250.393 326.083,257.755 326.238,261.956 325.438,257.584 
					327.051,249.174 326.397,242.351 				"/>
				<polygon fill="#F7CEB7" points="329.562,257.819 331.139,253.623 329.671,256.536 				"/>
			</g>
			<g>
				<polygon fill="#F7CEB7" points="368.363,203.918 373.538,210.969 375.798,230.621 373.887,249.231 367.795,249.062 
					369.016,229.93 365.885,219.657 				"/>
				<polygon fill="#F7CEB7" points="374.754,238.975 373.887,249.231 376.22,256.345 376.22,259.083 373.824,263.678 
					372.08,264.258 371.649,262.494 372.405,260.508 371.096,256.405 371.942,260.752 371.272,263.378 370.298,263.52 
					369.028,261.4 368.386,259.051 366.926,255.155 366.69,252.651 367.795,249.062 368.494,239.316 				"/>
				<polygon fill="#F8F0F0" points="369.642,261.548 371.47,261.371 371.076,262.859 370.403,262.961 				"/>
				<polygon fill="#F7E0D6" points="373.974,243.754 372.164,250.45 374.853,257.811 374.692,262.012 375.495,257.639 
					373.887,249.231 374.534,242.407 				"/>
				<polygon fill="#F7E0D6" points="371.377,257.881 369.801,253.678 371.262,256.592 				"/>
			</g>
			<polygon fill="#204575" points="349.683,268.921 350.486,249.866 335.728,243.882 337.539,268.921 			"/>
			<polygon fill="#2D6093" points="363.225,268.921 365.032,243.882 350.273,249.866 351.08,268.921 			"/>
			<g>
				<polygon fill="#673B1B" points="366.707,175.84 366.707,159.404 350.362,152.209 333.847,159.74 334.182,175.84 				"/>
				<polygon fill="#512C13" points="334.17,175.411 350.362,175.411 350.362,152.209 333.847,159.74 				"/>
				<polygon fill="#F7CEB7" points="344.772,194.389 345.109,201.249 350.273,203.961 350.273,198.878 				"/>
				<polygon fill="#F7E0D6" points="355.777,194.389 355.448,201.249 350.273,203.961 350.273,198.878 				"/>
				<polygon fill="#F7CEB7" points="336.047,174.989 333.676,174.828 332.146,177.364 333.167,181.768 336.382,184.31 				"/>
				<polygon fill="#F7E0D6" points="336.047,174.989 335.366,189.057 350.273,198.878 350.273,162.115 337.569,164.825 				"/>
				<polygon fill="#F7E0D6" points="364.51,174.989 366.883,174.828 368.403,177.364 367.39,181.768 364.164,184.31 				"/>
				<polygon fill="#F7CEB7" points="364.51,174.989 365.185,189.057 350.273,198.878 350.273,162.115 362.98,164.825 				"/>
				<polygon fill="#F7CEB7" points="350.273,174.314 347.229,183.629 350.447,187.189 				"/>
				<polygon fill="#F7CEB7" points="345.813,189.559 350.273,189.732 350.273,192.211 				"/>
				<polygon fill="#512C13" points="347.734,176.021 340.455,173.055 338.835,174.555 				"/>
				<polygon fill="#512C13" points="352.723,176.021 360.005,173.055 361.623,174.555 				"/>
				<polygon fill="#E6D71A" points="350.726,204.584 344.772,195.745 332.492,199.725 335.708,243.938 350.447,250.038 				"/>
				<polygon fill="#C6B92F" points="344.772,195.745 341.469,196.676 347.734,205.314 348.413,204.466 350.447,209.212 
					350.504,201.527 				"/>
				<polygon fill="#C6B92F" points="332.492,199.725 325.316,207.971 323.287,221.975 334.349,224.91 				"/>
				<polygon fill="#D3C329" points="350.524,204.352 356.146,195.627 368.426,199.607 365.21,243.828 350.472,249.926 				"/>
				<polygon fill="#C6B92F" points="356.146,195.627 359.447,196.564 353.179,205.202 352.507,204.352 350.472,209.097 
					350.413,201.42 				"/>
				<polygon fill="#C6B92F" points="368.426,199.607 375.595,207.858 377.631,221.856 366.558,224.801 				"/>
				<polygon fill="#F7CEB7" points="342.743,179.812 342.191,178.107 343.637,177.053 345.094,178.107 344.54,179.812 				"/>
				<polygon fill="#F7E0D6" points="356.038,179.812 355.484,178.107 356.939,177.053 358.394,178.107 357.837,179.812 				"/>
				<polygon fill="#673B1B" points="336.047,174.989 340.526,167.311 350.238,168.44 350.352,156.466 337.028,163.921 				"/>
				<polygon fill="#512C13" points="364.581,174.93 360.102,167.257 350.238,168.44 350.273,156.412 363.603,163.862 				"/>
			</g>
		</g>
	</g>
	<g>
		<g>
			<g>
				<polygon fill="#F8DFB2" points="472.606,178.528 467.483,185.51 465.242,204.969 467.141,223.399 473.169,223.23 
					471.963,204.282 475.068,194.118 				"/>
				<polygon fill="#F8DFB2" points="466.276,213.241 467.141,223.399 464.953,230.356 464.762,232.583 467.199,237.701 
					468.934,238.284 469.354,236.53 468.613,234.564 469.91,230.502 469.063,234.805 469.73,237.405 470.69,237.546 
					471.943,235.451 472.583,233.126 474.033,229.264 474.269,226.787 473.169,223.23 472.477,213.582 				"/>
				<polygon fill="#F8F0F0" points="471.346,235.592 469.536,235.426 469.928,236.894 470.582,236.992 				"/>
				<polygon fill="#F8CEA0" points="467.058,217.974 468.844,224.609 466.182,231.892 466.336,236.057 465.543,231.726 
					467.141,223.399 466.496,216.641 				"/>
				<polygon fill="#F8CEA0" points="469.625,231.965 471.191,227.802 469.744,230.692 				"/>
			</g>
			<g>
				<polygon fill="#F8DFB2" points="508.047,178.585 513.17,185.566 515.414,205.025 513.52,223.452 507.492,223.286 
					508.692,204.339 505.599,194.176 				"/>
				<polygon fill="#F8DFB2" points="514.383,213.296 513.52,223.452 515.826,230.498 515.826,233.21 513.455,237.757 
					511.727,238.339 511.308,236.585 512.041,234.621 510.757,230.558 511.592,234.861 510.928,237.46 509.971,237.601 
					508.71,235.51 508.078,233.181 506.623,229.323 506.391,226.843 507.492,223.286 508.184,213.639 				"/>
				<polygon fill="#F8F0F0" points="509.308,235.647 511.123,235.479 510.739,236.949 510.07,237.051 				"/>
				<polygon fill="#F8CEA0" points="513.602,218.034 511.814,224.665 514.471,231.954 514.318,236.111 515.111,231.782 
					513.52,223.452 514.158,216.7 				"/>
				<polygon fill="#F8CEA0" points="511.035,232.021 509.467,227.856 510.917,230.744 				"/>
			</g>
			<polygon fill="#204575" points="488.457,268.921 490.354,224.086 475.736,218.157 479.402,268.921 			"/>
			<g>
				<polygon fill="#1A1A1A" points="506.485,151.026 506.485,134.754 490.301,127.624 473.943,135.094 474.281,151.026 				"/>
				<polygon fill="#333333" points="474.275,150.605 490.301,150.605 490.301,127.624 473.943,135.094 				"/>
				<polygon fill="#F7CEB7" points="484.764,169.392 485.1,176.189 490.218,178.875 490.218,173.84 				"/>
				<polygon fill="#F8DFB2" points="495.672,169.392 495.329,176.189 490.218,178.875 490.218,173.84 				"/>
				<polygon fill="#F8CEA0" points="476.133,150.185 473.778,150.021 472.27,152.539 473.275,156.897 476.457,159.412 				"/>
				<polygon fill="#F8DFB2" points="476.133,150.185 475.457,164.111 490.218,173.84 490.218,137.435 477.635,140.121 				"/>
				<polygon fill="#F8DFB2" points="504.31,150.185 506.657,150.021 508.166,152.539 507.16,156.897 503.966,159.412 				"/>
				<polygon fill="#F8CEA0" points="504.31,150.185 504.979,164.111 490.218,173.84 490.218,137.435 502.795,140.121 				"/>
				<polygon fill="#F8CEA0" points="490.218,149.519 487.195,158.738 490.383,162.267 				"/>
				<polygon fill="#F8CEA0" points="485.804,164.614 490.218,164.783 490.218,167.245 				"/>
				<polygon fill="#1A1A1A" points="487.816,149.41 480.043,149.719 479.196,151.729 				"/>
				<polygon fill="#1A1A1A" points="492.951,149.41 500.725,149.719 501.576,151.729 				"/>
				<polygon fill="#BB3526" points="490.661,179.487 484.764,170.738 472.606,174.678 475.789,218.459 490.383,224.496 				"/>
				<polygon fill="#A01D20" points="484.764,170.738 481.492,171.658 487.697,180.215 488.371,179.378 490.383,184.075 
					490.443,176.471 				"/>
				<polygon fill="#A01D20" points="472.606,174.678 465.496,182.842 463.484,196.705 474.447,199.618 				"/>
				<polygon fill="#85161F" points="490.461,179.26 496.027,170.618 508.189,174.565 504.996,218.346 490.406,224.388 				"/>
				<polygon fill="#A01D20" points="496.027,170.618 499.298,171.546 493.094,180.103 492.424,179.26 490.406,183.958 
					490.354,176.357 				"/>
				<polygon fill="#A01D20" points="508.189,174.565 515.289,182.729 517.301,196.592 506.338,199.505 				"/>
				<polygon fill="#F8CEA0" points="482.758,154.961 482.207,153.274 483.645,152.226 485.083,153.274 484.532,154.961 				"/>
				<polygon fill="#F8DFB2" points="495.927,154.961 495.376,153.274 496.813,152.226 498.246,153.274 497.701,154.961 				"/>
				<polygon fill="#1A1A1A" points="476.133,150.185 480.563,142.582 490.176,143.703 490.289,131.846 477.098,139.229 				"/>
				<polygon fill="#333333" points="504.379,150.134 499.943,142.525 490.176,143.703 490.218,131.788 503.41,139.171 				"/>
			</g>
			<polygon fill="#2D6093" points="501.082,268.921 504.752,218.157 490.141,224.086 492.034,268.921 			"/>
		</g>
	</g>
	<g>
		<g>
			<g>
				<polygon fill="#F7E0D6" points="65.862,181.8 60.745,188.785 58.503,208.243 60.396,226.677 66.431,226.506 65.224,207.558 
					68.317,197.396 				"/>
				<polygon fill="#F7E0D6" points="59.538,216.515 60.396,226.677 58.213,233.631 58.019,235.858 60.455,240.976 62.194,241.556 
					62.608,239.811 61.87,237.84 63.165,233.776 62.325,238.079 62.993,240.681 63.952,240.818 65.199,238.727 65.85,236.4 
					67.288,232.542 67.525,230.062 66.431,226.506 65.744,216.854 				"/>
				<polygon fill="#F8F0F0" points="64.609,238.866 62.797,238.698 63.183,240.165 63.846,240.265 				"/>
				<polygon fill="#F7CEB7" points="60.313,221.252 62.105,227.885 59.443,235.172 59.598,239.335 58.806,235.003 60.396,226.677 
					59.752,219.919 				"/>
				<polygon fill="#F7CEB7" points="62.886,235.237 64.449,231.075 62.993,233.959 				"/>
			</g>
			<g>
				<polygon fill="#F7CEB7" points="101.31,181.857 106.433,188.841 108.669,208.301 106.776,226.728 100.747,226.556 
					101.954,207.614 98.854,197.451 				"/>
				<polygon fill="#F7CEB7" points="107.64,216.571 106.776,226.728 109.083,233.776 109.083,236.482 106.717,241.032 
					104.983,241.61 104.563,239.866 105.302,237.896 104.012,233.833 104.847,238.142 104.185,240.735 103.22,240.876 
					101.965,238.784 101.333,236.456 99.883,232.599 99.646,230.114 100.747,226.556 101.439,216.911 				"/>
				<polygon fill="#F8F0F0" points="102.568,238.923 104.38,238.754 103.995,240.221 103.326,240.323 				"/>
				<polygon fill="#F7E0D6" points="106.864,221.309 105.072,227.939 107.733,235.229 107.574,239.384 108.367,235.054 
					106.776,226.728 107.42,219.97 				"/>
				<polygon fill="#F7E0D6" points="104.29,235.293 102.729,231.132 104.178,234.017 				"/>
			</g>
			<polygon fill="#CCCCCC" points="81.852,268.921 83.604,227.357 68.992,221.433 72.426,268.921 			"/>
			<polygon fill="#E6E6E6" points="94.578,268.921 98.008,221.433 83.396,227.357 85.155,268.921 			"/>
			<g>
				<polygon fill="#CCCCCC" points="99.635,154.209 98.292,137.936 83.444,130.811 68.429,138.27 67.431,154.209 				"/>
				<polygon fill="#E6E6E6" points="67.417,153.787 83.444,153.787 83.444,130.811 68.429,138.27 				"/>
				<polygon fill="#F7CEB7" points="77.906,172.579 78.243,179.376 83.361,182.058 83.361,177.018 				"/>
				<polygon fill="#F7E0D6" points="88.815,172.579 88.479,179.376 83.361,182.058 83.361,177.018 				"/>
				<polygon fill="#F7CEB7" points="69.27,153.366 66.928,153.202 65.412,155.719 66.419,160.081 69.601,162.598 				"/>
				<polygon fill="#F7E0D6" points="69.27,153.366 68.602,167.293 83.361,177.018 83.361,140.622 70.785,143.305 				"/>
				<polygon fill="#F7E0D6" points="97.453,153.366 99.795,153.202 101.31,155.719 100.304,160.081 97.115,162.598 				"/>
				<polygon fill="#F7CEB7" points="97.453,153.366 98.12,167.293 83.361,177.018 83.361,140.622 95.943,143.305 				"/>
				<polygon fill="#F7CEB7" points="83.361,152.698 80.351,161.924 83.533,165.444 				"/>
				<polygon fill="#F7CEB7" points="78.947,167.797 83.361,167.963 83.361,170.422 				"/>
				<polygon fill="#B3B3B3" points="81.012,153.256 73.31,152.156 72.109,153.982 				"/>
				<polygon fill="#B3B3B3" points="85.758,153.256 93.459,152.156 94.648,153.982 				"/>
				<polygon fill="#E6D71A" points="83.805,182.675 77.906,173.921 65.75,177.86 68.933,221.643 83.533,227.684 				"/>
				<polygon fill="#B6A532" points="77.906,173.921 74.642,174.844 80.841,183.393 81.521,182.562 83.533,187.255 83.591,179.647 
									"/>
				<polygon fill="#B6A532" points="65.75,177.86 58.646,186.021 56.633,199.89 67.596,202.798 				"/>
				<polygon fill="#D3C329" points="83.604,182.442 89.17,173.807 101.333,177.746 98.145,221.531 83.551,227.57 				"/>
				<polygon fill="#B6A532" points="89.17,173.807 92.442,174.73 86.235,183.285 85.562,182.442 83.551,187.144 83.497,179.534 				
					"/>
				<polygon fill="#B6A532" points="101.333,177.746 108.438,185.914 110.442,199.78 99.486,202.687 				"/>
				<polygon fill="#F7CEB7" points="75.907,158.138 75.356,156.447 76.795,155.41 78.232,156.447 77.682,158.138 				"/>
				<polygon fill="#F7E0D6" points="89.07,158.138 88.525,156.447 89.963,155.41 91.395,156.447 90.844,158.138 				"/>
				<polygon fill="#CCCCCC" points="69.27,153.366 71.589,144.131 78.326,142.965 83.324,146.883 83.438,135.027 70.239,142.407 
									"/>
				<polygon fill="#E6E6E6" points="97.528,153.311 95.24,143.919 87.839,142.965 83.324,146.883 83.361,134.973 96.559,142.353 
									"/>
				<polygon fill="#B3B3B3" points="83.367,165.237 78.641,164.959 75.451,166.883 83.338,166.973 				"/>
				<polygon fill="#CCCCCC" points="83.248,165.237 87.976,164.959 91.164,166.883 83.284,166.973 				"/>
			</g>
		</g>
	</g>
	<g>
		<g>
			<g>
				<polygon fill="#CE9662" points="215.916,198.865 210.748,205.902 208.484,225.562 210.396,244.177 216.484,243.997 
					215.27,224.863 218.402,214.605 				"/>
				<polygon fill="#CE9662" points="209.529,233.909 210.396,244.177 208.192,251.192 207.988,253.442 210.456,258.614 
					212.206,259.198 212.631,257.433 211.883,255.45 213.187,251.345 212.344,255.697 213.013,258.312 213.98,258.459 
					215.248,256.341 215.893,253.997 217.357,250.101 217.594,247.595 216.484,243.997 215.792,234.259 				"/>
				<polygon fill="#F8F0F0" points="214.638,256.487 212.821,256.32 213.21,257.794 213.873,257.901 				"/>
				<polygon fill="#C07A45" points="210.312,238.695 212.123,245.388 209.434,252.748 209.59,256.96 208.788,252.585 
					210.396,244.177 209.744,237.35 				"/>
				<polygon fill="#C07A45" points="212.912,252.817 214.488,248.612 213.023,251.534 				"/>
			</g>
			<g>
				<polygon fill="#CE9662" points="251.707,198.919 256.881,205.961 259.146,225.617 257.238,244.228 251.146,244.061 
					252.359,224.919 249.234,214.661 				"/>
				<polygon fill="#CE9662" points="258.104,233.968 257.238,244.228 259.562,251.345 259.562,254.078 257.168,258.674 
					255.423,259.256 254.998,257.489 255.746,255.506 254.443,251.403 255.287,255.754 254.617,258.369 253.65,258.515 
					252.377,256.396 251.738,254.047 250.273,250.149 250.035,247.652 251.146,244.061 251.84,234.315 				"/>
				<polygon fill="#F8F0F0" points="252.986,256.542 254.814,256.372 254.426,257.854 253.756,257.96 				"/>
				<polygon fill="#C07A45" points="257.324,238.747 255.512,245.446 258.195,252.807 258.041,257.013 258.842,252.642 
					257.238,244.228 257.88,237.402 				"/>
				<polygon fill="#C07A45" points="254.724,252.873 253.141,248.677 254.605,251.594 				"/>
			</g>
			<polygon fill="#7AC7C9" points="232.823,268.921 233.838,244.866 219.078,238.882 221.247,268.921 			"/>
			<polygon fill="#95D6DC" points="246.211,268.921 248.381,238.882 233.623,244.866 234.639,268.921 			"/>
			<g>
				<polygon fill="#512C13" points="250.07,170.948 250.07,154.515 237.715,146.046 237.604,148.866 233.754,145.478 
					229.58,149.212 229.354,145.823 217.213,154.855 217.548,170.948 				"/>
				<polygon fill="#673B1B" points="217.542,170.521 233.731,170.521 233.754,145.478 229.691,149.319 229.354,145.823 
					217.213,154.855 				"/>
				<polygon fill="#C07A45" points="228.139,189.497 228.473,196.362 233.641,199.071 233.641,193.988 				"/>
				<polygon fill="#CE9662" points="239.15,189.497 238.814,196.362 233.641,199.071 233.641,193.988 				"/>
				<polygon fill="#C07A45" points="219.41,170.098 217.039,169.937 215.521,172.477 216.532,176.876 219.752,179.42 				"/>
				<polygon fill="#CE9662" points="219.41,170.098 218.736,184.166 233.641,193.988 233.641,157.224 220.936,159.934 				"/>
				<polygon fill="#CE9662" points="247.877,170.098 250.244,169.937 251.768,172.477 250.752,176.876 247.531,179.42 				"/>
				<polygon fill="#C07A45" points="247.877,170.098 248.553,184.166 233.641,193.988 233.641,157.224 246.35,159.934 				"/>
				<polygon fill="#C07A45" points="233.641,169.423 230.596,178.739 233.814,182.299 				"/>
				<polygon fill="#C07A45" points="229.186,184.668 233.641,184.841 233.641,187.325 				"/>
				<polygon fill="#512C13" points="231.245,170.564 223.588,168.797 222.225,170.532 				"/>
				<polygon fill="#512C13" points="236.456,170.564 244.108,168.797 245.477,170.532 				"/>
				<polygon fill="#DC1B50" points="234.096,199.692 228.139,190.854 215.856,194.836 219.078,239.048 233.814,245.147 				"/>
				<polygon fill="#ED1E7A" points="228.139,190.854 224.835,191.787 231.109,200.424 231.785,199.58 233.814,204.326 
					233.869,196.643 				"/>
				<polygon fill="#ED1E7A" points="215.856,194.836 208.682,203.081 206.65,217.081 217.715,220.024 				"/>
				<polygon fill="#C61E50" points="233.893,199.463 239.516,190.737 251.791,194.721 248.577,238.937 233.838,245.034 				"/>
				<polygon fill="#ED1E7A" points="239.516,190.737 242.812,191.673 236.546,200.312 235.869,199.463 233.838,204.206 
					233.779,196.53 				"/>
				<polygon fill="#ED1E7A" points="251.791,194.721 258.959,202.967 260.998,216.968 249.927,219.908 				"/>
				<polygon fill="#C07A45" points="226.114,174.921 225.56,173.216 227.004,172.162 228.462,173.216 227.906,174.921 				"/>
				<polygon fill="#CE9662" points="239.412,174.921 238.852,173.216 240.309,172.162 241.76,173.216 241.205,174.921 				"/>
				<polygon fill="#512C13" points="219.41,170.098 223.893,162.423 233.605,162.196 233.719,151.576 220.397,159.031 				"/>
				<polygon fill="#673B1B" points="247.949,170.039 243.476,162.365 233.605,162.196 233.641,151.52 246.971,158.979 				"/>
			</g>
		</g>
	</g>
	<g>
		<g>
			<polygon points="399.176,134.101 394.109,137.889 393.768,141.604 389.927,143.074 389.593,146.587 387.895,149.405 
				388.237,153.136 387.328,155.512 388.804,157.878 388.569,161.378 391.964,163.412 392.752,166.911 395.572,167.473 
				397.717,170.291 400.663,170.291 404.27,171.882 407.098,170.867 408.898,171.2 410.598,170.291 			"/>
			<polygon fill="#1A1A1A" points="431.954,133.755 437.021,137.553 437.362,141.27 441.197,142.751 441.541,146.24 443.234,149.06 
				442.899,152.787 443.794,155.164 442.326,157.532 442.56,161.031 439.172,163.075 438.383,166.564 435.557,167.138 
				433.413,169.957 430.473,169.957 426.853,171.547 424.039,170.53 422.229,170.867 420.532,169.957 			"/>
			<g>
				<polygon fill="#9F6839" points="400.333,175.849 395.153,182.897 392.896,202.554 394.808,221.168 399.789,220.941 
					399.678,201.86 409.753,172.979 				"/>
				<polygon fill="#9F6839" points="393.942,210.904 394.808,221.168 392.604,228.195 392.398,230.441 394.872,235.614 
					396.617,236.188 397.042,234.431 396.294,232.437 397.598,228.337 396.754,232.686 397.425,235.314 398.392,235.448 
					399.493,233.332 399.851,230.738 400.524,228.457 401.2,225.66 399.789,220.941 399.678,211.014 				"/>
				<polygon fill="#F8F0F0" points="399.055,233.476 397.227,233.309 397.614,234.79 398.285,234.896 				"/>
				<polygon fill="#BC8654" points="394.724,215.685 396.527,222.386 393.846,229.748 393.995,233.954 393.201,229.581 
					394.808,221.168 394.162,214.345 				"/>
				<polygon fill="#673B1B" points="397.314,229.817 398.895,225.614 397.436,228.517 				"/>
			</g>
			<polygon fill="#1A1A1A" points="433.645,151.712 432.033,133.755 415.688,126.548 399.176,134.101 399.509,150.183 			"/>
			<polygon points="397.478,151.712 415.688,149.766 415.688,126.548 399.176,134.101 			"/>
			<polygon fill="#9F6839" points="410.178,169.754 410.429,175.598 415.603,181.023 415.603,173.231 			"/>
			<polygon fill="#9F6839" points="401.372,149.348 398.997,149.169 397.478,151.712 398.488,156.108 402.388,159.003 			"/>
			<polygon fill="#BC8654" points="401.372,149.348 402.221,164.928 415.603,173.231 415.603,136.465 402.896,139.178 			"/>
			<polygon fill="#9F6839" points="415.502,152.311 413.739,158.869 415.603,161.367 			"/>
			<polygon fill="#BC8654" points="420.938,169.754 420.683,175.598 415.52,181.023 415.52,173.231 			"/>
			<polygon fill="#BC8654" points="429.751,149.348 432.12,149.169 433.645,151.712 432.63,156.108 428.734,159.003 			"/>
			<polygon fill="#9F6839" points="429.751,149.348 428.902,164.928 415.52,173.231 415.52,136.465 428.227,139.178 			"/>
			<polygon points="401.372,149.348 407.406,139.921 415.764,136.754 423.836,139.921 429.751,149.348 428.227,139.178 
				415.688,130.024 402.896,139.178 			"/>
			<polygon fill="#8D7B2F" points="405.537,268.921 413.282,268.921 415.453,221.908 400.698,216.354 404.934,238.791 			"/>
			<polygon fill="#1A1A1A" points="415.603,130.086 402.896,139.178 401.372,149.348 401.372,149.348 407.406,139.921 
				415.764,136.754 			"/>
			<polygon fill="#202E51" points="415.716,180.927 411.979,175.934 409.753,172.979 407.436,173.686 402.388,184.188 
				399.678,190.282 403.858,197.342 400.698,216.354 415.716,222.078 			"/>
			<g>
				<g>
					<polygon fill="#BC8654" points="430.94,175.739 436.113,182.791 438.383,202.445 436.459,221.049 431.478,220.834 
						431.59,201.74 421.514,172.86 					"/>
					<polygon fill="#BC8654" points="437.331,210.785 436.459,221.049 438.674,228.074 438.867,230.32 436.406,235.494 
						434.65,236.078 434.226,234.311 434.978,232.327 433.67,228.229 434.519,232.579 433.848,235.196 432.875,235.339 
						431.782,233.223 431.423,230.631 430.741,228.337 430.065,225.555 431.478,220.834 431.59,210.892 					"/>
					<polygon fill="#F8F0F0" points="432.217,233.369 434.046,233.2 433.65,234.67 432.983,234.778 					"/>
					<polygon fill="#9F6839" points="436.55,215.576 434.74,222.268 437.427,229.628 437.278,233.834 438.072,229.46 
						436.459,221.049 437.111,214.226 					"/>
					<polygon fill="#673B1B" points="433.956,229.7 432.372,225.493 433.838,228.408 					"/>
				</g>
				<polygon fill="#B6A532" points="425.734,268.921 426.34,238.672 430.574,216.244 415.813,221.789 417.989,268.921 				"/>
				<polygon fill="#2D6093" points="415.556,180.817 421.514,172.86 423.924,173.459 428.879,184.068 431.59,190.162 
					427.414,197.236 430.574,216.244 415.716,222.078 				"/>
			</g>
			<polygon fill="#301B11" points="412.599,150.91 410.903,149.67 406.558,148.534 404.701,149.622 407.126,149.381 
				410.036,149.967 			"/>
			<polygon fill="#301B11" points="418.286,150.91 419.982,149.67 424.32,148.534 426.177,149.622 423.757,149.381 420.844,149.967 
							"/>
			<polygon fill="#9F6839" points="408.184,154.388 407.629,152.68 409.078,151.629 410.531,152.68 409.977,154.388 			"/>
			<polygon fill="#BC8654" points="421.481,154.388 420.927,152.68 422.372,151.629 423.831,152.68 423.275,154.388 			"/>
			<polygon fill="#ED1E7A" points="411.027,163.66 415.489,163.827 415.489,166.312 			"/>
			<polygon fill="#EE327A" points="419.951,163.66 415.495,163.827 415.495,166.312 			"/>
		</g>
	</g>
	<g>
		<polygon fill="#EA4E60" points="49.325,68.793 49.325,84.012 32.231,70.177 		"/>
		<circle fill="#EA4E60" cx="32.406" cy="47.921" r="27.5"/>
	</g>
	<g>
		<circle fill="#FFFFFF" cx="23.45" cy="42.312" r="2.29"/>
		<circle fill="#FFFFFF" cx="40.396" cy="42.312" r="2.29"/>
	</g>
	<path fill="none" stroke="#FFFFFF" stroke-width="1.8192" stroke-linecap="round" stroke-miterlimit="10" d="M17.548,53.206
		c0,0,3.422,6.067,13.462,6.067s15.287-6.619,15.287-6.619"/>
	<g>
		<polygon fill="#EA4E60" points="483.05,68.476 483.05,82.982 499.345,69.795 		"/>
		<circle fill="#EA4E60" cx="499.177" cy="48.581" r="26.213"/>
	</g>
	<g>
		<circle fill="#red" cx="507.362" cy="42.312" r="2.29"/>
		<circle fill="#red" cx="490.417" cy="42.312" r="2.29"/>
	</g>
	<path fill="none" stroke="#FFFFFF" stroke-width="1.8192" stroke-linecap="round" stroke-miterlimit="10" d="M513.265,58.722
		c0,0-3.423-6.067-13.462-6.067s-15.287,6.619-15.287,6.619"/>

	
</g>
</svg>
