<?xml version="1.0" encoding="utf-8"?>
<!-- Generator: Adobe Illustrator 16.0.0, SVG Export Plug-In . SVG Version: 6.00 Build 0)  -->
<!DOCTYPE svg PUBLIC "-//W3C//DTD SVG 1.1//EN" "http://www.w3.org/Graphics/SVG/1.1/DTD/svg11.dtd">
<svg version="1.1" id="Layer_1" xmlns="http://www.w3.org/2000/svg" xmlns:xlink="http://www.w3.org/1999/xlink" x="0px" y="0px"
	 width="128px" height="128px" viewBox="0 0 128 128" enable-background="new 0 0 128 128" xml:space="preserve">
<circle fill="#5BD0CA" cx="63.893" cy="64.156" r="63.75"/>
<path fill="#4CA5A1" d="M127.216,71.443L89.143,32.656l-6-2.25L28.977,64.823l2.916,25.083l38.823,37.632
	C100.316,124.388,123.853,100.98,127.216,71.443z"/>
<path fill="#F7F7F7" d="M37.706,85.954c0.695,2.087-0.229,4.293-2.056,4.901c-1.826,0.607-3.89-0.603-4.585-2.689l-6.32-18.974
	c-0.695-2.087,0.229-4.293,2.056-4.901c1.826-0.607,3.89,0.603,4.585,2.689L37.706,85.954z"/>
<path fill="#F7F7F7" d="M90.957,81.074L78.106,37.439c-0.376-1.276-0.418-2.571-0.188-3.791l-45.83,29.164
	c0.951,0.832,1.712,1.924,2.144,3.22l6.319,18.974c0.285,0.855,0.411,1.739,0.382,2.61l51.873-3.319
	C91.969,83.398,91.319,82.307,90.957,81.074z"/>
<path fill="#F7F7F7" d="M103.113,77.495c0.776,2.638-0.676,5.41-3.227,6.161c-2.552,0.752-5.275-0.792-6.052-3.43L80.984,36.593
	c-0.776-2.638,0.676-5.41,3.227-6.161c2.552-0.752,5.275,0.792,6.052,3.43L103.113,77.495z"/>
<path fill="#F7F7F7" d="M75.393,87.233v4.174c0,0.827-0.673,1.5-1.5,1.5H56.06c-0.827,0-1.5-0.673-1.5-1.5v-2.841l-5,0.32v2.521
	c0,3.584,2.916,6.5,6.5,6.5h17.833c3.584,0,6.5-2.916,6.5-6.5v-4.493L75.393,87.233z"/>
</svg>
