<?xml version="1.0" encoding="utf-8"?>
<!-- Generator: Adobe Illustrator 16.0.0, SVG Export Plug-In . SVG Version: 6.00 Build 0)  -->
<!DOCTYPE svg PUBLIC "-//W3C//DTD SVG 1.1//EN" "http://www.w3.org/Graphics/SVG/1.1/DTD/svg11.dtd">
<svg version="1.1" id="Layer_1" xmlns="http://www.w3.org/2000/svg" xmlns:xlink="http://www.w3.org/1999/xlink" x="0px" y="0px"
	 width="128px" height="128px" viewBox="0 0 128 128" enable-background="new 0 0 128 128" xml:space="preserve">
<circle fill="#E38993" cx="64.25" cy="63.75" r="63.75"/>
<path fill="#B66D74" d="M127.626,70.617L84.417,30.166l-28.25-1.5l-13,4l-2.25,63l34.712,30.801
	C103.198,121.496,124.605,98.816,127.626,70.617z"/>
<path fill="#F7F7F7" d="M78.167,27.498h-29.5c-5.522,0-10,4.478-10,10v52.168c0,5.522,4.478,10,10,10h29.5c5.522,0,10-4.478,10-10
	V37.498C88.167,31.976,83.689,27.498,78.167,27.498z M63.416,96.999c-1.196,0-2.166-0.97-2.166-2.167
	c0-1.196,0.97-2.166,2.166-2.166c1.197,0,2.167,0.97,2.167,2.166C65.583,96.029,64.613,96.999,63.416,96.999z M81.5,89.332H45.333
	V37.499H81.5V89.332z"/>
<g>
	<path fill="#FFFFFF" d="M72.226,32.582c0,0.967-0.783,1.75-1.75,1.75h-8.167c-0.967,0-1.75-0.783-1.75-1.75l0,0
		c0-0.967,0.783-1.75,1.75-1.75h8.167C71.442,30.832,72.226,31.615,72.226,32.582L72.226,32.582z"/>
	<path fill="#B66D74" d="M70.476,34.832h-8.167c-1.24,0-2.25-1.01-2.25-2.25s1.01-2.25,2.25-2.25h8.167c1.24,0,2.25,1.01,2.25,2.25
		S71.716,34.832,70.476,34.832z M62.309,31.332c-0.689,0-1.25,0.561-1.25,1.25s0.561,1.25,1.25,1.25h8.167
		c0.689,0,1.25-0.561,1.25-1.25s-0.561-1.25-1.25-1.25H62.309z"/>
</g>
</svg>
