<?xml version="1.0" encoding="utf-8"?>
<!-- Generator: Adobe Illustrator 16.0.0, SVG Export Plug-In . SVG Version: 6.00 Build 0)  -->
<!DOCTYPE svg PUBLIC "-//W3C//DTD SVG 1.1//EN" "http://www.w3.org/Graphics/SVG/1.1/DTD/svg11.dtd">
<svg version="1.1" id="Layer_1" xmlns="http://www.w3.org/2000/svg" xmlns:xlink="http://www.w3.org/1999/xlink" x="0px" y="0px"
	 width="128px" height="128px" viewBox="0 0 128 128" enable-background="new 0 0 128 128" xml:space="preserve">
<circle fill="#6BB0CF" cx="63.893" cy="64.156" r="63.75"/>
<path fill="#568EA8" d="M127.643,64.156c0-2.964-0.219-5.876-0.61-8.733L101.667,34.5L80,68l-14.333-7.167L42.5,82.334l0.667,5
	l-2.667,2l-10.667,2.333l43.621,35.523C104.126,122.577,127.643,96.114,127.643,64.156z"/>
<g>
	<g>
		<path fill="#FFFFFF" d="M101.084,92.75h-69.25c-1.657,0-3-1.343-3-3V35h6v51.75h66.25V92.75z"/>
	</g>
	<g>
		<path fill="#FFFFFF" d="M42.811,84.506l-3.954-4.512l24.25-21.25c0.99-0.868,2.433-0.989,3.555-0.295l11.208,6.929l17.92-28.715
			l5.09,3.177l-19.5,31.25c-0.875,1.4-2.718,1.832-4.123,0.964l-11.863-7.334L42.811,84.506z"/>
	</g>
	<polygon fill="#FFFFFF" points="88.211,37.654 101.896,33.999 102.33,48.158 	"/>
</g>
</svg>
