<?xml version="1.0" encoding="utf-8"?>
<!-- Generator: Adobe Illustrator 16.0.0, SVG Export Plug-In . SVG Version: 6.00 Build 0)  -->
<!DOCTYPE svg PUBLIC "-//W3C//DTD SVG 1.1//EN" "http://www.w3.org/Graphics/SVG/1.1/DTD/svg11.dtd">
<svg version="1.1" id="Layer_2" xmlns="http://www.w3.org/2000/svg" xmlns:xlink="http://www.w3.org/1999/xlink" x="0px" y="0px"
	 width="458.977px" height="283.485px" viewBox="0 0 458.977 283.485" enable-background="new 0 0 458.977 283.485"
	 xml:space="preserve">
<g>
	<g>
		<g>
			<path fill="#FFFFFF" d="M256.736,178.925c0,2.193-1.757,3.974-3.923,3.974h-59.098c-2.167,0-5.58-2.083-5.58-4.277l1.658-38.896
				c0-2.195,1.755-3.974,3.922-3.974l58.48-0.972c2.166,0,4.541,2.75,4.541,4.945V178.925z"/>
			<g>
				<path fill="none" stroke="#545454" stroke-width="1.8023" stroke-miterlimit="10" d="M256.626,178.925
					c0,0-0.015,0.299-0.104,0.861c-0.137,0.545-0.447,1.386-1.294,2.104c-0.4,0.382-0.986,0.625-1.633,0.782
					c-0.655,0.081-1.417,0.018-2.241-0.055c-10.403-0.787-20.653,2.213-30.937,0.695c-1.135-0.143-2.267-0.326-3.396-0.531
					c-0.826,0.002-1.661,0.005-2.504,0.008c-0.738,0-1.482,0-2.232,0c-0.751-0.008-1.508-0.015-2.273-0.021
					c-2.942-0.234-5.854-0.41-8.749-0.527c-1.447-0.059-2.891-0.102-4.331-0.131l-2.16-0.032l-1.074-0.009
					c-0.278-0.016-0.571-0.044-0.873-0.127c-0.963-0.236-1.931-0.736-2.709-1.375c-0.461-0.289-0.885-0.64-1.188-1.058
					c-0.319-0.431-0.424-0.854-0.456-1.524c-0.107-1.229-0.215-2.455-0.322-3.677c-0.205-2.444-0.385-4.876-0.504-7.3
					c-0.239-4.849-0.236-9.668,0.291-14.511c0.117-1.076,0.26-2.153,0.431-3.233c0.756-2.658,1.379-5.328,1.878-8.007l0.182-1.005
					l0.086-0.502l0.105-0.415c0.128-0.545,0.418-0.993,0.758-1.366c0.344-0.374,0.782-0.622,1.219-0.785
					c0.229-0.056,0.45-0.118,0.682-0.13c0.241,0.008,0.423-0.018,0.808,0.007c5.392,0.207,10.79-0.04,16.183-0.657
					c1.079-0.122,2.157-0.261,3.235-0.41c8.493-1.893,16.899-2.559,25.435-2.171c1.22,0.057,2.441,0.133,3.667,0.231
					c1.911,0.106,3.813,0.151,5.707,0.155c0.946-0.008,1.892-0.016,2.834-0.023l0.707-0.013l0.358-0.006l0.437,0.03
					c0.567,0.081,1.082,0.284,1.55,0.54c0.927,0.528,1.67,1.268,2.26,2.119c0.571,0.844,1.02,1.896,1.019,3.009
					c0.032,1.872,0.064,3.74,0.097,5.608v3.201c-0.908,10.192,2.092,20.101-0.48,30.224"/>
			</g>
		</g>
		<g>
			<path fill="#FFFFFF" d="M258.157,176.973c0,2.167-1.757,3.923-3.923,3.923h-59.098c-2.166,0-3.922-1.756-3.922-3.923v-38.7
				c0-2.166,1.756-3.923,3.922-3.923h59.098c2.166,0,3.923,1.757,3.923,3.923V176.973z"/>
			<g>
				<path fill="none" stroke="#545454" stroke-width="1.8023" stroke-miterlimit="10" d="M258.252,177
					c0.07,1.057-0.325,2.159-1.081,2.961c-0.745,0.812-1.853,1.304-2.98,1.334c-2.058,0.072-4.117,0.118-6.178,0.145
					c-4.121,0.053-8.247,0.025-12.377-0.034c-8.26-0.12-16.533-0.37-24.807-0.37c-5.368,0.489-10.588,0.774-15.977,0.804
					c-1.646-0.068-3.243-1.03-4.01-2.505c-0.432-0.712-0.576-1.556-0.616-2.368l0.021-1.974c0.037-2.632,0.107-5.26,0.201-7.889
					c0.188-5.257,0.469-10.514,0.766-15.793c0.149-2.639,0.298-5.284,0.447-7.937c0.071-1.326,0.143-2.655,0.214-3.985l0.051-0.999
					c0.036-0.313,0.072-0.554,0.137-0.821c0.175-0.505,0.423-0.987,0.813-1.343c0.613-0.643,1.449-0.977,2.349-0.939l3.355,0.045
					c2.236,0.019,4.469,0.018,6.701,0.001c4.463-0.035,8.919-0.136,13.371-0.274c8.903-0.276,17.79-0.705,26.687-1.063l6.674-0.251
					l1.67-0.057c0.283-0.006,0.536-0.031,0.884,0.003c0.326,0.021,0.656,0.038,0.97,0.149c1.275,0.333,2.396,1.246,2.987,2.456
					c0.158,0.296,0.234,0.631,0.347,0.949c0.071,0.328,0.095,0.668,0.135,1.004l0.039,1.677l0.058,3.346
					c0.016,2.231,0.031,4.465,0.046,6.7c-0.007,8.942-0.309,17.922-1.127,26.963"/>
			</g>
		</g>
		<g>
			<rect x="198.798" y="137.697" fill="#FF8D85" width="51.906" height="39.853"/>
			<g>
				<path fill="none" stroke="#999999" stroke-width="1.8023" stroke-miterlimit="10" d="M250.681,177.648
					c-13.697,1.041-27.488,0.041-41.278,0.041c-1.778,0.199-3.55,0.359-5.318,0.484c-0.884,0.054-1.767,0.108-2.647,0.162
					l-0.661,0.032l-0.918,0.03l-1.96,0.051l-0.066-3.395l-0.029-2.49c-0.007-1.659,0.008-3.316,0.041-4.973
					c0.066-3.312,0.207-6.62,0.386-9.931s0.399-6.624,0.625-9.948c0.112-1.663,0.225-3.328,0.338-4.997l0.165-2.506l0.04-0.624
					l0.04-0.415l0.078-0.754l0.771,0.071l0.353,0.035l0.561,0.034c8.298,0.277,16.552,0.093,24.792-0.249l12.354-0.593l6.177-0.313
					l3.089-0.148l3.672-0.138l0.189,5.529l0.14,4.954c0.073,3.305,0.103,6.613,0.069,9.93c-0.067,6.631-0.387,13.289-1.114,19.988"
					/>
			</g>
		</g>
		<g>
			<circle fill="#FFFFFF" cx="254.078" cy="157.623" r="1.917"/>
			<g>
				<path fill="none" stroke="#545454" stroke-width="1.8023" stroke-miterlimit="10" d="M256.093,157.625
					c0.529,0.494,0.295,1.237-0.175,1.567c-0.479,0.367-1.062,0.385-1.52,0.456c-0.233,0.541-0.73,0.793-1.164,0.725
					c-0.448-0.037-0.812-0.386-0.979-0.788c-0.17-0.411-0.132-0.894,0.04-1.267c0.182-0.382,0.466-0.646,0.737-0.782
					c0.28-0.229,0.208-0.383,0.248-0.813c0.03-0.401,0.274-1.022,0.881-1.365c0.576-0.359,1.487-0.316,2.002,0.24
					c0.532,0.517,0.54,1.549-0.304,2.023"/>
			</g>
		</g>
	</g>
	<g>
		<defs>
			<rect id="SVGID_3_" x="198.798" y="137.697" width="51.906" height="39.853"/>
		</defs>
		<clipPath id="SVGID_2_">
			<use xlink:href="#SVGID_3_"  overflow="visible"/>
		</clipPath>
		<rect x="198.798" y="137.697" clip-path="url(#SVGID_2_)" fill="#FFA894" width="51.906" height="39.853"/>
		<path clip-path="url(#SVGID_2_)" fill-rule="evenodd" clip-rule="evenodd" fill="#E56D6A" d="M263.847,168.791l-3.797-0.115
			v-1.438h-1.667v0.231h-0.634v-4.487l-0.689-0.978l-0.806,0.978v4.487h-0.345v-3.452h-0.173v-0.287h-1.898v-0.862h-3.049v1.955
			h-2.473v2.358h-1.611v-2.186l-0.46-0.401h-1.956l-0.689,0.344v-10.009l-1.15-1.093h-2.992v9.606h-1.15l-2.012-2.014v-1.265h-1.841
			v-1.209h-2.877v1.381H230.6v1.783h-2.474v-4.717l-0.633-0.634h-2.186l-0.575,0.575v4.66h-2.531v-2.243l-0.748-5.695l-0.864,5.695
			v2.301h-1.553v-4.429h-2.531v4.429h-0.863v-5.694h-3.969v2.817h-1.495v9.491h-0.288v-13.057h-2.013v-3.336h-0.229v3.336h-1.899
			v7.88h-0.632l-1.725-1.782l-1.208,1.61v2.415h-0.921v1.898h-0.632v-0.403h-1.726v0.347h-0.517v-4.487l-0.634-0.862l-0.804,0.862
			v4.487h-0.46v-3.682h-2.128v-1.15h-2.934v2.301h-2.301v2.07h-1.841v-1.955l-0.633-0.518h-1.38l0.115,4.486h78.401"/>
		<polygon clip-path="url(#SVGID_2_)" fill-rule="evenodd" clip-rule="evenodd" fill="#E56D6A" points="251.056,168.247 
			251.958,178.456 196.856,178.307 197.907,168.397 		"/>
	</g>
	<g>
		<path fill="none" stroke="#545454" stroke-width="1.8023" stroke-miterlimit="10" d="M250.681,177.648
			c-13.697,1.041-27.488,0.041-41.278,0.041c-1.778,0.199-3.55,0.359-5.318,0.484c-0.884,0.054-1.767,0.108-2.647,0.162
			l-0.661,0.032l-0.918,0.03l-1.96,0.051l-0.066-3.395l-0.029-2.49c-0.007-1.659,0.008-3.316,0.041-4.973
			c0.066-3.312,0.207-6.62,0.386-9.931s0.399-6.624,0.625-9.948c0.112-1.663,0.225-3.328,0.338-4.997l0.165-2.506l0.04-0.624
			l0.04-0.415l0.078-0.754l0.771,0.071l0.353,0.035l0.561,0.034c8.298,0.277,16.552,0.093,24.792-0.249l12.354-0.593l6.177-0.313
			l3.089-0.148l3.672-0.138l0.189,5.529l0.14,4.954c0.073,3.305,0.103,6.613,0.069,9.93c-0.067,6.631-0.387,13.289-1.114,19.988"/>
	</g>
</g>
<g>
	<path fill="none" stroke="#545454" stroke-width="1.8848" stroke-miterlimit="10" d="M126.701,111.865
		c0.112,2.241,0.001,4.337-0.094,6.526c-0.098,2.18-0.187,4.403-0.14,6.609c0.272,0.702,0.446,1.426,0.624,2.114
		c0.172,0.684,0.291,1.377,0.364,2.085c0.06,0.728,0.116,1.392,0.006,2.261c-0.088,0.519-0.251,1.031-0.608,1.412
		c-0.364,0.378-0.79,0.618-1.073,0.769c-1.218,0.634-2.402,1.342-3.584,2.183c-1.195,0.81-2.264,1.885-3.237,2.975
		c-1.489,1.945-2.425,4.043-3.818,5.741c-0.699,0.841-1.549,1.593-2.62,2.069c-0.535,0.214-1.1,0.443-1.694,0.539
		c-0.581,0.127-1.218,0.241-1.843,0.185c-1.263-0.062-2.486-0.415-3.636-0.876c-1.153-0.467-2.239-1.066-3.236-1.781
		c-1.983-1.424-3.722-3.3-4.675-5.678"/>
</g>
<path fill="none" stroke="#545454" stroke-width="1.5687" stroke-miterlimit="10" d="M106.343,152.147
	c0.222,3.564-0.346-2.368-0.16-3.522"/>
<path fill="none" stroke="#545454" stroke-width="1.5687" stroke-miterlimit="10" d="M94.412,117.527
	c-5.74-2.585-9.261,8.927-3.177,10.858"/>
<g>
	<path fill="none" stroke="#545454" stroke-width="1.8848" stroke-miterlimit="10" d="M92.767,115.823
		c0.219-0.588,0.467-1.191,0.77-1.768c0.367-0.524,0.757-1.047,1.176-1.543c0.467-0.441,0.953-0.87,1.447-1.285
		c0.523-0.372,1.072-0.708,1.614-1.048c2.237-1.26,4.66-2.034,7.025-2.869c2.744-2.055,6.013-2.819,9.253-2.923
		c3.252-0.099,6.539,0.43,9.648,1.089"/>
</g>
<g>
	<path fill="none" stroke="#545454" stroke-width="1.8023" stroke-miterlimit="10" d="M128.738,102.845
		c1.489-0.673,2.915-1.463,4.139-2.473c1.223-1.005,2.22-2.249,2.793-3.669c0.544-1.432,0.652-3.002,0.393-4.532
		c-0.286-1.529-0.903-3.007-1.731-4.362c-1.664-2.714-4.153-4.965-7.048-6.414c-1.45-0.721-3.014-1.233-4.625-1.455
		c-0.402-0.067-0.807-0.102-1.214-0.111c-0.406-0.033-0.814-0.02-1.224,0.004l-1.227,0.057l-1.22,0.149
		c-4.11,1.051-7.952,2.811-12.162,3.697c-4.192,0.976-8.421,1.167-12.564,1.51c-1.037,0.086-2.08,0.152-3.107,0.282
		c-1.032,0.115-2.073,0.205-3.091,0.401c-1.027,0.164-2.061,0.319-3.06,0.609l-1.524,0.384c-0.498,0.159-0.966,0.394-1.456,0.588
		c-3.898,1.609-7.356,4.466-9.956,7.998c-2.101,3.023-3.568,6.419-4.602,9.888c-1.032,3.476-1.638,7.042-1.961,10.607
		c-0.324,3.567-0.348,7.144-0.188,10.69c0.123,3.543,0.244,7.088,0.199,10.646c-0.046,3.557-0.257,7.133-0.832,10.69l-0.516,2.662
		c-0.202,0.916-0.501,1.793-0.795,2.643c-0.601,1.701-1.258,3.347-1.876,4.999c-0.611,1.65-1.21,3.3-1.669,4.968
		c-0.464,1.665-0.808,3.356-0.802,5.026c0.03,1.646,0.479,3.31,1.725,4.479c1.216,1.185,2.964,1.854,4.73,2.265"/>
</g>
<g>
	<path fill="none" stroke="#545454" stroke-width="1.8023" stroke-miterlimit="10" d="M81.67,153.116
		c-0.079-0.926-0.43-1.837-0.634-2.774c-0.228-0.938-0.416-1.895-0.538-2.873c-0.12-0.978-0.188-1.977-0.117-2.992
		c0.042-0.515,0.105-1.004,0.308-1.545c0.191-0.512,0.573-0.976,1.105-1.111c0.645-0.206,1.308-0.09,1.891,0.033
		c1.572-0.152,3.084,0.256,4.43,0.822c1.355,0.58,2.584,1.368,3.735,2.256c2.308,1.778,4.293,3.959,6.46,5.963
		c0.24,0.192,0.483,0.38,0.736,0.562l0.36,0.256c0.031,0.021,0.053,0.046,0.086,0.077l0.169,0.152
		c0.453,0.403,0.92,0.791,1.388,1.169c0.943,0.754,1.913,1.466,2.887,2.177c1.951,1.418,3.946,2.823,5.756,4.511
		c1.799,1.678,3.438,3.673,4.365,6.086c0.938,2.378,1.023,5.238-0.188,7.533"/>
</g>
<g>
	<path fill="none" stroke="#545454" stroke-width="1.8023" stroke-miterlimit="10" d="M96.577,170.885
		c2.31,1.518,4.05,3.79,5.283,6.246c1.259,2.462,2.017,5.107,2.844,7.692c2.041,3.058,2.855,6.476,3.379,9.875
		c0.524,3.408,0.783,6.921,1.818,10.395c0.549,1.396,1.099,2.777,1.966,4.079c0.849,1.285,1.946,2.509,3.393,3.278
		c0.706,0.401,1.522,0.608,2.31,0.688c0.799,0.042,1.578-0.051,2.298-0.284c1.45-0.437,2.67-1.272,3.839-2.12
		c2.322-1.732,4.447-3.738,7.017-5.309c1.279-0.781,2.669-1.46,4.176-1.851c1.495-0.392,3.138-0.465,4.586,0.009"/>
</g>
<g>
	<path fill="none" stroke="#545454" stroke-width="1.8023" stroke-miterlimit="10" d="M72.089,180.501
		c-0.667,2.476-0.603,5.009-0.178,7.472c0.431,2.468,1.212,4.885,2.16,7.248c1.903,4.734,4.515,9.214,7.298,13.557
		c4.333,5.153,7.977,10.519,11.668,15.909c1.837,2.702,3.749,5.344,5.83,7.921c0.551,0.611,1.13,1.206,1.703,1.817
		c0.296,0.296,0.558,0.629,0.887,0.898l1.015,0.796c1.427,0.975,3.079,1.631,4.781,2.033c2.887,0.6,5.826,0.41,8.627-0.096
		c2.81-0.514,5.516-1.373,8.124-2.413c5.214-2.104,10.056-4.896,14.712-7.897c2.328-1.505,4.608-3.073,6.853-4.681
		c1.117-0.812,2.234-1.62,3.327-2.455l0.82-0.626l0.482-0.381l0.385-0.312c-0.033-0.138-0.225-0.311-0.327-0.464l-0.367-0.477
		c-0.047-0.05-0.151-0.224-0.247-0.379l-0.284-0.464c-0.375-0.62-0.764-1.236-1.064-1.88c-0.66-1.272-1.207-2.567-1.765-3.847
		c-1.098-2.561-2.199-5.09-3.916-7.409"/>
</g>
<g>
	<path fill="none" stroke="#545454" stroke-width="1.8023" stroke-miterlimit="10" d="M111.998,171.437
		c0.675,0.363,1.121,1.063,1.444,1.734c0.328,0.682,0.554,1.39,0.82,2.024c0.266,0.589,0.61,1.323,0.888,1.989
		c0.304,0.679,0.495,1.399,0.732,2.101c0.851,2.849,1.216,5.788,1.605,8.692c1.504,3.645,1.634,7.49,1.292,11.219
		c-0.351,3.747-1.201,7.441-1.705,11.246"/>
</g>
<g>
	<path fill="none" stroke="#545454" stroke-width="1.8023" stroke-miterlimit="10" d="M80.548,154.539
		c-1.985,1.854-3.771,3.877-5.476,5.961c-1.697,2.092-3.274,4.281-4.683,6.586c-1.399,2.307-2.663,4.717-3.631,7.257
		c-0.957,2.541-1.69,5.181-2.076,7.881c0.349,7.154-0.406,13.981-0.933,20.921c-0.166,1.729-0.355,3.458-0.559,5.19
		c-0.199,1.732-0.443,3.468-0.575,5.21c-0.317,3.484-0.651,6.991-0.922,10.532c-0.192,2.972-0.09,5.931,0.049,8.883
		c0.069,1.477,0.154,2.951,0.251,4.425l0.156,2.208c0.055,0.736,0.128,1.478,0.113,2.179c0.207,5.743-1.58,11.575-1.993,17.404
		c-0.512,5.842-0.473,11.709,0.442,17.398c0.444,2.845,1.125,5.655,2.223,8.327c0.276,0.665,0.594,1.313,0.891,1.979
		c0.367,0.619,0.662,1.302,1.082,1.897c0.775,1.247,1.667,2.436,2.84,3.439"/>
</g>
<g>
	<path fill="none" stroke="#545454" stroke-width="1.8023" stroke-miterlimit="10" d="M115.033,239.951
		c0.682,1.641,0.859,3.367,0.905,5.095c0.047,1.729-0.174,3.469-0.071,5.188c2.196,4.397,0.199,8.784-0.792,13.211"/>
</g>
<g>
	<path fill="none" stroke="#545454" stroke-width="1.8023" stroke-miterlimit="10" d="M73.493,271.849
		c4.15-2.036,8.707-3.22,13.288-3.89c4.589-0.697,9.23-0.91,13.856-0.963c4.63-0.05,9.251,0.092,13.873,0.182
		c4.628,0.122,9.255,0.307,13.866,0.725c6.004-0.047,11.966,0.675,17.776,1.953c5.82,1.228,11.462,3.241,16.865,5.602
		c5.325,2.433,10.858,4.693,15.721,8.093c2.413,1.697,4.616,3.71,6.277,6.097c1.673,2.375,2.753,5.106,3.294,7.925
		c0.104,0.596,0.267,1.166,0.331,1.777l0.161,1.849"/>
</g>
<g>
	<path fill="none" stroke="#545454" stroke-width="1.8023" stroke-miterlimit="10" d="M26.539,211.539
		c-0.447,0.246-0.549,0.729-0.61,1.216c-0.061,0.485-0.052,0.99-0.033,1.494c0.046,1.01,0.176,2.029,0.301,3.048
		c0.261,2.039,0.567,4.088,0.873,6.145c0.617,4.111,1.248,8.249,2.116,12.334c2.098,5.062,3.236,10.271,3.757,15.6
		c0.544,5.282,0.707,10.651,1.188,16.044c0.567,4.495,1.493,8.898,2.474,13.283c0.503,2.19,1.044,4.376,1.596,6.562
		c0.564,2.183,0.95,4.395,1.423,6.605c0.429,2.216,0.925,4.433,1.224,6.68"/>
</g>
<g>
	<path fill="none" stroke="#545454" stroke-width="1.8023" stroke-miterlimit="10" d="M119.578,241.378
		c7.667,3.863,15.809,6.589,24.175,8.548c8.368,1.941,16.967,3.099,25.602,3.378c22.399-0.969,43.847,1.953,66.258,2.355
		c9.374-0.194,18.716-0.593,27.971-1.549c9.266-0.891,18.51-1.938,27.713-3.244c9.199-1.307,18.375-2.744,27.42-4.829
		c2.269-0.501,4.52-1.13,6.792-1.658c1.103-0.291,2.361-0.518,3.497-0.692l3.465-0.557c2.304-0.379,4.6-0.798,6.87-1.355
		s4.525-1.236,6.623-2.402"/>
</g>
<g>
	<path fill="none" stroke="#545454" stroke-width="1.8023" stroke-miterlimit="10" d="M197.255,216.594
		c5.663-0.791,11.379-1.074,17.105-1.227c5.73,0.016,11.471,0.03,17.209,0.045c7.413-0.835,14.732-0.672,22.012-0.134
		c7.273,0.8,14.494,2.09,21.817,3.07"/>
</g>
<path fill="none" stroke="#545454" stroke-width="1.5687" stroke-miterlimit="10" d="M90.728,132.015
	c-0.054,3.224-1.802,5.773-5.377,8.354"/>
<g>
	<path fill="none" stroke="#545454" stroke-width="1.8023" stroke-miterlimit="10" d="M59.945,246.094c0,0-0.367-1.938-1.048-5.529
		c-0.344-1.796-0.748-4.01-1.177-6.639c-0.704-4.153-1.764-8.232-3.166-12.185c-1.408-3.938-3.135-7.803-5.472-11.199
		c-1.168-1.681-2.532-3.257-4.178-4.279c-0.394-0.288-0.843-0.443-1.262-0.652c-0.449-0.115-0.874-0.305-1.34-0.317
		c-0.429-0.061-0.963-0.092-1.485-0.126l-1.559-0.113l-0.779-0.062l-0.268-0.021l-0.28,0.061l-1.45,0.297l-1.38,0.448
		c-0.438,0.184-0.85,0.409-1.286,0.604c-1.599,0.94-2.758,2.529-3.027,4.528c-0.262,1.738-0.086,3.598,0.24,5.404
		c0.361,1.293,0.893,2.533,1.165,3.872c0.285,1.157,0.572,2.324,0.861,3.5c0.283,1.18,0.568,2.368,0.857,3.57
		c0.879,4.676,1.643,9.318,2.606,13.904c0.486,2.293,0.971,4.579,1.454,6.861c0.562,2.27,1.189,4.523,1.803,6.776
		c0.497,1.802,0.982,3.612,1.583,5.354c2.945,7.371,5.188,14.979,7.473,22.44"/>
</g>
<g>
	<g>
		<path fill="none" stroke="#545454" stroke-width="1.8023" stroke-miterlimit="10" d="M450.064,211.37
			c0.563,0.13,0.898,0.769,1.041,1.262c0.172,0.527,0.249,1.063,0.304,1.597c0.1,1.068,0.059,2.126-0.016,3.177
			c-0.161,2.102-0.526,4.167-0.951,6.215c-0.858,4.097-1.979,8.128-2.847,12.213c-0.144,5.491-1.271,10.655-2.521,15.795
			c-1.286,5.175-2.924,10.268-4.391,15.486c-1.059,4.406-1.739,8.863-2.178,13.356c-0.231,2.242-0.425,4.487-0.607,6.73
			c-0.196,2.242-0.192,4.509-0.309,6.749c-0.072,2.246-0.245,4.479-0.312,6.714"/>
	</g>
	<g>
		<path fill="none" stroke="#545454" stroke-width="1.8023" stroke-miterlimit="10" d="M429.164,207.435c0,0,0.078-0.076,0.23-0.225
			c0.153-0.146,0.371-0.379,0.696-0.641c0.632-0.53,1.636-1.313,3.172-1.769c0.766-0.231,1.667-0.241,2.663-0.323
			c0.497-0.028,1.018-0.059,1.561-0.09c0.263-0.011,0.53-0.022,0.804-0.034c0.248,0.046,0.518,0.133,0.803,0.205
			c1.771,0.427,3.516,1.083,4.799,2.273c1.281,1.189,1.907,2.921,1.987,4.718c0.126,3.656-1.448,7.189-1.874,10.852
			c-1.406,7.229-2.436,14.518-4.907,21.527c-0.514,1.551-1.035,3.095-1.63,4.611c-0.311,1.141-0.625,2.294-0.942,3.458
			c-0.279,1.019-0.562,2.046-0.847,3.081c-0.296,1.033-0.571,2.081-0.894,3.129c-3.061,7.896-4.912,16.006-6.856,23.978
			l-1.178,4.783"/>
	</g>
</g>
<g>
	<path fill="none" stroke="#545454" stroke-width="1.8023" stroke-miterlimit="10" d="M119.23,246.477
		c1.297,1.716,3.198,2.811,5.127,3.663c1.949,0.85,4,1.454,6.073,1.951c4.15,1.011,8.389,1.587,12.639,2.323
		c4.236,0.739,8.478,1.357,12.716,2.068c2.121,0.334,4.235,0.722,6.363,1.021l6.391,0.869c8.515,1.239,17.062,2.27,25.677,2.58
		c4.299,0.286,8.611,0.279,12.92,0.386c4.31,0.005,8.623,0.002,12.933-0.103c11.124-0.731,22.141-1.51,33.154-1.9
		c5.491-0.189,10.972-0.378,16.446-0.567l8.184-0.523l4.093-0.251c1.365-0.076,2.717-0.276,4.076-0.406l8.156-0.861
		c1.367-0.102,2.703-0.396,4.056-0.599l4.051-0.664c5.415-0.825,10.814-1.897,16.226-2.885c5.411-1.049,10.824-1.996,16.271-3.137
		c2.711-0.619,5.466-1.433,7.95-2.967c1.229-0.777,2.365-1.736,3.333-2.86c0.947-1.143,1.689-2.437,2.285-3.788"/>
</g>
<path fill="none" stroke="#545454" stroke-width="1.5" stroke-miterlimit="10" d="M142.253,199.949c1.491-2.361,3.539-5.145,4.5-9
	c0.973-3.901,0.862-8.867,3-10.25c2,2.5,1.5,8,1,11"/>
<path fill="none" stroke="#545454" stroke-width="1.5" stroke-miterlimit="10" d="M151.956,189.709
	c4.899-7.4-0.582-9.104-0.89-12.03c-0.158-1.503,2.815-0.488,4.747,1.92c1.83,2.281,2.625,5.88,2.397,7.4"/>
<path fill="none" stroke="#545454" stroke-width="1.5" stroke-miterlimit="10" d="M159.003,186.699
	c2.401,2.022,1.763,4.576,0.965,5.853"/>
<path fill="none" stroke="#545454" stroke-width="1.5" stroke-miterlimit="10" d="M160.503,191.449c2.75,3.25-2.75,7.5-4.25,10.5
	c-2.25,4.25-4.75,6-8,9"/>
<g>
	<g>
		<path fill="none" stroke="#545454" stroke-width="1.8023" stroke-miterlimit="10" d="M364.074,92.64
			c0.018,2.922-1.141,5.63-2.048,8.241c-0.228,0.659-0.421,1.324-0.62,1.993c-0.118,0.677-0.349,1.35-0.38,2.047
			c-0.134,1.384-0.162,2.813-0.125,4.233c0.145,0.456,0.263,0.913,0.32,1.391c0.057,0.471,0.159,0.961,0.135,1.434
			c-0.018,0.475-0.049,0.952-0.093,1.43l-0.036,0.358c-0.01,0.139-0.035,0.285-0.095,0.44l-0.202,0.649
			c-0.56,1.722-1.278,3.379-2.085,5.005c-0.401,0.808-0.851,1.675-1.197,2.23l-0.309,0.538l-0.166,0.295
			c-0.052,0.06-0.014,0.086,0.023,0.114l0.098,0.089c0.271,0.234,0.618,0.424,1.024,0.583c0.853,0.325,1.805,0.511,2.526,0.917
			c0.36,0.2,0.638,0.453,0.824,0.745c0.106,0.149,0.149,0.303,0.192,0.437c0.034,0.173,0.078,0.341,0.098,0.541
			c0.229,1.315,0.244,2.856,0.342,4.354c0.1,1.518,0.172,3.037,0.504,4.644c0.466,1.614,1.202,3.068,2.368,4.173
			c1.155,1.095,2.603,1.695,4.057,2.004c1.486,0.348,2.897,0.326,4.371,0.186c0.732-0.101,1.46-0.146,2.185-0.306
			c0.727-0.122,1.452-0.234,2.168-0.42c2.887-0.632,5.709-1.438,8.783-2.427"/>
	</g>
	<g>
		<path fill="none" stroke="#545454" stroke-width="1.8023" stroke-miterlimit="10" d="M362.419,91.026
			c-0.78-0.628-1.576-1.316-2.077-2.279c-0.518-0.937-0.694-2.163-0.329-3.244c0.348-1.084,1.066-1.949,1.839-2.656
			c0.778-0.718,1.653-1.276,2.548-1.772c1.794-0.991,3.692-1.699,5.603-2.331c1.91-0.632,3.843-1.167,5.771-1.711
			c1.179-0.591,2.384-1.1,3.602-1.541c0.608-0.222,1.221-0.425,1.829-0.619l0.922-0.289l0.991-0.212
			c2.641-0.519,5.3-0.431,7.868,0.036c5.115,0.972,9.948,3.391,13.543,6.827c5.765,5.679,9.399,14.108,8.783,22.868
			c-0.093,1.082-0.168,2.168-0.294,3.261c-0.159,1.098-0.389,2.195-0.718,3.255c-0.641,2.13-1.555,4.144-2.532,6.077
			c-1.954,3.884-4.185,7.413-5.32,11.759"/>
	</g>
	<path fill="none" stroke="#545454" stroke-width="1.5" stroke-miterlimit="10" d="M389.84,108.487
		c8.998-6.066,10.812,14.938,1.555,10.658"/>
	<g>
		<path fill="none" stroke="#545454" stroke-width="1.8023" stroke-miterlimit="10" d="M369.327,93.241
			c0.974,0.509,1.959,0.707,2.976,0.869c1.017,0.153,2.062,0.248,3.125,0.335c2.127,0.168,4.307,0.298,6.464,0.329
			c1.401-0.479,2.847-0.651,4.292-0.476c1.438,0.173,2.889,0.713,4.072,1.642c1.2,0.915,1.999,2.252,2.37,3.588
			c0.381,1.35,0.396,2.711,0.328,4.041"/>
	</g>
	<path fill="none" stroke="#545454" stroke-width="1.5" stroke-miterlimit="10" d="M396.364,123.081
		c1.128,3.87,3.023,5.61,6.611,6.729"/>
</g>
<g>
	<path fill="none" stroke="#545454" stroke-width="1.8023" stroke-miterlimit="10" d="M409.093,140.843
		c-0.724-0.461-1.501-0.273-2.311-0.184c-0.806,0.118-1.637,0.294-2.477,0.472c-1.679,0.367-3.404,0.804-5.003,1.529
		c-1.64,1.847-3.556,2.852-5.678,3.617c-2.112,0.764-4.411,1.285-6.605,2.115c-3.498,1.684-6.04,4.752-8.479,7.695
		c-1.225,1.477-2.426,2.929-3.756,4.23c-1.329,1.316-2.776,2.445-4.555,3.546"/>
</g>
<g>
	<path fill="none" stroke="#545454" stroke-width="1.8023" stroke-miterlimit="10" d="M359.147,197.096
		c0.182-1.119,0.52-2.112,0.826-3.137c0.284-1.038,0.648-2.046,1.037-3.054c0.701-2.044,1.543-4.064,2.076-6.171
		c-0.245-2.96,0.402-5.642,1.507-8.219c1.063-2.566,2.602-5.071,4.08-7.333"/>
</g>
<g>
	<path fill="none" stroke="#545454" stroke-width="1.8023" stroke-miterlimit="10" d="M411.045,146.475
		c1.178,2.668,2.581,5.214,4.11,7.685c1.524,2.475,3.174,4.88,4.7,7.391c1.526,2.506,2.91,5.146,3.868,7.962
		c0.969,2.811,1.49,5.767,1.64,8.724c0.029,11.786-1.21,23.445-2.197,35.138c-0.303,15.188-1.82,30.002-2.069,44.85l-0.064,5.573
		l-0.006,0.348c0.004,0.084-0.018,0.19,0.008,0.258l0.185,0.6l0.423,1.357c0.322,0.891,0.461,1.834,0.647,2.76
		c0.684,3.715,0.548,7.566-0.448,11.165l-0.173,0.677l-0.239,0.658l-0.479,1.312c-0.341,0.864-0.789,1.685-1.183,2.521
		c-0.941,1.598-1.952,3.155-3.212,4.505c-1.19,1.408-2.636,2.566-4.107,3.63c-1.526,0.994-3.157,1.8-4.86,2.3"/>
</g>
<g>
	<path fill="none" stroke="#545454" stroke-width="1.8023" stroke-miterlimit="10" d="M300.427,298.083
		c0.146-2.318,0.143-4.642,0.012-6.943l-0.177-2.763c-0.61-3.63-0.866-7.358,0.322-11.057l0.219-0.689
		c0.088-0.225,0.199-0.442,0.3-0.664l0.643-1.319l0.839-1.215l0.434-0.602l0.513-0.53l1.046-1.043
		c0.377-0.311,0.78-0.585,1.174-0.872c0.771-0.609,1.645-1.018,2.503-1.442l0.737-0.357l0.769-0.268l1.539-0.507
		c3.218-1.001,6.364-1.599,9.481-2.407c1.565-0.355,3.127-0.71,4.686-1.063c1.563-0.329,3.133-0.615,4.702-0.898
		c0.896-0.17,1.798-0.288,2.7-0.406c8.714-0.335,16.747-4.062,25.565-2.609"/>
</g>
<g>
	<path fill="none" stroke="#545454" stroke-width="1.8023" stroke-miterlimit="10" d="M356.533,231.449
		c0.41,0.863,0.699,1.773,0.909,2.698c0.151,0.93,0.214,1.872,0.249,2.814c0.006,1.888-0.143,3.769-0.137,5.641
		c2.057,4.864-0.168,9.568-1.477,14.28"/>
</g>
<g>
	<path fill="none" stroke="#545454" stroke-width="1.8023" stroke-miterlimit="10" d="M286.75,285.002
		c0.983-3.105,2.11-6.136,3.636-8.925l0.592-1.032c0.19-0.353,0.392-0.69,0.623-0.988c0.423-0.636,0.94-1.213,1.472-1.777
		c1.074-1.127,2.357-2.078,3.697-2.947c2.691-1.746,5.713-3.041,8.772-4.199c3.077-1.13,6.236-2.073,9.423-2.908
		c6.381-1.662,12.871-2.895,19.397-3.859c6.533-0.964,13.101-1.628,19.807-2.111"/>
</g>
<g>
	<path fill="none" stroke="#545454" stroke-width="1.8023" stroke-miterlimit="10" d="M216.264,264.088
		c2.337,3.831,3.193,8.356,3.686,12.735c0.478,4.417,0.581,8.844,1.134,13.235"/>
</g>
<g>
	<path fill="none" stroke="#545454" stroke-width="1.8023" stroke-miterlimit="10" d="M246.598,264.815
		c-0.249,4.375-0.566,8.676-0.859,13.044c-0.29,4.361-0.531,8.755-0.708,13.142"/>
</g>
<path fill="none" stroke="#545454" stroke-width="1.5" stroke-miterlimit="10" d="M380.057,142.284c0,4-0.764,7.59-2.764,10.924"/>
<g>
	<path fill="none" stroke="#545454" stroke-width="1.8023" stroke-miterlimit="10" d="M370.791,200.873
		c-6.396-1.128-12.584-3.11-18.962-3.944c-0.798-0.09-1.593-0.24-2.396-0.264l-1.202-0.075l-0.603-0.039
		c-0.167-0.001-0.335-0.047-0.492-0.012c-0.649,0.121-0.991,0.787-1.351,1.496c-0.336,0.711-0.607,1.47-0.849,2.239
		c-0.951,3.09-1.619,6.287-2.388,9.449c-0.25,2.103-0.604,4.188-1.172,6.242c-0.283,1.026-0.63,2.043-1.063,3.04
		c-0.106,0.25-0.217,0.498-0.346,0.743l-0.129,0.264c-0.024,0.058-0.06,0.115-0.09,0.173c-0.245,0.234,0.052,0.428,0.173,0.624
		l0.16,0.224c0.068,0.101,0.14,0.199,0.224,0.286l0.479,0.543c0.3,0.38,0.663,0.697,1.014,1.025c0.701,0.658,1.491,1.22,2.317,1.731
		c1.661,1.015,3.529,1.75,5.468,2.358c1.938,0.613,3.944,1.119,5.944,1.695c2.007,0.559,3.979,1.269,5.907,2.037
		c3.878,1.504,7.783,3.035,11.945,4.047c3.493,0.772,7.155,1.091,10.784,0.589c1.767-0.242,3.727-0.81,5.281-1.896
		c1.581-1.064,2.816-2.499,3.807-4.011c1.964-3.061,3.1-6.403,4.43-9.628c0.337-0.805,0.677-1.609,1.055-2.397
		c0.37-0.79,0.814-1.549,1.19-2.342c0.775-1.572,1.578-3.119,2.324-4.69l2.016-4.833l1.954-4.879
		c0.646-1.626,1.39-3.239,2.103-4.854c0.722-1.653,1.467-3.124,2.013-4.743c1.11-3.208,1.741-6.609,2.013-10.071
		c0.264-3.464,0.292-6.997-0.209-10.558"/>
</g>
<g>
	<path fill="none" stroke="#545454" stroke-width="1.8023" stroke-miterlimit="10" d="M370.144,208.101
		c0.208-2.889,1.066-5.653,2.1-8.32c1.017-2.683,2.242-5.286,3.221-7.978c0.742-7.63,5.331-13.676,9.572-19.692"/>
</g>
<g>
	<path fill="none" stroke="#545454" stroke-width="1.8023" stroke-miterlimit="10" d="M343.494,201.312
		c-3.682,0.686-7.3-1.013-10.651-0.258c-0.842,0.186-1.62,0.521-2.449,0.929l-2.465,1.159c-1.641,0.784-3.31,1.509-4.973,2.24
		c-0.503,0.32-1.016,0.629-1.538,0.926c-0.511,0.285-1.019,0.568-1.524,0.851l-0.715,0.392l-0.657,0.479
		c-0.455,0.28-0.84,0.67-1.25,1.013c-0.416,0.336-0.767,0.771-1.165,1.139l-1.116,1.238l-1.114,1.293l-0.567,0.653l-0.274,0.308
		l-0.211,0.216c-0.586,0.598-1.269,1.212-1.64,2.309c-0.082,0.266-0.116,0.569-0.024,0.823c0.094,0.252,0.315,0.406,0.534,0.451
		c0.446,0.116,0.929,0.044,1.462-0.11c0.509-0.199,1.027-0.465,1.558-0.81l0.784-0.604l0.683-0.572
		c0.888-0.762,1.77-1.548,2.65-1.972"/>
</g>
<g>
	<path fill="none" stroke="#545454" stroke-width="1.8023" stroke-miterlimit="10" d="M324.693,218.431
		c1.201,0.343,2.119,0.868,3.104,1.44c0.967,0.549,2.014,1.162,3.176,1.167c1.439-1.046,2.526-1.36,3.902-1.699
		c0.682-0.17,1.425-0.396,2.189-0.643c0.376-0.118,0.774-0.237,1.097-0.239c0.356-0.007,0.393,0.182,0.427,0.323"/>
</g>
<g>
	<path fill="none" stroke="#545454" stroke-width="1.8023" stroke-miterlimit="10" d="M325.849,208.644
		c-1.479,1.731-3.945,1.961-5.091,3.384c-0.609,0.66-0.611,1.75-0.675,2.814c-0.061,1.09-0.317,2.119-0.21,3.181
		c0.277,0.636,0.571,1.222,0.871,1.755c0.135,0.256,0.325,0.549,0.445,0.729c0.12,0.146,0.226,0.272,0.337,0.388
		c0.436,0.45,0.849,0.852,1.771,1.423c0.059,0.031,0.134,0.097,0.185,0.103l0.119-0.07c0.09-0.046,0.166-0.103,0.227-0.172
		c0.147-0.13,0.23-0.301,0.284-0.492c0.108-0.391,0.036-0.872-0.036-1.539c-0.106-0.74-0.016-1.444,0.366-1.854
		c0.365-0.419,0.945-0.65,1.525-0.871"/>
</g>
<g>
	<path fill="none" stroke="#545454" stroke-width="1.8023" stroke-miterlimit="10" d="M419.147,266.294
		c-8.048,4.931-18.068,6.636-27.365,5.116c-3.076,0.023-6.23-0.715-8.968-1.957c-1.397-0.584-2.776-1.206-4.138-1.858
		c-1.358-0.657-2.66-1.397-3.975-2.129c-2.613-1.491-5.193-3.012-7.794-4.562c-0.652-0.383-1.296-0.788-1.959-1.156l-2.021-1.061
		c-1.364-0.7-2.732-1.403-4.105-2.108"/>
</g>
<path fill="none" stroke="#545454" stroke-width="1.5" stroke-miterlimit="10" d="M404.117,132.035
	c-0.502,2.132-0.878,4.389,0.251,6.396"/>
<g>
	<path fill="none" stroke="#545454" stroke-width="1.8023" stroke-miterlimit="10" d="M214.75,35.341
		c2.331,6.072,1.379,12.614,2.855,18.791c1.923,3.735,3.349,7.248,6.023,9.975c2.658,2.74,6.78,4.283,11.084,4.479
		c1.817-0.044,3.661-0.512,5.29-1.388c1.635-0.872,3.019-2.144,4.078-3.585c2.129-2.915,3.072-6.321,3.705-9.646
		c1.211-6.695,1.221-13.483,3.676-20.23"/>
</g>
<g>
	<path fill="none" stroke="#545454" stroke-width="1.8023" stroke-miterlimit="10" d="M250.51,31.741
		c-0.888,0.35-1.952,0.292-2.858-0.096c-0.914-0.383-1.67-1.041-2.269-1.774c-0.606-0.736-1.054-1.566-1.436-2.405
		c-0.38-0.839-0.703-1.722-0.963-2.486c-0.293-0.248-0.492-0.387-0.633-0.497c-0.01-0.041-0.055,0.018-0.098,0.073l-0.118,0.144
		l-0.21,0.254l-0.345,0.397c-0.248,0.258-0.253,0.273-0.81,0.638c-0.877,0.59-1.865,0.987-2.854,1.359
		c-2.024,0.663-4.139,1.038-6.214,1.41c-3.706,1.052-6.982,3.088-10.775,4.397c-0.937,0.359-1.915,0.556-2.899,0.772
		c-0.991,0.145-2.002,0.261-3.015,0.193c-2.021-0.075-4.075-0.812-5.667-2.189"/>
</g>
<path fill="none" stroke="#545454" stroke-width="1.5" stroke-miterlimit="10" d="M251.331,39.062
	c1.236-1.648,1.648-2.885,3.71-2.885c0.824,3.709,1.648,13.188-4.122,14.012"/>
<path fill="none" stroke="#545454" stroke-width="1.5" stroke-miterlimit="10" d="M214.652,38.237
	c-7.006-4.945-5.77,14.424,1.236,14.424"/>
<g>
	<path fill="none" stroke="#545454" stroke-width="1.8023" stroke-miterlimit="10" d="M255.359,33.674
		c0.147-3.375,0.895-6.614,1.324-9.883c0.213-1.634,0.349-3.284,0.237-4.931c-0.104-1.644-0.509-3.286-1.336-4.726
		c-2.954-3.237-6.121-5.475-9.902-7.239c-3.765-1.715-7.944-3.066-12.461-3.213c-3.784,0.049-7.486,1.487-10.492,3.633
		c-3.039,2.153-5.421,4.943-7.62,7.784c-2.214,2.84-4.246,5.822-6.881,8.438c-0.685,0.631-1.326,1.297-2.107,1.843l-1.142,0.833
		c-0.267,0.146-0.515,0.255-0.816,0.402l-0.47,0.223c-0.062,0.016-0.058,0.043-0.036,0.075l0.036,0.09l0.077,0.19
		c0.111,0.258,0.243,0.547,0.418,0.867c0.432,0.713,0.935,1.518,1.751,2.057"/>
</g>
<path fill="none" stroke="#545454" stroke-width="1.5" stroke-miterlimit="10" d="M219.186,58.843c0,4.533,0.412,11.127,0,15.661"/>
<path fill="none" stroke="#545454" stroke-width="1.5" stroke-miterlimit="10" d="M246.385,63.789
	c0.824,4.122-0.412,8.243,1.648,11.952"/>
<g>
	<path fill="none" stroke="#545454" stroke-width="1.8023" stroke-miterlimit="10" d="M253.875,72.789
		c2.433,1.52,4.112,3.904,5.497,6.32c0.365,0.6,0.672,1.232,0.992,1.855c0.326,0.621,0.629,1.252,0.917,1.891
		c0.296,0.634,0.598,1.264,0.87,1.908c0.289,0.652,0.615,1.351,0.896,2.03c0.25,0.354,0.508,0.744,0.768,1.161
		c0.126,0.142-0.021,0.115-0.078,0.146l-0.227,0.061l-0.499,0.117c-0.72,0.15-1.506,0.289-2.355,0.4
		c-0.469,0.064-0.769,0.089-1.102,0.114l-0.998,0.056c-0.674-0.02-1.356-0.105-2.027-0.188L257.381,87
		c1.525,1.57,3.062,3.096,4.897,4.587c0.498,0.374,0.934,0.717,1.304,1.027c0.085,0.027,0.006,0.104-0.038,0.169l-0.136,0.194
		l-0.263,0.366l-0.48,0.644c-0.317,0.407-0.647,0.917-1.001,1.348l-1.123,1.301c-0.847,1.2-1.815,2.344-2.634,3.574
		c-0.885,1.209-1.715,2.443-2.521,3.729c-1.639,2.528-3.015,5.283-4.127,8.038c-0.468,1.429-0.997,2.795-1.379,4.231l-0.667,2.105
		c-0.183,0.721-0.379,1.435-0.594,2.145c-0.444,1.406-0.895,2.861-1.469,4.268c-0.573,1.413-1.31,2.799-2.127,4.123"/>
</g>
<g>
	<path fill="none" stroke="#545454" stroke-width="1.8023" stroke-miterlimit="10" d="M213.91,77.855
		c-0.746,2.449-2.108,4.632-3.743,6.584c-0.394,0.5-0.834,0.963-1.278,1.421c-0.432,0.468-0.884,0.917-1.366,1.337
		c-0.473,0.437-0.932,0.874-1.386,1.205c-0.46,0.362-0.913,0.77-1.408,1.079c-0.074,0.152-0.126,0.279-0.163,0.387l-0.031,0.091
		l0.312,0.034l0.564,0.057c0.3,0.029,0.597,0.058,0.894,0.086c0.524,0.019,0.868,0.05,1.234,0.094l1.268,0.212l1.556,0.296
		l1.468,0.31c0.214,0.057,0.507,0.098,0.639,0.169c0.018,0.094,0.019,0.191,0.012,0.292c-0.577,0.494-1.118,0.959-1.567,1.388
		c-0.255,0.222-0.399,0.409-0.571,0.6c-0.171,0.19-0.329,0.373-0.449,0.544c-0.263,0.364-0.518,0.65-0.698,0.816
		c-0.221,0.192-0.469,0.403-0.794,0.584c-0.183,0.067-0.059,0.153-0.021,0.237l0.161,0.265l0.375,0.588l0.828,1.262
		c0.54,0.833,1.104,1.631,1.583,2.511c3.112,4.375,6.843,8.31,10.419,12.466c3.579,4.171,6.782,8.408,8.865,13.731"/>
</g>
<g>
	<path fill="none" stroke="#545454" stroke-width="1.8023" stroke-miterlimit="10" d="M261.702,76.49
		c5.122,2.441,10.735,3.309,16.214,5.073c2.732,0.871,5.458,1.929,7.897,3.503c2.441,1.557,4.512,3.717,5.811,6.3
		c2.034,3.153,3.277,6.748,4.11,10.336c0.796,3.609,1.189,7.242,1.52,10.859c0.289,3.621,0.661,7.218,1.126,10.853
		c0.195,1.822,0.459,3.638,0.75,5.455c0.29,1.816,0.545,3.654,0.906,5.47c0.654,3.033,1.4,6.04,2.257,9.02
		c0.44,1.488,0.806,2.981,1.392,4.442l1.623,4.319c1.053,2.869,2.037,5.759,2.576,8.769c0.569,2.99,0.502,6.182-0.637,9.148
		c-0.115,0.382-0.337,0.713-0.503,1.074c-0.191,0.346-0.336,0.728-0.57,1.048l-0.688,0.979c-0.117,0.162-0.229,0.33-0.351,0.488
		l-0.407,0.438c-1.082,1.218-2.225,2.211-3.398,3.244c-2.35,2.03-4.848,3.979-7.736,5.404c-0.74,0.32-1.45,0.7-2.237,0.932
		l-1.16,0.38l-1.206,0.258c-0.397,0.1-0.807,0.149-1.222,0.17c-0.413,0.029-0.824,0.069-1.235,0.083
		c-0.827-0.079-1.661-0.041-2.461-0.278c-3.26-0.685-5.97-2.713-7.9-5.154"/>
</g>
<g>
	<path fill="none" stroke="#545454" stroke-width="1.8023" stroke-miterlimit="10" d="M274.913,154.83
		c1.631,1.113,1.364,3.081,1.906,4.656c1.307,0.702,1.631,1.808,1.509,2.962c-0.109,1.159-0.698,2.35-1.115,3.402
		c-0.203,0.876-0.084,1.69,0.099,2.575c0.174,0.878,0.419,1.834,0.473,2.828c0.143,1.958-0.625,4.143-3.064,4.544"/>
</g>
<path fill="none" stroke="#545454" stroke-width="1.5" stroke-miterlimit="10" d="M279.355,151.57
	c4.945,0,10.304-0.412,14.837-1.648"/>
<g>
	<path fill="none" stroke="#545454" stroke-width="1.8023" stroke-miterlimit="10" d="M284.398,93.465
		c0.506,1.925,0.5,3.894,0.364,5.843c-0.218,1.948-0.616,3.878-0.737,5.823c0.794,2.598,0.46,5.092-0.17,7.515
		c-0.744,2.411-1.828,4.754-2.729,7.141c-0.626,2.026-0.871,4.103-0.981,6.212c-0.161,2.099-0.173,4.232-0.258,6.364
		c-0.125,2.122-0.343,4.236-0.837,6.292c-0.531,2.046-1.379,4.024-2.708,5.864"/>
</g>
<path fill="#FFFFFF" stroke="#545454" stroke-width="1.5" stroke-miterlimit="10" d="M272.761,153.631
	c-3.297-3.709-4.848-5.348-10.618-4.111c-2.473,0.824-9.899,2.695-9.405,4.865s2.715,2.543,4.775,2.543"/>
<path fill="none" stroke="#545454" stroke-width="1.5" stroke-miterlimit="10" d="M272.349,173.413
	c-0.824,4.533-17.309,1.648-12.775-2.885"/>
<path fill="#FFFFFF" stroke="#545454" stroke-width="1.5" stroke-miterlimit="10" d="M271.113,168.88
	c-2.885,0-16.833,0.286-13.123-5.896"/>
<path fill="#FFFFFF" stroke="#545454" stroke-width="1.5" stroke-miterlimit="10" d="M266.167,162.697
	c-2.885,0.412-12.364,1.649-11.127-3.297c0.824-3.709,10.303-3.297,13.188-3.297"/>
<g>
	<path fill="none" stroke="#545454" stroke-width="1.8023" stroke-miterlimit="10" d="M218.394,77.798
		c2.545,3.405,4.25,7.35,5.627,11.348c1.378,4.012,2.444,8.117,3.634,12.176c2.485,4.975,3.802,10.248,4.58,15.591
		c0.775,5.35,1.025,10.783,1.278,16.227"/>
</g>
<g>
	<path fill="none" stroke="#545454" stroke-width="1.8023" stroke-miterlimit="10" d="M249.295,76.174
		c-0.543,4.096-1.065,8.101-1.513,12.197c-0.424,4.089-0.824,8.214-1.192,12.327c0.268,2.69,0.134,5.42-0.298,8.052
		c-0.488,2.587-1.143,5.126-1.89,7.648c-0.777,2.513-1.556,5.032-2.34,7.565c-0.793,2.529-1.604,5.069-2.357,7.645"/>
</g>
<g>
	<path fill="none" stroke="#545454" stroke-width="1.8023" stroke-miterlimit="10" d="M219.197,77.361
		c2.276-0.131,4.464,0.586,6.5,1.436c2.04,0.864,4.031,1.858,6.171,2.438c0.758-0.084,1.479-0.14,2.173-0.13
		c0.695-0.059,1.361-0.106,2.021-0.085c1.266-0.148,2.533-0.26,3.856-0.624c2.648-0.622,5.463-1.688,8.149-2.606"/>
</g>
<g>
	<path fill="none" stroke="#545454" stroke-width="1.8023" stroke-miterlimit="10" d="M225.355,90.961
		c1.146-1.507,2.336-2.857,3.744-4.108c1.396-1.243,2.877-2.433,4.441-3.464c0.407-0.527,0.828-0.996,1.631-1.281
		c0.882-0.125,1.488,0.058,2.126,0.258c1.217,0.444,2.216,1.161,3.134,1.959c1.856,1.61,3.21,3.611,5.061,5.397"/>
</g>
<g>
	<path fill="none" stroke="#545454" stroke-width="1.8023" stroke-miterlimit="10" d="M208.046,78.255
		c-4.062,2.903-8.653,5.022-13.272,6.902l-6.961,2.745c-2.313,0.958-4.655,1.762-6.723,3.069c-2.078,1.285-3.902,2.978-5.317,4.986
		c-1.422,2.005-2.439,4.295-3.14,6.674c-1.42,4.784-1.597,9.843-1.727,14.832c0.373,6.47,0.907,12.832,1.688,19.13
		c0.783,6.294,1.844,12.523,3.415,18.641c0.797,3.055,1.745,6.07,2.858,9.04c1.18,2.94,2.453,5.867,3.879,8.73
		c2.806,5.721,5.947,11.438,7.514,17.532"/>
</g>
<g>
	<path fill="none" stroke="#545454" stroke-width="1.8023" stroke-miterlimit="10" d="M179.653,94.294
		c0.81,3.319,1.571,6.549,2.455,9.821c0.884,3.262,1.89,6.53,3.17,9.687c2.577,3.687,4.278,7.716,5.285,11.996
		c1.005,4.271,1.271,8.733,0.906,13.015"/>
</g>
<g>
	<path fill="none" stroke="#545454" stroke-width="1.8023" stroke-miterlimit="10" d="M192.415,183.741
		c-1.077,2.075-2.36,3.883-3.577,5.797c-1.211,1.903-2.352,3.921-3.028,6.116c0.076,3.105-0.414,5.843-1.194,8.673
		c-0.77,2.814-1.796,5.659-2.62,8.541"/>
</g>
<g>
	<path fill="none" stroke="#545454" stroke-width="1.8023" stroke-miterlimit="10" d="M274.852,182.9
		c0.286,1.207,0.446,2.388,0.524,3.572c0.014,0.593,0.114,1.182,0.176,1.774c0.064,0.592,0.113,1.187,0.155,1.783
		c0.048,1.198,0.227,2.389,0.366,3.586c0.134,1.199,0.326,2.393,0.604,3.567c3.305,5.556,2.96,12.212,1.75,18.226"/>
</g>
<g>
	<path fill="none" stroke="#545454" stroke-width="1.8023" stroke-miterlimit="10" d="M232.403,185.375
		c0.184,1.023,0.242,2.012,0.22,2.994c-0.028,0.982,0.037,1.97-0.026,2.96c-0.073,0.991-0.035,1.987-0.03,2.987
		c-0.004,1.002,0.055,2.004,0.201,2.994c1.315,2.418,1.762,4.913,1.73,7.51c0.018,1.287-0.175,2.607-0.321,3.897
		c-0.183,1.297-0.487,2.579-0.671,3.842"/>
</g>
<g>
	<g>
		<path fill="none" stroke="#545454" stroke-width="1.8023" stroke-miterlimit="10" d="M165.472,231.786
			c-1.628-1.937-2.643-4.363-3.214-6.834c-0.136-0.622-0.238-1.251-0.351-1.878c-0.089-0.631-0.134-1.268-0.196-1.9
			c-0.032-0.317-0.02-0.638-0.031-0.956l-0.005-1.139c0.005-0.384,0.04-0.763,0.06-1.136l0.035-0.557l0.018-0.275
			c0.019-0.071-0.022-0.233,0.065-0.199c0.564,0.228,1.111,0.47,1.655,0.676l1.527,0.563c0.909,0.294,1.816,0.604,2.742,0.853
			c1.842,0.532,3.723,0.944,5.625,1.198c1.461-0.067,2.836-0.15,4.251-0.335c1.41-0.169,2.815-0.262,4.211-0.354
			c1.384-0.167,2.773-0.203,4.152-0.364l4.297-0.463l1.371-0.145c0.21-0.007,0.464-0.08,0.628-0.03l0.094,0.707
			c0.074,0.462,0.068,0.919,0.1,1.355c0.006,0.219-0.012,0.443-0.019,0.651c-0.015,0.182-0.021,0.363-0.043,0.544
			c-0.167,1.44-0.535,2.829-1.034,4.155c-0.502,1.323-1.14,2.59-1.927,3.72c-0.781,1.122-1.742,2.125-2.803,2.683"/>
	</g>
	<path fill="none" stroke="#545454" stroke-width="1.5" stroke-miterlimit="10" d="M168.504,232.448
		c4.667,1.667,10.333,1,15.333,0.334"/>
	<g>
		<path fill="none" stroke="#545454" stroke-width="1.8023" stroke-miterlimit="10" d="M159.825,230.146
			c-1.022,0.209-2.049,0.377-2.987,0.735c-0.463,0.167-0.912,0.381-1.21,0.604c-0.301,0.242-0.583,0.563-0.56,0.968
			c0.141,0.805,0.825,1.197,1.729,1.676c0.872,0.449,1.859,0.704,2.858,0.984c3.964,1.256,8.072,2.104,12.252,2.217
			c5.399-0.914,10.678-0.963,15.941-1.011l1.981-0.02c0.68,0.022,1.27-0.045,1.925-0.163c1.281-0.237,2.563-0.619,3.792-1.17
			c0.603-0.283,1.219-0.581,1.834-1.118c0.302-0.257,0.558-0.571,0.723-0.933c0.166-0.357,0.181-0.801-0.009-1.153
			c-0.375-0.694-1.158-1.116-2.046-1.399c-0.762-0.246-1.422-0.378-2.13-0.507"/>
	</g>
	<path fill="none" stroke="#545454" stroke-width="1.5" stroke-miterlimit="10" d="M163.348,215.356
		c8.322-1.462,16.981-1.911,27.215,1.237"/>
	<path fill="none" stroke="#545454" stroke-width="1.5" stroke-miterlimit="10" d="M159.837,218.948c-3.667-6.5-4,11.5,0.167,6.5"/>
	<path fill="none" stroke="#545454" stroke-width="1.5" stroke-miterlimit="10" d="M157.124,216.735
		c-3.061,2.721-3.401,7.595,0.34,9.749"/>
</g>
<g>
	<g>
		<path fill="none" stroke="#545454" stroke-width="1.8023" stroke-miterlimit="10" d="M305.856,234.847
			c1.207-2.194,1.998-4.526,2.584-6.911l0.392-1.8c0.113-0.604,0.192-1.214,0.298-1.819c0.054-0.304,0.065-0.611,0.102-0.917
			l0.08-0.729c0.022-0.239,0.023-0.484,0.038-0.734l0.017-0.38l0.009-0.192c-0.011-0.046,0.041-0.179-0.042-0.125
			c-0.344,0.096-0.693,0.209-1.065,0.299l-1.228,0.291c-0.948,0.189-1.892,0.396-2.845,0.545c-1.9,0.335-3.812,0.578-5.73,0.755
			c-1.393,0.373-2.881,0.611-4.31,0.637c-1.435,0.042-2.866,0.054-4.294-0.019c-1.427-0.149-2.862-0.257-4.264-0.554l-2.095-0.465
			c-0.351-0.076-0.688-0.177-1.029-0.271c-0.333-0.095-0.729-0.204-0.882-0.262l-0.682-0.226c-0.115-0.031-0.258-0.101-0.362-0.104
			l-0.12,0.312c-0.093,0.214-0.132,0.453-0.206,0.704c-0.03,0.128-0.049,0.257-0.074,0.398c-0.024,0.17-0.058,0.339-0.075,0.511
			c-0.152,1.374-0.137,2.793,0.021,4.209c0.161,1.417,0.461,2.84,0.983,4.226c0.532,1.375,1.269,2.758,2.555,3.857"/>
	</g>
	<path fill="none" stroke="#545454" stroke-width="1.5" stroke-miterlimit="10" d="M302.847,235.421
		c-4.729,1.476-10.365,0.578-15.334-0.29"/>
	<g>
		<path fill="none" stroke="#545454" stroke-width="1.8023" stroke-miterlimit="10" d="M311.619,233.414
			c1.043-0.007,2.107,0.005,3.157,0.289c0.528,0.136,1.056,0.324,1.603,0.697c0.493,0.373,0.947,0.909,0.929,1.569
			c-0.011,0.655-0.46,1.189-0.917,1.63c-0.519,0.429-1.006,0.68-1.514,0.896c-1.019,0.45-2.087,0.63-3.116,0.813
			c-4.102,0.867-8.344,1.055-12.513,0.995c-5.43,0.865-10.783,0.6-16.07-0.421l-1.971-0.416c-0.646-0.114-1.353-0.357-1.962-0.632
			c-1.249-0.558-2.408-1.27-3.444-2.113c-0.515-0.427-1.013-0.896-1.298-1.331c-0.294-0.416-0.515-1-0.088-1.377
			c0.417-0.326,0.937-0.36,1.345-0.376c0.551-0.034,1.233-0.017,1.867,0.015"/>
	</g>
	<path fill="none" stroke="#545454" stroke-width="1.5" stroke-miterlimit="10" d="M308.695,218.553
		c-8.256-1.799-16.891-2.601-27.244,0.129"/>
	<path fill="none" stroke="#545454" stroke-width="1.5" stroke-miterlimit="10" d="M312.055,222.284
		c3.93-6.346,3.529,11.653-0.43,6.488"/>
	<path fill="none" stroke="#545454" stroke-width="1.5" stroke-miterlimit="10" d="M314.858,220.184
		c2.947,2.843,3.089,7.727-0.736,9.728"/>
</g>
</svg>
