<?xml version="1.0" encoding="utf-8"?>
<!-- Generator: Adobe Illustrator 16.0.0, SVG Export Plug-In . SVG Version: 6.00 Build 0)  -->
<!DOCTYPE svg PUBLIC "-//W3C//DTD SVG 1.1//EN" "http://www.w3.org/Graphics/SVG/1.1/DTD/svg11.dtd">
<svg version="1.1" id="Layer_2" xmlns="http://www.w3.org/2000/svg" xmlns:xlink="http://www.w3.org/1999/xlink" x="0px" y="0px"
	 width="461.977px" height="412.479px" viewBox="0 0 461.977 412.479" enable-background="new 0 0 461.977 412.479"
	 xml:space="preserve">
<g>
	<path fill="none" stroke="#545454" stroke-width="1.8023" stroke-miterlimit="10" d="M444.929,220.192
		c-16.812-3.201-33.648-7.035-50.313-10.946c-14.098-0.127-28.398-0.332-42.6-0.332c-40.646,2-79.982,0-120.629-1
		c-25.484-0.374-50.785,0.091-76.07,0.648c-12.643,0.271-25.283,0.542-37.938,0.812c-6.329,0.094-12.661,0.189-19,0.284
		c-3.17,0.027-6.341,0.054-9.515,0.081c-3.127,0.01-6.256,0.019-9.387,0.028c-4.087,1.154-8.177,2.31-12.273,3.467
		c-4.153,1.127-8.311,2.256-12.475,3.386c-8.341,2.214-16.734,4.334-25.192,6.337"/>
</g>
<g>
	<polygon fill="#FFFFFF" points="168.401,212.9 161.002,214.774 140.321,194.178 168.401,194.178 	"/>
	<g>
		<path fill="none" stroke="#545454" stroke-width="1.8023" stroke-miterlimit="10" d="M168.416,212.998
			c-1.177,0.516-2.375,0.951-3.59,1.33c-0.607,0.189-1.219,0.364-1.833,0.528l-2.16,0.54l-1.188-1.236l-0.95-1.026l-1.881-2.074
			c-1.253-1.384-2.513-2.764-3.835-4.08c-2.68-1.613-4.938-3.597-6.98-5.785c-1.031-1.104-1.964-2.216-2.949-3.438
			c-1.277-1.513-2.215-2.748-2.739-3.583c1.374,0.149,2.516,0.303,3.412,0.45c0.448,0.074,0.837,0.146,1.169,0.216l1.517,0.199
			c3.687,0.271,7.354,0.102,11.016-0.224c1.831-0.163,3.66-0.365,5.489-0.571l2.744-0.307c0.83-0.1,2.025-0.197,3.272-0.286
			l0.206,2.852l0.156,2.327c0.083,1.552,0.123,3.107,0.096,4.665c-0.053,3.116-0.369,6.243-1.119,9.391"/>
	</g>
</g>
<g>
	<rect x="135.988" y="196.178" fill="#FFFFFF" width="28.081" height="18.722"/>
	<g>
		<path fill="none" stroke="#545454" stroke-width="1.8023" stroke-miterlimit="10" d="M164.057,214.999
			c-6.986,1.042-14.02,0.042-21.054,0.042c-1.177,0.259-2.35,0.451-3.519,0.587l-0.875,0.091l-0.438,0.038l-0.508,0.033
			c-0.859,0.041-1.754,0.069-2.651,0.086l-0.02-1.764l0.009-1.55c0.015-0.778,0.047-1.557,0.093-2.334
			c0.092-1.555,0.239-3.109,0.415-4.666s0.382-3.114,0.59-4.677l0.312-2.349c0.051-0.433,0.102-0.715,0.151-0.961l0.145-0.678
			l0.811,0.141l0.234,0.026c0.07,0.008,0.139,0.016,0.306,0.023l0.843,0.038l1.685,0.042c1.123,0.014,2.244,0.001,3.364-0.033
			c2.241-0.068,4.477-0.221,6.712-0.413l6.702-0.646l3.351-0.325l1.743-0.147l2.317-0.132l0.149,3.031l0.099,2.327
			c0.047,1.553,0.053,3.108,0.003,4.666c-0.099,3.116-0.423,6.243-1.093,9.388"/>
	</g>
</g>
<g>
	<path fill="none" stroke="#545454" stroke-width="1.8023" stroke-miterlimit="10" d="M434.111,394.107c0,0,0-3.641,0-10.383
		c0-3.371,0.029-7.523,0.172-12.425c0.787-31.012-2.213-61.569-0.695-92.228c0.143-3.383,0.326-6.758,0.531-10.124
		c-0.002-2.477-0.005-4.981-0.008-7.509v-1.441h-5.388c-2.239-0.007-4.496-0.014-6.778-0.021
		c-17.543-0.469-34.718-0.703-51.861-0.701l-10.285,0.03c-29.36,1.301-57.899,2.75-86.875,2.11
		c-3.219-0.071-6.444-0.168-9.676-0.293c-31.951-2.57-64.156-2.998-96.344-1.943l-9.656,0.356
		c-25.364,1.752-50.443,2.278-75.881,1.748c-3.633-0.097-7.274-0.194-10.925-0.292c-5.566-0.136-11.104-0.211-16.62-0.248
		c-2.758-0.009-5.51-0.018-8.257-0.027c-2.538,0.005-5.071,0.011-7.6,0.017c0.071,11.268,0.142,22.464,0.212,33.648l0,9.544
		c-0.908,30.384,2.092,59.923-0.48,90.1"/>
</g>
<g>
	<g>
		<path fill="none" stroke="#545454" stroke-width="1.8023" stroke-miterlimit="10" d="M280.668,104.786
			c0,0-1.009,1.177-2.879,3.358c-0.478,0.558-0.966,1.116-1.519,1.723l-0.051,0.056c-0.021,0.001-0.047-0.02-0.071-0.029
			l-0.145-0.071l-0.289-0.154c-0.192-0.106-0.39-0.208-0.582-0.325c-0.366-0.232-0.787-0.479-1.222-0.779
			c-2.717-1.842-5.302-3.81-7.778-5.94c-1.189-1.115-2.437-2.183-3.534-3.402c-1.182-1.149-2.193-2.442-3.239-3.723
			c-4.106-5.162-6.91-11.527-7.441-18.143c-0.065-1.464-0.087-2.922-0.085-4.362c-0.064-0.519-0.176-1.037-0.201-1.565
			c-0.025-0.528-0.051-1.06-0.076-1.594c-0.043-0.935-0.086-1.877-0.13-2.828c-0.018-0.476-0.036-0.953-0.054-1.433
			c0.017-0.479,0.035-0.962,0.052-1.447c0.646-7.436,2.625-14.512,6.146-20.748c0.681-1.259,1.464-2.459,2.27-3.643
			c5.998-10.801,17.306-18.854,29.816-20.811c1.387-0.222,2.791-0.359,4.2-0.417c3.527,0.146,6.953,0.68,10.3,1.275
			c3.352,0.589,6.618,1.413,9.782,2.44c3.165,1.031,6.222,2.303,9.161,3.838c2.942,1.532,5.734,3.37,8.463,5.374
			c1.085,0.814,2.154,1.646,3.239,2.503c1.333,0.911,2.659,1.843,4.034,2.646c1.367,0.814,2.813,1.427,4.275,1.649
			c1.462,0.234,2.949,0.113,4.448-0.134c0.373-0.051,0.751-0.141,1.126-0.206c0.134-0.03,0.496-0.083,0.778-0.149l0.888-0.192
			l3.666-0.807c0.012,0.068,0.067,0.089,0.043,0.198l-0.046,0.296l-0.095,0.59l-0.202,1.186c-0.141,0.8-0.328,1.626-0.542,2.465
			l-0.324,1.145l-0.265,0.824c-0.184,0.547-0.385,1.091-0.607,1.629c-0.431,1.08-0.978,2.13-1.599,3.147
			c-0.328,0.503-0.659,1.002-1.056,1.472c-0.185,0.24-0.381,0.475-0.605,0.693c-0.208,0.207-0.483,0.513-0.514,0.502l-0.424,0.312
			l0.085,0.463l0.04,0.251l0.089,0.443c0.111,0.617,0.229,1.232,0.309,1.853c0.793,4.87,1.241,9.7,1.223,14.53
			c-0.004,4.822-0.504,9.654-1.782,14.312l-0.602,1.978c-0.193,0.661-0.407,1.317-0.685,1.953c-0.357,0.748-0.698,1.497-1.027,2.248
			l-1.126,2.185c-0.189,0.362-0.356,0.736-0.556,1.091l-0.62,1.056c-0.426,0.694-0.774,1.439-1.247,2.104
			c-1.706,2.783-3.747,5.358-6.031,7.709c-2.297,2.336-4.898,4.4-7.791,5.988c-0.73,0.386-1.467,0.758-2.233,1.081l-0.72,0.297
			l-0.806,0.317l-0.817,0.281c-0.065,0.008-0.14,0.077-0.197,0.034l-0.164-0.159l-0.323-0.315c-0.405-0.402-0.882-0.867-1.176-1.189
			l-0.796-0.915c-0.524-0.618-1.037-1.251-1.536-1.901"/>
	</g>
	<g>
		<path fill="none" stroke="#545454" stroke-width="1.8023" stroke-miterlimit="10" d="M261.238,209.347
			c-1.042-6.41-0.042-12.864-0.042-19.317c-0.469-1.953-0.718-3.891-0.812-5.821c-0.047-0.965-0.055-1.929-0.032-2.891l0.056-1.442
			l0.097-2.014c0.152-2.673,0.396-4.74,0.666-5.812c0.27-1.101,0.567-1.208,0.826-0.701c0.148,0.721,0.297,1.447,0.446,2.173
			c0.341,1.532,0.542,2.324,0.764,2.984c0.22,0.653,0.461,1.174,0.818,1.958c0.29,0.559,1.008,2.417,1.606,3.827l1.896,4.493
			c-0.694,7.576-1.525,14.972-4.75,22.094"/>
	</g>
	<g>
		<path fill="none" stroke="#545454" stroke-width="1.8023" stroke-miterlimit="10" d="M328.641,60.541
			c-4.965,0.405-9.977,0.127-14.928-0.559c-4.952-0.698-9.848-1.876-14.585-3.516c-4.735-1.638-9.337-3.715-13.597-6.359
			c-0.534-0.326-1.09-0.617-1.606-0.972l-1.543-1.072l-1.441-1l-0.347-0.241l-0.174-0.121c-0.059-0.041-0.123-0.108-0.151-0.009
			l-0.45,0.706l-3.936,6.263c-0.673,1.274-1.345,2.544-2.016,3.812l-1.027,1.887l-0.551,0.992c-0.239,0.402-0.467,0.856-0.73,1.236
			c-0.43-0.072-0.909-0.141-1.325-0.163c-0.247-0.027-0.342-0.002-0.508-0.002c-0.151,0-0.298,0.019-0.446,0.038
			c-0.591,0.062-1.156,0.222-1.649,0.479c-0.998,0.5-1.717,1.379-2.104,2.48c-0.775,2.21-0.542,4.876-0.296,7.438
			c0.317,2.546,0.854,5.102,1.951,7.331c0.544,1.104,1.239,2.14,2.142,2.831c0.233,0.151,0.449,0.353,0.706,0.44l0.372,0.176
			c0.127,0.043,0.261,0.062,0.392,0.098l0.197,0.049l0.099,0.025l0.176-0.012l0.717-0.055c0.48-0.013,0.924-0.156,1.378-0.225
			l0.082,0.083l-0.005,0.195l-0.009,0.389l-0.019,0.77l-0.04,1.501c-0.015,0.734-0.082,1.517-0.056,2.212
			c0.027,1.429,0.242,2.898,0.577,4.333c0.668,2.876,1.728,5.694,3.207,8.31c0.41,0.628,0.76,1.304,1.232,1.895l0.677,0.915
			l0.761,0.852c0.246,0.294,0.516,0.564,0.812,0.812l0.866,0.768c0.647,0.422,1.25,0.935,1.984,1.237l0.533,0.259
			c0.18,0.089,0.366,0.182,0.487,0.208l0.8,0.253c0.052,0.029,0.157,0.021,0.165,0.081l-0.013,0.203l-0.024,0.394l-0.025,0.38
			l-0.024,0.561c-0.062,1.51-0.124,3.023-0.186,4.539c-0.03,1.703-0.061,3.404-0.091,5.104c-0.014,1.383-0.028,2.764-0.042,4.143
			l-0.925,0.043l-1.868,0.114c-1.244,0.083-2.487,0.174-3.728,0.296c-2.483,0.219-4.96,0.507-7.428,0.88
			c-2.468,0.363-4.929,0.826-7.365,1.474c-2.462,0.684-4.756,1.603-7.022,2.67c-4.512,2.124-8.728,4.974-12.008,8.688
			c-3.309,3.672-5.697,8.098-6.94,12.817l-0.786,3.569l-0.429,3.628c-0.126,1.209-0.079,2.437-0.131,3.651
			c-0.054,1.208-0.013,2.453,0.008,3.692c0.085,4.957,0.126,9.92,0.101,14.894c-0.051,9.946-0.366,19.932-1.12,29.981"/>
	</g>
	<g>
		<path fill="none" stroke="#545454" stroke-width="1.8023" stroke-miterlimit="10" d="M332.742,179.206
			c-5.967,1.042-11.975,0.042-17.982,0.042c-1.05,0.271-2.097,0.468-3.139,0.605l-0.781,0.091l-0.39,0.038l-0.569,0.032
			c-0.776,0.039-1.58,0.065-2.38,0.079c0-0.984,0.023-2.081,0.061-3.013c0.032-0.669,0.081-1.337,0.144-2.005
			c0.125-1.336,0.305-2.67,0.512-4.005c0.207-1.335,0.441-2.672,0.676-4.013l0.35-2.016c0.113-0.576,0.218-0.929,0.316-1.251
			l0.447,0.097l0.412,0.058c0.153,0.018,0.189,0.031,0.488,0.047l1.46,0.071c0.973,0.033,1.946,0.038,2.918,0.021
			c1.944-0.033,3.887-0.153,5.83-0.312l5.825-0.544l2.914-0.269l0.729-0.061l0.376-0.029l0.482-0.025l2.05-0.089l0.138,2.663
			l0.089,1.943c0.041,1.296,0.042,2.595-0.012,3.895c-0.107,2.601-0.431,5.212-1.086,7.837"/>
	</g>
	<g>
		<polygon fill="#FFFFFF" points="322.633,161.607 322.633,155.726 318.578,155.726 318.578,161.607 308.502,161.607 
			308.502,167.857 332.752,167.857 332.752,161.607 		"/>
		<g>
			<path fill="none" stroke="#545454" stroke-width="1.8023" stroke-miterlimit="10" d="M322.535,161.599
				c-0.188-0.977-0.309-1.955-0.381-2.933l-0.076-1.345c-0.014-0.343-0.019-0.678-0.016-1.024c-0.89-0.008-1.968-0.075-3.065-0.153
				c-0.057,0.703-0.12,1.471-0.171,2.522c-0.052,0.943-0.092,2.058-0.104,3.085l-0.602-0.003c-1.728,0.454-3.292,0.702-4.877,0.802
				c-0.792,0.05-1.583,0.063-2.373,0.047l-0.53-0.018l-0.299-0.028l-0.68-0.084l-0.162,0.826c-0.016,0.088-0.032,0.144-0.048,0.267
				l-0.051,0.39l-0.108,0.781c-0.167,1.043-0.334,2.09-0.502,3.142c0.36,0.073,0.77,0.147,1.23,0.221l1.37,0.22
				c0.865,0.145,1.732,0.283,2.603,0.406c3.195,0.27,6.373,0.103,9.546-0.22c1.586-0.162,3.171-0.362,4.756-0.567
				c1.543-0.205,3.375-0.414,4.238-0.592l-0.164-1.163l-0.037-0.27l-0.035-0.39l-0.064-0.781l-0.161-2.148
				c-0.212,0.01-0.413,0.014-0.612,0.012l-0.924-0.023c-0.839-0.028-1.68-0.083-2.522-0.169c-1.684-0.172-3.373-0.47-5.069-0.935"/>
		</g>
	</g>
	<g>
		<path fill="none" stroke="#545454" stroke-width="1.8023" stroke-miterlimit="10" d="M328.585,60.757
			c1.295-0.36,2.735-0.414,4.061,0.114c1.333,0.508,2.408,1.659,2.944,2.967c0.18,0.315,0.237,0.663,0.352,0.996
			c0.114,0.336,0.2,0.676,0.238,1.021l0.157,1.031l0.038,1.031c0.049,1.376-0.068,2.707-0.207,4.059
			c-0.336,2.68-0.966,5.376-2.267,7.816c-0.653,1.206-1.485,2.375-2.663,3.197c-0.31,0.181-0.588,0.411-0.939,0.521l-0.503,0.199
			c-0.171,0.054-0.355,0.073-0.532,0.109c-0.389,0.093-0.647,0.067-0.925,0.055c-0.283,0.015-0.553-0.109-0.835-0.158
			c-0.151-0.081-0.116,0.07-0.122,0.171l-0.008,0.316l-0.016,0.642l-0.031,1.429c0.001,1.01-0.081,2.068-0.259,3.076
			c-0.362,2.027-1,3.984-1.768,5.88c-0.789,2.725-2.006,5.341-3.67,7.694c-0.39,0.607-0.894,1.135-1.348,1.7
			c-0.495,0.532-1.012,1.052-1.562,1.537c-0.585,0.449-1.13,0.95-1.793,1.308c-0.308,0.183-0.667,0.407-0.936,0.553l-0.598,0.256
			c-0.087,0.047-0.227,0.073-0.271,0.137v0.247l-0.003,0.676l-0.021,2.077l-0.093,4.15l-0.151,4.147l-0.093,2.074l-0.1,1.565
			c1.75,0.216,3.501,0.433,5.255,0.65c1.915,0.28,3.831,0.55,5.737,0.897c3.802,0.668,7.659,1.409,11.252,2.654l1.386,0.437
			l1.385,0.534c0.912,0.372,1.827,0.731,2.716,1.135c0.906,0.374,1.768,0.829,2.651,1.241c0.854,0.462,1.724,0.902,2.555,1.402
			c3.335,1.976,6.395,4.409,8.92,7.358c2.534,2.94,4.495,6.38,5.877,10.082c0.561,1.887,1.219,3.77,1.511,5.74
			c0.461,1.945,0.558,3.937,0.752,5.931c0.779,15.879,1.165,31.778-0.458,47.909"/>
	</g>
	<g>
		<polyline fill="#FFFFFF" points="294.502,162.607 278.502,145.607 282.502,137.607 273.002,133.357 282.669,122.774 
			299.252,166.857 316.669,123.774 326.502,132.607 315.252,137.857 320.252,143.857 305.002,161.107 		"/>
		<g>
			<path fill="none" stroke="#545454" stroke-width="1.8023" stroke-miterlimit="10" d="M294.582,162.532
				c0,0-0.777-0.826-2.217-2.355c-0.72-0.765-1.585-1.727-2.528-2.936c-1.705-2.136-3.622-4.057-5.617-5.894
				c-0.998-0.919-2.015-1.816-3.036-2.709l-1.531-1.337c-0.496-0.432-1.149-1.033-1.767-1.603l1.001-2.399
				c0.288-0.69,0.584-1.375,0.892-2.054l0.472-1.014l0.454-0.928c0.216-0.427,0.449-0.848,0.727-1.312
				c-0.657-0.365-1.192-0.734-2.338-1.454c-0.904-0.561-1.789-1.157-2.662-1.772c-0.674-0.299-1.356-0.602-2.045-0.907l-1.201-0.537
				l0.446-0.488c0.455-0.488,0.913-0.979,1.376-1.476c1.404-1.289,2.835-2.652,4.203-3.99c1.067-1.053,2.126-2.098,3.178-3.135
				c0.175,0.507,0.349,1.008,0.521,1.506c0.205,0.556,0.408,1.109,0.611,1.662l1.156,2.989c4.438,8.103,8.925,15.915,11.504,24.589
				c0.286,0.964,0.549,1.938,0.787,2.925c0.084,0.784,0.181,1.564,0.289,2.341c0.12,0.808,0.189,1.447,0.363,2.329
				c0.331,1.721,0.899,3.934,1.607,6.391c0.852-1.497,1.892-3.617,2.984-6.011l1.272-2.796c0.354-0.793,0.695-1.591,1.024-2.394
				c1.318-3.213,2.447-6.505,3.411-9.864c0.279-0.969,0.543-1.944,0.797-2.922c0.641-3.822,1.534-7.521,2.671-11.122
				c0.569-1.801,1.198-3.578,1.888-5.333l0.528-1.313l0.665-1.588c0.575-1.364,1.154-2.696,1.716-3.945
				c0.379,0.368,0.761,0.739,1.143,1.11l1.834,1.822l0.435,0.441l0.368,0.383l0.577,0.633c1.024,1.076,2.074,2.116,3.138,3.127
				l1.877,1.74l2.047,1.842c-1.159,0.556-2.314,1.109-3.467,1.663l-2.863,1.412c-1.517,0.751-3.029,1.5-4.54,2.249l-0.133,0.064
				l1.127,1.357l0.109,0.176l0.181,0.258l0.373,0.517l0.769,1.012l0.932,1.151l1.05,1.242l-1.187,1.411l-0.57,0.695l-0.448,0.565
				l-1.758,2.284c-1.161,1.529-2.312,3.062-3.515,4.549c-2.408,2.974-5.028,5.761-8.374,7.952"/>
		</g>
	</g>
</g>
<g>
	<path fill="none" stroke="#545454" stroke-width="1.8023" stroke-miterlimit="10" d="M339,208.928
		c-2.279-6.081-2.565-12.605-3.832-18.934c-0.234-0.505-0.451-1.014-0.652-1.523l-0.291-0.766c-0.049-0.139-0.087-0.231-0.142-0.409
		l-0.162-0.539c0.099-0.49,0.198-0.978,0.296-1.464c0.09-0.427,0.188-0.851,0.293-1.272c0.21-0.843,0.45-1.676,0.714-2.5
		c0.264-0.824,0.552-1.64,0.859-2.45l0.609-1.661l0.601-1.545c0.778-1.934,1.426-3.244,1.86-3.816c0.44-0.59,0.666-0.44,0.741,0.081
		l-0.084,0.946c-0.125,1.753-0.156,2.587-0.122,3.306c0.035,0.707,0.135,1.296,0.273,2.262c0.069,0.499,0.148,0.96,0.233,1.949
		l0.269,2.602l0.562,5.203c0.715,6.939,1.147,13.894-0.49,20.947"/>
</g>
<g>
	<path fill="none" stroke="#545454" stroke-width="1.8023" stroke-miterlimit="10" d="M261.238,209.347
		c-1.042-6.41-0.042-12.864-0.042-19.317c-0.469-1.953-0.718-3.891-0.812-5.821c-0.047-0.965-0.055-1.929-0.032-2.891l0.056-1.442
		l0.097-2.014c0.152-2.673,0.396-4.74,0.666-5.812c0.27-1.101,0.567-1.208,0.826-0.701c0.148,0.721,0.297,1.447,0.446,2.173
		c0.341,1.532,0.542,2.324,0.764,2.984c0.22,0.653,0.461,1.174,0.818,1.958c0.29,0.559,1.008,2.417,1.606,3.827l1.896,4.493
		c-0.694,7.576-1.525,14.972-4.75,22.094"/>
</g>
<g>
	<g>
		<path fill="#FFFFFF" d="M203.897,197.281c0,3.654-2.925,6.616-6.532,6.616H98.96c-3.607,0-9.292-3.469-9.292-7.123l2.761-64.767
			c0-3.654,2.924-6.616,6.531-6.616l97.375-1.618c3.607,0,7.562,4.58,7.562,8.233V197.281z"/>
		<g>
			<path fill="none" stroke="#545454" stroke-width="1.8139" stroke-miterlimit="10" d="M203.787,197.281
				c0,0-0.013,0.125-0.037,0.369c-0.038,0.242-0.032,0.614-0.136,1.082c-0.23,0.917-0.753,2.334-2.178,3.542
				c-0.676,0.643-1.658,1.057-2.746,1.337c-1.113,0.155-2.381,0.075-3.752,0.003c-17.322-0.792-34.389,2.227-51.513,0.699
				c-1.89-0.144-3.775-0.328-5.655-0.535c-1.375,0.002-2.765,0.005-4.168,0.008c-1.229,0-2.468,0-3.718,0
				c-1.25-0.007-2.511-0.014-3.786-0.021c-4.899-0.236-9.747-0.413-14.567-0.53c-2.411-0.044-4.813-0.088-7.212-0.132l-3.596-0.033
				l-1.792-0.01c-0.515-0.025-1.048-0.079-1.58-0.225c-1.704-0.423-3.365-1.29-4.726-2.422c-0.771-0.555-1.474-1.214-1.961-1.996
				c-0.234-0.391-0.436-0.813-0.52-1.25c-0.117-0.408-0.083-0.977-0.117-1.47c-0.074-2.039-0.148-4.071-0.222-6.1
				c-0.138-4.056-0.251-8.094-0.303-12.124c-0.104-8.061,0.034-16.089,0.7-24.167c0.148-1.795,0.322-3.592,0.525-5.394
				c0.837-4.444,1.539-8.899,2.117-13.364l0.211-1.674l0.101-0.838l0.138-0.748c0.039-0.508,0.302-0.941,0.453-1.397
				c0.087-0.225,0.254-0.414,0.371-0.621c0.134-0.198,0.231-0.419,0.416-0.579l0.484-0.52c0.155-0.177,0.376-0.284,0.554-0.432
				c0.35-0.316,0.802-0.462,1.204-0.675c0.203-0.107,0.442-0.12,0.656-0.189c0.223-0.044,0.428-0.15,0.664-0.133
				c0.463-0.014,0.867-0.07,1.476-0.041c8.976,0.149,17.965-0.158,26.949-0.838l5.39-0.448c14.15-1.999,28.151-2.761,42.362-2.463
				c2.03,0.043,4.064,0.106,6.104,0.192c3.183,0.087,6.349,0.111,9.501,0.094c1.576-0.018,3.149-0.036,4.72-0.054l1.177-0.021
				l0.593-0.008l0.671,0.048c0.878,0.127,1.688,0.449,2.428,0.858c1.47,0.844,2.661,2.041,3.596,3.412
				c0.459,0.693,0.843,1.44,1.139,2.236c0.29,0.784,0.435,1.702,0.443,2.528c0.033,3.117,0.065,6.229,0.098,9.339l0,5.331
				c-0.914,16.971,2.105,33.469-0.483,50.325"/>
		</g>
	</g>
	<g>
		<path fill="#FFFFFF" d="M201.23,194.033c0,3.607-2.925,6.531-6.532,6.531H96.293c-3.607,0-6.531-2.924-6.531-6.531V129.59
			c0-3.607,2.924-6.531,6.531-6.531h98.405c3.607,0,6.532,2.924,6.532,6.531V194.033z"/>
		<g>
			<path fill="none" stroke="#545454" stroke-width="1.8023" stroke-miterlimit="10" d="M201.324,194.079
				c0.073,1.742-0.614,3.523-1.861,4.801c-1.233,1.295-3.022,2.056-4.836,2.083c-3.426,0.072-6.855,0.119-10.287,0.145
				c-6.862,0.053-13.733,0.025-20.609-0.035c-13.753-0.12-27.53-0.37-41.307-0.37c-4.448,0.25-8.879,0.438-13.296,0.572
				c-2.209,0.055-4.414,0.109-6.616,0.164l-3.302,0.055l-1.649,0.021l-0.824,0.009c-0.266,0.009-0.551,0.005-0.878-0.032
				l-0.942-0.09c-0.312-0.041-0.609-0.164-0.913-0.246c-0.623-0.142-1.164-0.481-1.721-0.779c-1.044-0.695-1.985-1.6-2.559-2.733
				c-0.665-1.088-0.877-2.378-0.948-3.623l0.021-3.287c0.037-4.381,0.107-8.758,0.201-13.135c0.188-8.754,0.469-17.507,0.766-26.297
				c0.149-4.395,0.298-8.798,0.447-13.216c0.071-2.208,0.143-4.42,0.214-6.636l0.052-1.663c0.047-0.534,0.101-0.997,0.207-1.481
				c0.182-0.456,0.272-0.944,0.565-1.344c0.13-0.205,0.229-0.43,0.379-0.619l0.481-0.544c1.106-1.204,2.689-1.856,4.336-1.801
				l5.587,0.044c3.723,0,7.442,0,11.158,0.001c7.432-0.035,14.852-0.135,22.264-0.273c14.825-0.277,29.622-0.706,44.436-1.064
				l11.114-0.251l2.78-0.056c0.468-0.004,0.907-0.039,1.438,0.022c0.512,0.038,1.027,0.066,1.514,0.247
				c1.986,0.539,3.716,1.977,4.619,3.86c0.244,0.46,0.353,0.981,0.526,1.474c0.105,0.509,0.137,1.036,0.199,1.556l0.04,2.788
				l0.058,5.571c0.016,3.716,0.031,7.435,0.046,11.157c-0.007,14.891-0.309,29.842-1.127,44.897"/>
		</g>
	</g>
	<g>
		<rect x="102.39" y="128.631" fill="#FF8D85" width="86.431" height="66.36"/>
		<g>
			<path fill="none" stroke="#545454" stroke-width="1.8023" stroke-miterlimit="10" d="M188.783,195.09
				c-22.808,1.042-45.771,0.042-68.733,0.042c-2.961,0.2-5.913,0.359-8.855,0.484c-1.472,0.054-2.941,0.108-4.408,0.162l-2.2,0.062
				l-3.096,0.051c-0.032-3.072-0.063-6.139-0.095-9.201c-0.007-2.763,0.008-5.522,0.041-8.28c0.066-5.515,0.207-11.022,0.386-16.535
				c0.208-5.512,0.416-11.03,0.625-16.567c0.219-5.298,0.439-10.613,0.661-15.958l1.278,0.072l2.005,0.069
				c13.818,0.278,27.562,0.093,41.283-0.25c13.913-0.397,27.808-0.794,41.726-1.191c0.11,5.685,0.22,11.373,0.33,17.069
				c0.073,5.502,0.103,11.013,0.069,16.535c-0.067,11.042-0.386,22.128-1.114,33.284"/>
		</g>
	</g>
	<g>
		<circle fill="#FFFFFF" cx="194.439" cy="161.812" r="3.192"/>
		<g>
			<path fill="none" stroke="#545454" stroke-width="1.8023" stroke-miterlimit="10" d="M197.729,161.814
				c0.525,0.793,0.181,1.833-0.484,2.391c-0.672,0.594-1.533,0.768-2.287,0.887c-0.424,0.567-1.119,0.814-1.734,0.683
				c-0.635-0.084-1.162-0.543-1.471-1.07c-0.162-0.26-0.233-0.583-0.301-0.859c-0.021-0.311-0.034-0.598,0.021-0.875
				c0.118-0.562,0.364-1.019,0.658-1.349c0.304-0.554,0.388-1.016,0.671-1.66c0.271-0.617,0.84-1.353,1.769-1.685
				c0.9-0.351,2.128-0.167,2.869,0.624c0.76,0.749,0.901,2.105,0.057,2.909"/>
		</g>
	</g>
</g>
<g>
	<rect x="28.002" y="221.441" fill="#FFFFFF" width="415.333" height="42"/>
	<g>
		<path fill="none" stroke="#545454" stroke-width="2.7034" stroke-miterlimit="10" d="M443.335,263.276c0,0-5.01,0-14.289,0
			c-4.639,0-10.353-0.043-17.098-0.257c-42.677-1.181-84.728,3.319-126.917,1.042c-4.656-0.214-9.301-0.489-13.932-0.797
			c-3.388,0.003-6.812,0.007-10.271,0.011c-3.028,0-6.081,0-9.159,0c-3.082-0.011-6.187-0.021-9.328-0.032
			c-24.142-0.703-47.776-1.055-71.368-1.051l-14.154,0.045c-40.403,1.951-79.677,4.125-119.552,3.166
			c-3.642-0.093-7.289-0.187-10.949-0.28c0.053-1.903,0.106-3.817,0.159-5.732c0.553-6.312,1.041-12.63,1.464-18.955l0.589-9.493
			l0.26-4.75l0.061-1.188l0.06-0.887l0.115-1.651l2.12,0.135l1.28,0.064l1.475,0.062l5.904,0.228l11.814,0.354
			c7.879,0.192,15.765,0.297,23.653,0.32c15.778,0.046,31.57-0.235,47.36-0.799l13.288-0.535
			c34.905-2.628,69.417-3.417,104.422-2.622c5,0.114,10.012,0.259,15.034,0.438c31.359,0.833,62.073,0.159,92.725,0.067l13.134,0
			c13.839,0.451,27.55,0.26,41.209-0.058c6.829-0.169,13.645-0.339,20.457-0.508l10.216-0.204l5.107-0.068l7.245-0.038l0.002,7.355
			l-0.044,5.222c-0.045,3.482-0.124,6.968-0.245,10.458c-0.243,6.979-0.657,13.972-1.309,20.992"/>
	</g>
</g>
<g>
	<defs>
		<rect id="SVGID_1_" x="102.39" y="128.631" width="86.431" height="66.36"/>
	</defs>
	<clipPath id="SVGID_2_">
		<use xlink:href="#SVGID_1_"  overflow="visible"/>
	</clipPath>
	<rect x="102.39" y="128.631" clip-path="url(#SVGID_2_)" fill="#FFA894" width="86.431" height="66.36"/>
	<path clip-path="url(#SVGID_2_)" fill-rule="evenodd" clip-rule="evenodd" fill="#E56D6A" d="M210.707,180.408l-6.323-0.192v-2.394
		h-2.777v0.383h-1.054v-7.47l-1.148-1.628l-1.341,1.628v7.47h-0.574v-5.747h-0.288v-0.479h-3.161v-1.436h-5.077v3.256h-4.118v3.927
		h-2.681v-3.639l-0.767-0.67h-3.256l-1.149,0.575v-16.667l-1.915-1.819h-4.981V171.5h-1.915l-3.352-3.352v-2.107h-3.065v-2.012
		h-4.79v2.299h-1.628v2.969h-4.118v-7.854l-1.053-1.054h-3.64l-0.958,0.958v7.759h-4.214v-3.736l-1.245-9.482l-1.438,9.482v3.831
		h-2.586v-7.375h-4.214v7.375h-1.437v-9.482h-6.608v4.693h-2.49v15.803h-0.479v-21.741h-3.352v-5.555h-0.382v5.555h-3.162v13.122
		h-1.053l-2.873-2.969l-2.012,2.682v4.022h-1.533v3.161h-1.054v-0.67h-2.873v0.575h-0.861v-7.471l-1.055-1.437l-1.339,1.437v7.471
		h-0.767v-6.13h-3.543v-1.916H90.12v3.832h-3.83v3.449h-3.066v-3.257l-1.054-0.861h-2.298l0.191,7.47H210.61"/>
	<polygon clip-path="url(#SVGID_2_)" fill-rule="evenodd" clip-rule="evenodd" fill="#E56D6A" points="189.408,179.502 
		190.908,196.502 99.158,196.252 100.908,179.752 	"/>
</g>
<g>
	<path fill="none" stroke="#545454" stroke-width="1.8023" stroke-miterlimit="10" d="M188.783,195.09
		c-22.808,1.042-45.771,0.042-68.733,0.042c-2.961,0.2-5.913,0.359-8.855,0.484c-1.472,0.054-2.941,0.108-4.408,0.162l-2.2,0.062
		l-3.096,0.051c-0.032-3.072-0.063-6.139-0.095-9.201c-0.007-2.763,0.008-5.522,0.041-8.28c0.066-5.515,0.207-11.022,0.386-16.535
		c0.208-5.512,0.416-11.03,0.625-16.567c0.219-5.298,0.439-10.613,0.661-15.958l1.278,0.072l2.005,0.069
		c13.818,0.278,27.562,0.093,41.283-0.25c13.913-0.397,27.808-0.794,41.726-1.191c0.11,5.685,0.22,11.373,0.33,17.069
		c0.073,5.502,0.103,11.013,0.069,16.535c-0.067,11.042-0.386,22.128-1.114,33.284"/>
</g>
</svg>
